<?xml version="1.0" encoding="utf-8" standalone="no"?>
<!DOCTYPE svg PUBLIC "-//W3C//DTD SVG 1.1//EN"
  "http://www.w3.org/Graphics/SVG/1.1/DTD/svg11.dtd">
<svg xmlns:xlink="http://www.w3.org/1999/xlink" width="481.889764pt" height="255.11811pt" viewBox="0 0 481.889764 255.11811" xmlns="http://www.w3.org/2000/svg" version="1.1">
 <metadata>
  <rdf:RDF xmlns:dc="http://purl.org/dc/elements/1.1/" xmlns:cc="http://creativecommons.org/ns#" xmlns:rdf="http://www.w3.org/1999/02/22-rdf-syntax-ns#">
   <cc:Work>
    <dc:type rdf:resource="http://purl.org/dc/dcmitype/StillImage"/>
    <dc:date>2022-12-04T11:30:37.119269</dc:date>
    <dc:format>image/svg+xml</dc:format>
    <dc:creator>
     <cc:Agent>
      <dc:title>Matplotlib v3.6.2, https://matplotlib.org/</dc:title>
     </cc:Agent>
    </dc:creator>
   </cc:Work>
  </rdf:RDF>
 </metadata>
 <defs>
  <style type="text/css">*{stroke-linejoin: round; stroke-linecap: butt}</style>
 </defs>
 <g id="figure_1">
  <g id="patch_1">
   <path d="M 0 255.11811 
L 481.889764 255.11811 
L 481.889764 0 
L 0 0 
L 0 255.11811 
z
" style="fill: none"/>
  </g>
  <g id="axes_1">
   <g id="patch_2">
    <path d="M 38.780156 223.754673 
L 474.329764 223.754673 
L 474.329764 19.674937 
L 38.780156 19.674937 
L 38.780156 223.754673 
z
" style="fill: none"/>
   </g>
   <g id="PolyCollection_1">
    <defs>
     <path id="m7a0049206a" d="M 82.758048 -153.435735 
L 81.912186 -153.435735 
L 81.884515 -154.170392 
L 81.87297 -154.905049 
L 81.878554 -155.639707 
L 81.900287 -156.374364 
L 81.935265 -157.109022 
L 81.979008 -157.843679 
L 82.026054 -158.578337 
L 82.070708 -159.312994 
L 82.107844 -160.047651 
L 82.133643 -160.782309 
L 82.146159 -161.516966 
L 82.145603 -162.251624 
L 82.134315 -162.986281 
L 82.116363 -163.720939 
L 82.096827 -164.455596 
L 82.080875 -165.190254 
L 82.072786 -165.924911 
L 82.075147 -166.659568 
L 82.088415 -167.394226 
L 82.110916 -168.128883 
L 82.139287 -168.863541 
L 82.169198 -169.598198 
L 82.196163 -170.332856 
L 82.21626 -171.067513 
L 82.226653 -171.802171 
L 82.225906 -172.536828 
L 82.214114 -173.271485 
L 82.192888 -174.006143 
L 82.16519 -174.7408 
L 82.134976 -175.475458 
L 82.106611 -176.210115 
L 82.084078 -176.944773 
L 82.070092 -177.67943 
L 82.065312 -178.414087 
L 82.067861 -179.148745 
L 82.073324 -179.883402 
L 82.075276 -180.61806 
L 82.066303 -181.352717 
L 82.039371 -182.087375 
L 81.98932 -182.822032 
L 81.914245 -183.55669 
L 81.816479 -184.291347 
L 81.70288 -185.026004 
L 81.584223 -185.760662 
L 81.473614 -186.495319 
L 81.384122 -187.229977 
L 81.326079 -187.964634 
L 81.304705 -188.699292 
L 81.318719 -189.433949 
L 81.360367 -190.168607 
L 81.416942 -190.903264 
L 81.473397 -191.637921 
L 81.515377 -192.372579 
L 81.531842 -193.107236 
L 81.516663 -193.841894 
L 81.468855 -194.576551 
L 81.391556 -195.311209 
L 81.290193 -196.045866 
L 81.170467 -196.780524 
L 81.036756 -197.515181 
L 80.891365 -198.249838 
L 80.734699 -198.984496 
L 80.566164 -199.719153 
L 80.385328 -200.453811 
L 80.192873 -201.188468 
L 79.990951 -201.923126 
L 79.782835 -202.657783 
L 79.572045 -203.39244 
L 79.361241 -204.127098 
L 79.15121 -204.861755 
L 78.940055 -205.596413 
L 78.722556 -206.33107 
L 78.489555 -207.065728 
L 78.227345 -207.800385 
L 77.917214 -208.535043 
L 77.535367 -209.2697 
L 77.053321 -210.004357 
L 76.438499 -210.739015 
L 75.654415 -211.473672 
L 74.659861 -212.20833 
L 73.407115 -212.942987 
L 71.840352 -213.677645 
L 69.896641 -214.412302 
L 67.512571 -215.14696 
L 64.638838 -215.881617 
L 61.262877 -216.616274 
L 57.436094 -217.350932 
L 53.298561 -218.085589 
L 49.091705 -218.820247 
L 45.14998 -219.554904 
L 41.866594 -220.289562 
L 39.635506 -221.024219 
L 38.780156 -221.758876 
L 39.485824 -222.493534 
L 41.75416 -223.228191 
L 45.393933 -223.962849 
L 50.052255 -224.697506 
L 55.278738 -225.432164 
L 60.605605 -226.166821 
L 104.064629 -226.166821 
L 104.064629 -226.166821 
L 109.391496 -225.432164 
L 114.617979 -224.697506 
L 119.276301 -223.962849 
L 122.916074 -223.228191 
L 125.18441 -222.493534 
L 125.890078 -221.758876 
L 125.034728 -221.024219 
L 122.80364 -220.289562 
L 119.520254 -219.554904 
L 115.578529 -218.820247 
L 111.371673 -218.085589 
L 107.23414 -217.350932 
L 103.407357 -216.616274 
L 100.031396 -215.881617 
L 97.157663 -215.14696 
L 94.773593 -214.412302 
L 92.829882 -213.677645 
L 91.263119 -212.942987 
L 90.010373 -212.20833 
L 89.015819 -211.473672 
L 88.231735 -210.739015 
L 87.616913 -210.004357 
L 87.134867 -209.2697 
L 86.75302 -208.535043 
L 86.442889 -207.800385 
L 86.180679 -207.065728 
L 85.947678 -206.33107 
L 85.730179 -205.596413 
L 85.519024 -204.861755 
L 85.308993 -204.127098 
L 85.098189 -203.39244 
L 84.887399 -202.657783 
L 84.679283 -201.923126 
L 84.477361 -201.188468 
L 84.284906 -200.453811 
L 84.10407 -199.719153 
L 83.935535 -198.984496 
L 83.778869 -198.249838 
L 83.633478 -197.515181 
L 83.499767 -196.780524 
L 83.380041 -196.045866 
L 83.278678 -195.311209 
L 83.201379 -194.576551 
L 83.153571 -193.841894 
L 83.138392 -193.107236 
L 83.154857 -192.372579 
L 83.196837 -191.637921 
L 83.253292 -190.903264 
L 83.309867 -190.168607 
L 83.351515 -189.433949 
L 83.365529 -188.699292 
L 83.344155 -187.964634 
L 83.286112 -187.229977 
L 83.19662 -186.495319 
L 83.086011 -185.760662 
L 82.967354 -185.026004 
L 82.853755 -184.291347 
L 82.755989 -183.55669 
L 82.680914 -182.822032 
L 82.630863 -182.087375 
L 82.603931 -181.352717 
L 82.594958 -180.61806 
L 82.59691 -179.883402 
L 82.602373 -179.148745 
L 82.604922 -178.414087 
L 82.600142 -177.67943 
L 82.586156 -176.944773 
L 82.563623 -176.210115 
L 82.535258 -175.475458 
L 82.505044 -174.7408 
L 82.477346 -174.006143 
L 82.45612 -173.271485 
L 82.444328 -172.536828 
L 82.443581 -171.802171 
L 82.453974 -171.067513 
L 82.474071 -170.332856 
L 82.501036 -169.598198 
L 82.530947 -168.863541 
L 82.559318 -168.128883 
L 82.581819 -167.394226 
L 82.595087 -166.659568 
L 82.597448 -165.924911 
L 82.589359 -165.190254 
L 82.573407 -164.455596 
L 82.553871 -163.720939 
L 82.535919 -162.986281 
L 82.524631 -162.251624 
L 82.524075 -161.516966 
L 82.536591 -160.782309 
L 82.56239 -160.047651 
L 82.599526 -159.312994 
L 82.64418 -158.578337 
L 82.691226 -157.843679 
L 82.734969 -157.109022 
L 82.769947 -156.374364 
L 82.79168 -155.639707 
L 82.797264 -154.905049 
L 82.785719 -154.170392 
L 82.758048 -153.435735 
z
" style="stroke: #545454; stroke-width: 1.5"/>
    </defs>
    <g clip-path="url(#p5f72f755a0)">
     <use xlink:href="#m7a0049206a" x="0" y="255.11811" style="fill: #4878d0; stroke: #545454; stroke-width: 1.5"/>
    </g>
   </g>
   <g id="PolyCollection_2">
    <path d="M 169.591255 150.444588 
L 169.298822 150.444588 
L 169.291419 149.243118 
L 169.285721 148.041647 
L 169.281707 146.840176 
L 169.27932 145.638705 
L 169.27849 144.437235 
L 169.279158 143.235764 
L 169.281274 142.034293 
L 169.284774 140.832822 
L 169.289534 139.631352 
L 169.29531 138.429881 
L 169.301679 137.22841 
L 169.307987 136.026939 
L 169.313316 134.825469 
L 169.316483 133.623998 
L 169.316072 132.422527 
L 169.310494 131.221056 
L 169.298091 130.019586 
L 169.277255 128.818115 
L 169.246579 127.616644 
L 169.205006 126.415173 
L 169.151972 125.213703 
L 169.087528 124.012232 
L 169.012407 122.810761 
L 168.928032 121.60929 
L 168.836451 120.40782 
L 168.740195 119.206349 
L 168.642081 118.004878 
L 168.544975 116.803407 
L 168.451563 115.601937 
L 168.364158 114.400466 
L 168.284567 113.198995 
L 168.214051 111.997524 
L 168.153354 110.796054 
L 168.102796 109.594583 
L 168.062394 108.393112 
L 168.031971 107.191641 
L 168.011221 105.990171 
L 167.999726 104.7887 
L 167.996901 103.587229 
L 168.001912 102.385758 
L 168.013567 101.184288 
L 168.03024 99.982817 
L 168.049832 98.781346 
L 168.069804 97.579875 
L 168.087274 96.378405 
L 168.099178 95.176934 
L 168.102471 93.975463 
L 168.094338 92.773992 
L 168.072401 91.572522 
L 168.034898 90.371051 
L 167.980802 89.16958 
L 167.909904 87.968109 
L 167.822817 86.766638 
L 167.720937 85.565168 
L 167.606335 84.363697 
L 167.48161 83.162226 
L 167.34969 81.960755 
L 167.213598 80.759285 
L 167.076196 79.557814 
L 166.939911 78.356343 
L 166.806468 77.154872 
L 166.676644 75.953402 
L 166.55008 74.751931 
L 166.425159 73.55046 
L 166.298994 72.348989 
L 166.167526 71.147519 
L 166.025742 69.946048 
L 165.868005 68.744577 
L 165.688473 67.543106 
L 165.481564 66.341636 
L 165.24242 65.140165 
L 164.967324 63.938694 
L 164.654015 62.737223 
L 164.301871 61.535753 
L 163.911916 60.334282 
L 163.486672 59.132811 
L 163.02985 57.93134 
L 162.545928 56.72987 
L 162.039691 55.528399 
L 161.515793 54.326928 
L 160.978452 53.125457 
L 160.43135 51.923987 
L 159.877807 50.722516 
L 159.321267 49.521045 
L 158.766053 48.319574 
L 158.218318 47.118104 
L 157.687035 45.916633 
L 157.184824 44.715162 
L 156.728401 43.513691 
L 156.338438 42.312221 
L 156.038687 41.11075 
L 155.854349 39.909279 
L 155.809757 38.707808 
L 155.925651 37.506338 
L 156.216372 36.304867 
L 156.68743 35.103396 
L 157.33385 33.901925 
L 158.139633 32.700455 
L 159.078487 31.498984 
L 179.81159 31.498984 
L 179.81159 31.498984 
L 180.750444 32.700455 
L 181.556227 33.901925 
L 182.202647 35.103396 
L 182.673705 36.304867 
L 182.964426 37.506338 
L 183.08032 38.707808 
L 183.035728 39.909279 
L 182.85139 41.11075 
L 182.551639 42.312221 
L 182.161676 43.513691 
L 181.705253 44.715162 
L 181.203042 45.916633 
L 180.671759 47.118104 
L 180.124024 48.319574 
L 179.56881 49.521045 
L 179.01227 50.722516 
L 178.458727 51.923987 
L 177.911625 53.125457 
L 177.374284 54.326928 
L 176.850386 55.528399 
L 176.344149 56.72987 
L 175.860227 57.93134 
L 175.403405 59.132811 
L 174.978161 60.334282 
L 174.588206 61.535753 
L 174.236062 62.737223 
L 173.922753 63.938694 
L 173.647657 65.140165 
L 173.408513 66.341636 
L 173.201604 67.543106 
L 173.022072 68.744577 
L 172.864335 69.946048 
L 172.722551 71.147519 
L 172.591083 72.348989 
L 172.464918 73.55046 
L 172.339997 74.751931 
L 172.213433 75.953402 
L 172.083609 77.154872 
L 171.950166 78.356343 
L 171.813881 79.557814 
L 171.676479 80.759285 
L 171.540387 81.960755 
L 171.408467 83.162226 
L 171.283742 84.363697 
L 171.16914 85.565168 
L 171.06726 86.766638 
L 170.980173 87.968109 
L 170.909275 89.16958 
L 170.855179 90.371051 
L 170.817676 91.572522 
L 170.795739 92.773992 
L 170.787606 93.975463 
L 170.790899 95.176934 
L 170.802803 96.378405 
L 170.820273 97.579875 
L 170.840245 98.781346 
L 170.859837 99.982817 
L 170.87651 101.184288 
L 170.888165 102.385758 
L 170.893176 103.587229 
L 170.890351 104.7887 
L 170.878856 105.990171 
L 170.858106 107.191641 
L 170.827683 108.393112 
L 170.787281 109.594583 
L 170.736723 110.796054 
L 170.676026 111.997524 
L 170.60551 113.198995 
L 170.525919 114.400466 
L 170.438514 115.601937 
L 170.345102 116.803407 
L 170.247996 118.004878 
L 170.149882 119.206349 
L 170.053626 120.40782 
L 169.962045 121.60929 
L 169.87767 122.810761 
L 169.802549 124.012232 
L 169.738105 125.213703 
L 169.685071 126.415173 
L 169.643498 127.616644 
L 169.612822 128.818115 
L 169.591986 130.019586 
L 169.579583 131.221056 
L 169.574005 132.422527 
L 169.573594 133.623998 
L 169.576761 134.825469 
L 169.58209 136.026939 
L 169.588398 137.22841 
L 169.594767 138.429881 
L 169.600543 139.631352 
L 169.605303 140.832822 
L 169.608803 142.034293 
L 169.610919 143.235764 
L 169.611587 144.437235 
L 169.610757 145.638705 
L 169.60837 146.840176 
L 169.604356 148.041647 
L 169.598658 149.243118 
L 169.591255 150.444588 
z
" clip-path="url(#p5f72f755a0)" style="fill: url(#h6b5c0fecc7); stroke: #545454; stroke-width: 1.5"/>
   </g>
   <g id="PolyCollection_3">
    <defs>
     <path id="m0476bd74b4" d="M 256.656103 -43.161266 
L 256.453817 -43.161266 
L 256.447222 -44.965879 
L 256.441162 -46.770493 
L 256.435491 -48.575106 
L 256.430017 -50.37972 
L 256.424535 -52.184333 
L 256.418865 -53.988947 
L 256.412874 -55.79356 
L 256.406506 -57.598174 
L 256.3998 -59.402787 
L 256.39289 -61.207401 
L 256.386009 -63.012014 
L 256.379465 -64.816627 
L 256.373614 -66.621241 
L 256.368815 -68.425854 
L 256.365372 -70.230468 
L 256.363469 -72.035081 
L 256.363101 -73.839695 
L 256.364009 -75.644308 
L 256.365636 -77.448922 
L 256.367102 -79.253535 
L 256.367217 -81.058149 
L 256.364532 -82.862762 
L 256.35743 -84.667376 
L 256.344247 -86.471989 
L 256.323421 -88.276603 
L 256.293637 -90.081216 
L 256.253976 -91.88583 
L 256.204019 -93.690443 
L 256.143912 -95.495057 
L 256.074361 -97.29967 
L 255.996573 -99.104283 
L 255.912114 -100.908897 
L 255.822738 -102.71351 
L 255.730165 -104.518124 
L 255.635874 -106.322737 
L 255.540909 -108.127351 
L 255.445741 -109.931964 
L 255.3502 -111.736578 
L 255.253479 -113.541191 
L 255.15421 -115.345805 
L 255.050603 -117.150418 
L 254.940632 -118.955032 
L 254.822236 -120.759645 
L 254.693537 -122.564259 
L 254.553049 -124.368872 
L 254.39987 -126.173486 
L 254.233857 -127.978099 
L 254.05576 -129.782713 
L 253.867324 -131.587326 
L 253.671329 -133.39194 
L 253.471553 -135.196553 
L 253.272649 -137.001166 
L 253.079923 -138.80578 
L 252.898998 -140.610393 
L 252.735404 -142.415007 
L 252.5941 -144.21962 
L 252.478983 -146.024234 
L 252.392443 -147.828847 
L 252.335028 -149.633461 
L 252.305259 -151.438074 
L 252.299654 -153.242688 
L 252.312964 -155.047301 
L 252.338611 -156.851915 
L 252.369288 -158.656528 
L 252.397645 -160.461142 
L 252.416986 -162.265755 
L 252.421877 -164.070369 
L 252.408602 -165.874982 
L 252.375399 -167.679596 
L 252.322463 -169.484209 
L 252.251723 -171.288822 
L 252.166436 -173.093436 
L 252.070665 -174.898049 
L 251.968719 -176.702663 
L 251.864625 -178.507276 
L 251.761707 -180.31189 
L 251.662305 -182.116503 
L 251.567668 -183.921117 
L 251.478012 -185.72573 
L 251.392732 -187.530344 
L 251.310737 -189.334957 
L 251.230862 -191.139571 
L 251.152323 -192.944184 
L 251.075148 -194.748798 
L 251.00055 -196.553411 
L 250.931182 -198.358025 
L 250.871239 -200.162638 
L 250.826366 -201.967252 
L 250.80337 -203.771865 
L 250.809743 -205.576478 
L 250.853019 -207.381092 
L 250.94004 -209.185705 
L 251.076192 -210.990319 
L 251.264714 -212.794932 
L 251.506155 -214.599546 
L 251.798064 -216.404159 
L 252.134959 -218.208773 
L 252.508599 -220.013386 
L 252.908534 -221.818 
L 260.201386 -221.818 
L 260.201386 -221.818 
L 260.601321 -220.013386 
L 260.974961 -218.208773 
L 261.311856 -216.404159 
L 261.603765 -214.599546 
L 261.845206 -212.794932 
L 262.033728 -210.990319 
L 262.16988 -209.185705 
L 262.256901 -207.381092 
L 262.300177 -205.576478 
L 262.30655 -203.771865 
L 262.283554 -201.967252 
L 262.238681 -200.162638 
L 262.178738 -198.358025 
L 262.10937 -196.553411 
L 262.034772 -194.748798 
L 261.957597 -192.944184 
L 261.879058 -191.139571 
L 261.799183 -189.334957 
L 261.717188 -187.530344 
L 261.631908 -185.72573 
L 261.542252 -183.921117 
L 261.447615 -182.116503 
L 261.348213 -180.31189 
L 261.245295 -178.507276 
L 261.141201 -176.702663 
L 261.039255 -174.898049 
L 260.943484 -173.093436 
L 260.858197 -171.288822 
L 260.787457 -169.484209 
L 260.734521 -167.679596 
L 260.701318 -165.874982 
L 260.688043 -164.070369 
L 260.692934 -162.265755 
L 260.712275 -160.461142 
L 260.740632 -158.656528 
L 260.771309 -156.851915 
L 260.796956 -155.047301 
L 260.810266 -153.242688 
L 260.804661 -151.438074 
L 260.774892 -149.633461 
L 260.717477 -147.828847 
L 260.630937 -146.024234 
L 260.51582 -144.21962 
L 260.374516 -142.415007 
L 260.210922 -140.610393 
L 260.029997 -138.80578 
L 259.837271 -137.001166 
L 259.638367 -135.196553 
L 259.438591 -133.39194 
L 259.242596 -131.587326 
L 259.05416 -129.782713 
L 258.876063 -127.978099 
L 258.71005 -126.173486 
L 258.556871 -124.368872 
L 258.416383 -122.564259 
L 258.287684 -120.759645 
L 258.169288 -118.955032 
L 258.059317 -117.150418 
L 257.95571 -115.345805 
L 257.856441 -113.541191 
L 257.75972 -111.736578 
L 257.664179 -109.931964 
L 257.569011 -108.127351 
L 257.474046 -106.322737 
L 257.379755 -104.518124 
L 257.287182 -102.71351 
L 257.197806 -100.908897 
L 257.113347 -99.104283 
L 257.035559 -97.29967 
L 256.966008 -95.495057 
L 256.905901 -93.690443 
L 256.855944 -91.88583 
L 256.816283 -90.081216 
L 256.7865 -88.276603 
L 256.765673 -86.471989 
L 256.75249 -84.667376 
L 256.745388 -82.862762 
L 256.742703 -81.058149 
L 256.742818 -79.253535 
L 256.744284 -77.448922 
L 256.745911 -75.644308 
L 256.746819 -73.839695 
L 256.746451 -72.035081 
L 256.744548 -70.230468 
L 256.741105 -68.425854 
L 256.736306 -66.621241 
L 256.730455 -64.816627 
L 256.723911 -63.012014 
L 256.71703 -61.207401 
L 256.71012 -59.402787 
L 256.703414 -57.598174 
L 256.697046 -55.79356 
L 256.691055 -53.988947 
L 256.685385 -52.184333 
L 256.679904 -50.37972 
L 256.674429 -48.575106 
L 256.668758 -46.770493 
L 256.662698 -44.965879 
L 256.656103 -43.161266 
z
" style="stroke: #545454; stroke-width: 1.5"/>
    </defs>
    <g clip-path="url(#p5f72f755a0)">
     <use xlink:href="#m0476bd74b4" x="0" y="255.11811" style="fill: #d65f5f; stroke: #545454; stroke-width: 1.5"/>
    </g>
   </g>
   <g id="PolyCollection_4">
    <defs>
     <path id="mfd19dc9f37" d="M 343.76088 -77.66827 
L 343.568883 -77.66827 
L 343.567709 -79.141939 
L 343.567906 -80.615608 
L 343.569089 -82.089278 
L 343.570756 -83.562947 
L 343.572345 -85.036616 
L 343.573294 -86.510286 
L 343.573097 -87.983955 
L 343.571349 -89.457624 
L 343.567767 -90.931294 
L 343.562191 -92.404963 
L 343.554562 -93.878632 
L 343.544882 -95.352302 
L 343.533173 -96.825971 
L 343.519431 -98.29964 
L 343.503599 -99.77331 
L 343.485559 -101.246979 
L 343.465141 -102.720648 
L 343.442153 -104.194318 
L 343.41642 -105.667987 
L 343.387818 -107.141656 
L 343.356308 -108.615326 
L 343.321937 -110.088995 
L 343.284831 -111.562664 
L 343.245167 -113.036334 
L 343.203131 -114.510003 
L 343.158876 -115.983672 
L 343.112493 -117.457342 
L 343.063993 -118.931011 
L 343.013297 -120.40468 
L 342.960252 -121.87835 
L 342.90464 -123.352019 
L 342.846192 -124.825688 
L 342.784601 -126.299358 
L 342.719523 -127.773027 
L 342.650582 -129.246696 
L 342.577385 -130.720365 
L 342.49955 -132.194035 
L 342.416755 -133.667704 
L 342.328807 -135.141373 
L 342.235717 -136.615043 
L 342.137773 -138.088712 
L 342.035581 -139.562381 
L 341.930059 -141.036051 
L 341.822372 -142.50972 
L 341.713802 -143.983389 
L 341.605576 -145.457059 
L 341.49867 -146.930728 
L 341.39363 -148.404397 
L 341.290462 -149.878067 
L 341.188609 -151.351736 
L 341.08704 -152.825405 
L 340.984452 -154.299075 
L 340.879541 -155.772744 
L 340.771305 -157.246413 
L 340.659311 -158.720083 
L 340.543869 -160.193752 
L 340.426071 -161.667421 
L 340.30767 -163.141091 
L 340.190829 -164.61476 
L 340.077757 -166.088429 
L 339.97032 -167.562099 
L 339.869683 -169.035768 
L 339.776051 -170.509437 
L 339.688558 -171.983107 
L 339.605316 -173.456776 
L 339.523616 -174.930445 
L 339.440236 -176.404115 
L 339.351802 -177.877784 
L 339.255138 -179.351453 
L 339.147544 -180.825122 
L 339.026969 -182.298792 
L 338.892068 -183.772461 
L 338.742143 -185.24613 
L 338.577018 -186.7198 
L 338.39687 -188.193469 
L 338.202085 -189.667138 
L 337.993147 -191.140808 
L 337.770606 -192.614477 
L 337.535117 -194.088146 
L 337.287539 -195.561816 
L 337.0291 -197.035485 
L 336.76159 -198.509154 
L 336.487598 -199.982824 
L 336.210764 -201.456493 
L 335.936033 -202.930162 
L 335.669905 -204.403832 
L 335.4206 -205.877501 
L 335.198106 -207.35117 
L 335.014023 -208.82484 
L 334.881136 -210.298509 
L 334.812698 -211.772178 
L 334.82142 -213.245848 
L 334.918254 -214.719517 
L 335.111098 -216.193186 
L 335.403608 -217.666856 
L 335.794294 -219.140525 
L 336.276088 -220.614194 
L 336.836478 -222.087864 
L 337.458238 -223.561533 
L 349.871525 -223.561533 
L 349.871525 -223.561533 
L 350.493285 -222.087864 
L 351.053675 -220.614194 
L 351.535469 -219.140525 
L 351.926155 -217.666856 
L 352.218665 -216.193186 
L 352.411509 -214.719517 
L 352.508343 -213.245848 
L 352.517065 -211.772178 
L 352.448627 -210.298509 
L 352.31574 -208.82484 
L 352.131657 -207.35117 
L 351.909163 -205.877501 
L 351.659858 -204.403832 
L 351.39373 -202.930162 
L 351.119 -201.456493 
L 350.842165 -199.982824 
L 350.568173 -198.509154 
L 350.300663 -197.035485 
L 350.042224 -195.561816 
L 349.794646 -194.088146 
L 349.559157 -192.614477 
L 349.336616 -191.140808 
L 349.127678 -189.667138 
L 348.932893 -188.193469 
L 348.752745 -186.7198 
L 348.58762 -185.24613 
L 348.437695 -183.772461 
L 348.302794 -182.298792 
L 348.182219 -180.825122 
L 348.074625 -179.351453 
L 347.977961 -177.877784 
L 347.889527 -176.404115 
L 347.806147 -174.930445 
L 347.724447 -173.456776 
L 347.641205 -171.983107 
L 347.553712 -170.509437 
L 347.46008 -169.035768 
L 347.359443 -167.562099 
L 347.252006 -166.088429 
L 347.138934 -164.61476 
L 347.022093 -163.141091 
L 346.903692 -161.667421 
L 346.785894 -160.193752 
L 346.670453 -158.720083 
L 346.558458 -157.246413 
L 346.450222 -155.772744 
L 346.345311 -154.299075 
L 346.242723 -152.825405 
L 346.141154 -151.351736 
L 346.039301 -149.878067 
L 345.936133 -148.404397 
L 345.831093 -146.930728 
L 345.724187 -145.457059 
L 345.615961 -143.983389 
L 345.507391 -142.50972 
L 345.399704 -141.036051 
L 345.294182 -139.562381 
L 345.19199 -138.088712 
L 345.094046 -136.615043 
L 345.000956 -135.141373 
L 344.913008 -133.667704 
L 344.830213 -132.194035 
L 344.752378 -130.720365 
L 344.679181 -129.246696 
L 344.61024 -127.773027 
L 344.545162 -126.299358 
L 344.483571 -124.825688 
L 344.425123 -123.352019 
L 344.369511 -121.87835 
L 344.316466 -120.40468 
L 344.26577 -118.931011 
L 344.21727 -117.457342 
L 344.170887 -115.983672 
L 344.126632 -114.510003 
L 344.084596 -113.036334 
L 344.044932 -111.562664 
L 344.007826 -110.088995 
L 343.973455 -108.615326 
L 343.941945 -107.141656 
L 343.913343 -105.667987 
L 343.88761 -104.194318 
L 343.864622 -102.720648 
L 343.844204 -101.246979 
L 343.826164 -99.77331 
L 343.810332 -98.29964 
L 343.79659 -96.825971 
L 343.784881 -95.352302 
L 343.775202 -93.878632 
L 343.767572 -92.404963 
L 343.761996 -90.931294 
L 343.758414 -89.457624 
L 343.756666 -87.983955 
L 343.756469 -86.510286 
L 343.757418 -85.036616 
L 343.759007 -83.562947 
L 343.760674 -82.089278 
L 343.761857 -80.615608 
L 343.762054 -79.141939 
L 343.76088 -77.66827 
z
" style="stroke: #545454; stroke-width: 1.5"/>
    </defs>
    <g clip-path="url(#p5f72f755a0)">
     <use xlink:href="#mfd19dc9f37" x="0" y="255.11811" style="fill: #ee854a; stroke: #545454; stroke-width: 1.5"/>
    </g>
   </g>
   <g id="PolyCollection_5">
    <defs>
     <path id="m969107b30a" d="M 430.878005 -40.639789 
L 430.671601 -40.639789 
L 430.663449 -42.458989 
L 430.655337 -44.278189 
L 430.647133 -46.097389 
L 430.638699 -47.916588 
L 430.629922 -49.735788 
L 430.620736 -51.554988 
L 430.611147 -53.374188 
L 430.601235 -55.193388 
L 430.59114 -57.012587 
L 430.581042 -58.831787 
L 430.571111 -60.650987 
L 430.561456 -62.470187 
L 430.55207 -64.289387 
L 430.542781 -66.108586 
L 430.533208 -67.927786 
L 430.522746 -69.746986 
L 430.510568 -71.566186 
L 430.49566 -73.385386 
L 430.47687 -75.204586 
L 430.452976 -77.023785 
L 430.42277 -78.842985 
L 430.385127 -80.662185 
L 430.33908 -82.481385 
L 430.283869 -84.300585 
L 430.218979 -86.119784 
L 430.144159 -87.938984 
L 430.059432 -89.758184 
L 429.965085 -91.577384 
L 429.861662 -93.396584 
L 429.74994 -95.215783 
L 429.630898 -97.034983 
L 429.50567 -98.854183 
L 429.375476 -100.673383 
L 429.241536 -102.492583 
L 429.104961 -104.311783 
L 428.966642 -106.130982 
L 428.82715 -107.950182 
L 428.686668 -109.769382 
L 428.544971 -111.588582 
L 428.401483 -113.407782 
L 428.255396 -115.226981 
L 428.105863 -117.046181 
L 427.952223 -118.865381 
L 427.794233 -120.684581 
L 427.632271 -122.503781 
L 427.467466 -124.32298 
L 427.301724 -126.14218 
L 427.13766 -127.96138 
L 426.978418 -129.78058 
L 426.827424 -131.59978 
L 426.688099 -133.41898 
L 426.563575 -135.238179 
L 426.456453 -137.057379 
L 426.368623 -138.876579 
L 426.301165 -140.695779 
L 426.254318 -142.514979 
L 426.227511 -144.334178 
L 426.219425 -146.153378 
L 426.228082 -147.972578 
L 426.250931 -149.791778 
L 426.284932 -151.610978 
L 426.326654 -153.430177 
L 426.372377 -155.249377 
L 426.418233 -157.068577 
L 426.460378 -158.887777 
L 426.495207 -160.706977 
L 426.519601 -162.526177 
L 426.531176 -164.345376 
L 426.528517 -166.164576 
L 426.511336 -167.983776 
L 426.480557 -169.802976 
L 426.43826 -171.622176 
L 426.387518 -173.441375 
L 426.332106 -175.260575 
L 426.276133 -177.079775 
L 426.223628 -178.898975 
L 426.17815 -180.718175 
L 426.142468 -182.537374 
L 426.118357 -184.356574 
L 426.106543 -186.175774 
L 426.106808 -187.994974 
L 426.11823 -189.814174 
L 426.139533 -191.633374 
L 426.16948 -193.452573 
L 426.207264 -195.271773 
L 426.252823 -197.090973 
L 426.307038 -198.910173 
L 426.371766 -200.729373 
L 426.449718 -202.548572 
L 426.544166 -204.367772 
L 426.658536 -206.186972 
L 426.795928 -208.006172 
L 426.958633 -209.825372 
L 427.147702 -211.644571 
L 427.362647 -213.463771 
L 427.601294 -215.282971 
L 427.859827 -217.102171 
L 428.133006 -218.921371 
L 428.414544 -220.74057 
L 433.135062 -220.74057 
L 433.135062 -220.74057 
L 433.4166 -218.921371 
L 433.689779 -217.102171 
L 433.948312 -215.282971 
L 434.186959 -213.463771 
L 434.401904 -211.644571 
L 434.590973 -209.825372 
L 434.753678 -208.006172 
L 434.89107 -206.186972 
L 435.00544 -204.367772 
L 435.099888 -202.548572 
L 435.17784 -200.729373 
L 435.242568 -198.910173 
L 435.296783 -197.090973 
L 435.342342 -195.271773 
L 435.380126 -193.452573 
L 435.410073 -191.633374 
L 435.431376 -189.814174 
L 435.442798 -187.994974 
L 435.443063 -186.175774 
L 435.431249 -184.356574 
L 435.407138 -182.537374 
L 435.371456 -180.718175 
L 435.325979 -178.898975 
L 435.273473 -177.079775 
L 435.2175 -175.260575 
L 435.162088 -173.441375 
L 435.111346 -171.622176 
L 435.069049 -169.802976 
L 435.03827 -167.983776 
L 435.021089 -166.164576 
L 435.01843 -164.345376 
L 435.030005 -162.526177 
L 435.054399 -160.706977 
L 435.089228 -158.887777 
L 435.131373 -157.068577 
L 435.177229 -155.249377 
L 435.222952 -153.430177 
L 435.264674 -151.610978 
L 435.298675 -149.791778 
L 435.321524 -147.972578 
L 435.330181 -146.153378 
L 435.322096 -144.334178 
L 435.295288 -142.514979 
L 435.248441 -140.695779 
L 435.180983 -138.876579 
L 435.093153 -137.057379 
L 434.986031 -135.238179 
L 434.861507 -133.41898 
L 434.722182 -131.59978 
L 434.571188 -129.78058 
L 434.411946 -127.96138 
L 434.247882 -126.14218 
L 434.08214 -124.32298 
L 433.917335 -122.503781 
L 433.755373 -120.684581 
L 433.597383 -118.865381 
L 433.443743 -117.046181 
L 433.29421 -115.226981 
L 433.148123 -113.407782 
L 433.004635 -111.588582 
L 432.862938 -109.769382 
L 432.722456 -107.950182 
L 432.582964 -106.130982 
L 432.444645 -104.311783 
L 432.30807 -102.492583 
L 432.17413 -100.673383 
L 432.043936 -98.854183 
L 431.918708 -97.034983 
L 431.799666 -95.215783 
L 431.687944 -93.396584 
L 431.584521 -91.577384 
L 431.490174 -89.758184 
L 431.405447 -87.938984 
L 431.330627 -86.119784 
L 431.265737 -84.300585 
L 431.210526 -82.481385 
L 431.164479 -80.662185 
L 431.126836 -78.842985 
L 431.09663 -77.023785 
L 431.072736 -75.204586 
L 431.053946 -73.385386 
L 431.039038 -71.566186 
L 431.02686 -69.746986 
L 431.016398 -67.927786 
L 431.006825 -66.108586 
L 430.997536 -64.289387 
L 430.988151 -62.470187 
L 430.978495 -60.650987 
L 430.968564 -58.831787 
L 430.958466 -57.012587 
L 430.948371 -55.193388 
L 430.938459 -53.374188 
L 430.92887 -51.554988 
L 430.919684 -49.735788 
L 430.910907 -47.916588 
L 430.902473 -46.097389 
L 430.894269 -44.278189 
L 430.886157 -42.458989 
L 430.878005 -40.639789 
z
" style="stroke: #545454; stroke-width: 1.5"/>
    </defs>
    <g clip-path="url(#p5f72f755a0)">
     <use xlink:href="#m969107b30a" x="0" y="255.11811" style="fill: #6acc64; stroke: #545454; stroke-width: 1.5"/>
    </g>
   </g>
   <g id="matplotlib.axis_1">
    <g id="xtick_1">
     <g id="line2d_1">
      <defs>
       <path id="m3257991ca2" d="M 0 0 
L 0 3.5 
" style="stroke: #000000; stroke-width: 0.8"/>
      </defs>
      <g>
       <use xlink:href="#m3257991ca2" x="82.335117" y="223.754673" style="stroke: #000000; stroke-width: 0.8"/>
      </g>
     </g>
     <g id="text_1">
      <!-- skani -->
      <g transform="translate(74.164805 235.765141) scale(0.07 -0.07)">
       <defs>
        <path id="ArialMT-73" d="M 197 991 
L 753 1078 
Q 800 744 1014 566 
Q 1228 388 1613 388 
Q 2000 388 2187 545 
Q 2375 703 2375 916 
Q 2375 1106 2209 1216 
Q 2094 1291 1634 1406 
Q 1016 1563 777 1677 
Q 538 1791 414 1992 
Q 291 2194 291 2438 
Q 291 2659 392 2848 
Q 494 3038 669 3163 
Q 800 3259 1026 3326 
Q 1253 3394 1513 3394 
Q 1903 3394 2198 3281 
Q 2494 3169 2634 2976 
Q 2775 2784 2828 2463 
L 2278 2388 
Q 2241 2644 2061 2787 
Q 1881 2931 1553 2931 
Q 1166 2931 1000 2803 
Q 834 2675 834 2503 
Q 834 2394 903 2306 
Q 972 2216 1119 2156 
Q 1203 2125 1616 2013 
Q 2213 1853 2448 1751 
Q 2684 1650 2818 1456 
Q 2953 1263 2953 975 
Q 2953 694 2789 445 
Q 2625 197 2315 61 
Q 2006 -75 1616 -75 
Q 969 -75 630 194 
Q 291 463 197 991 
z
" transform="scale(0.015625)"/>
        <path id="ArialMT-6b" d="M 425 0 
L 425 4581 
L 988 4581 
L 988 1969 
L 2319 3319 
L 3047 3319 
L 1778 2088 
L 3175 0 
L 2481 0 
L 1384 1697 
L 988 1316 
L 988 0 
L 425 0 
z
" transform="scale(0.015625)"/>
        <path id="ArialMT-61" d="M 2588 409 
Q 2275 144 1986 34 
Q 1697 -75 1366 -75 
Q 819 -75 525 192 
Q 231 459 231 875 
Q 231 1119 342 1320 
Q 453 1522 633 1644 
Q 813 1766 1038 1828 
Q 1203 1872 1538 1913 
Q 2219 1994 2541 2106 
Q 2544 2222 2544 2253 
Q 2544 2597 2384 2738 
Q 2169 2928 1744 2928 
Q 1347 2928 1158 2789 
Q 969 2650 878 2297 
L 328 2372 
Q 403 2725 575 2942 
Q 747 3159 1072 3276 
Q 1397 3394 1825 3394 
Q 2250 3394 2515 3294 
Q 2781 3194 2906 3042 
Q 3031 2891 3081 2659 
Q 3109 2516 3109 2141 
L 3109 1391 
Q 3109 606 3145 398 
Q 3181 191 3288 0 
L 2700 0 
Q 2613 175 2588 409 
z
M 2541 1666 
Q 2234 1541 1622 1453 
Q 1275 1403 1131 1340 
Q 988 1278 909 1158 
Q 831 1038 831 891 
Q 831 666 1001 516 
Q 1172 366 1500 366 
Q 1825 366 2078 508 
Q 2331 650 2450 897 
Q 2541 1088 2541 1459 
L 2541 1666 
z
" transform="scale(0.015625)"/>
        <path id="ArialMT-6e" d="M 422 0 
L 422 3319 
L 928 3319 
L 928 2847 
Q 1294 3394 1984 3394 
Q 2284 3394 2536 3286 
Q 2788 3178 2913 3003 
Q 3038 2828 3088 2588 
Q 3119 2431 3119 2041 
L 3119 0 
L 2556 0 
L 2556 2019 
Q 2556 2363 2490 2533 
Q 2425 2703 2258 2804 
Q 2091 2906 1866 2906 
Q 1506 2906 1245 2678 
Q 984 2450 984 1813 
L 984 0 
L 422 0 
z
" transform="scale(0.015625)"/>
        <path id="ArialMT-69" d="M 425 3934 
L 425 4581 
L 988 4581 
L 988 3934 
L 425 3934 
z
M 425 0 
L 425 3319 
L 988 3319 
L 988 0 
L 425 0 
z
" transform="scale(0.015625)"/>
       </defs>
       <use xlink:href="#ArialMT-73"/>
       <use xlink:href="#ArialMT-6b" x="50"/>
       <use xlink:href="#ArialMT-61" x="100"/>
       <use xlink:href="#ArialMT-6e" x="155.615234"/>
       <use xlink:href="#ArialMT-69" x="211.230469"/>
      </g>
     </g>
    </g>
    <g id="xtick_2">
     <g id="line2d_2">
      <g>
       <use xlink:href="#m3257991ca2" x="169.445039" y="223.754673" style="stroke: #000000; stroke-width: 0.8"/>
      </g>
     </g>
     <g id="text_2">
      <!-- sourmash max-contain -->
      <g transform="translate(134.044179 235.765141) scale(0.07 -0.07)">
       <defs>
        <path id="ArialMT-6f" d="M 213 1659 
Q 213 2581 725 3025 
Q 1153 3394 1769 3394 
Q 2453 3394 2887 2945 
Q 3322 2497 3322 1706 
Q 3322 1066 3130 698 
Q 2938 331 2570 128 
Q 2203 -75 1769 -75 
Q 1072 -75 642 372 
Q 213 819 213 1659 
z
M 791 1659 
Q 791 1022 1069 705 
Q 1347 388 1769 388 
Q 2188 388 2466 706 
Q 2744 1025 2744 1678 
Q 2744 2294 2464 2611 
Q 2184 2928 1769 2928 
Q 1347 2928 1069 2612 
Q 791 2297 791 1659 
z
" transform="scale(0.015625)"/>
        <path id="ArialMT-75" d="M 2597 0 
L 2597 488 
Q 2209 -75 1544 -75 
Q 1250 -75 995 37 
Q 741 150 617 320 
Q 494 491 444 738 
Q 409 903 409 1263 
L 409 3319 
L 972 3319 
L 972 1478 
Q 972 1038 1006 884 
Q 1059 663 1231 536 
Q 1403 409 1656 409 
Q 1909 409 2131 539 
Q 2353 669 2445 892 
Q 2538 1116 2538 1541 
L 2538 3319 
L 3100 3319 
L 3100 0 
L 2597 0 
z
" transform="scale(0.015625)"/>
        <path id="ArialMT-72" d="M 416 0 
L 416 3319 
L 922 3319 
L 922 2816 
Q 1116 3169 1280 3281 
Q 1444 3394 1641 3394 
Q 1925 3394 2219 3213 
L 2025 2691 
Q 1819 2813 1613 2813 
Q 1428 2813 1281 2702 
Q 1134 2591 1072 2394 
Q 978 2094 978 1738 
L 978 0 
L 416 0 
z
" transform="scale(0.015625)"/>
        <path id="ArialMT-6d" d="M 422 0 
L 422 3319 
L 925 3319 
L 925 2853 
Q 1081 3097 1340 3245 
Q 1600 3394 1931 3394 
Q 2300 3394 2536 3241 
Q 2772 3088 2869 2813 
Q 3263 3394 3894 3394 
Q 4388 3394 4653 3120 
Q 4919 2847 4919 2278 
L 4919 0 
L 4359 0 
L 4359 2091 
Q 4359 2428 4304 2576 
Q 4250 2725 4106 2815 
Q 3963 2906 3769 2906 
Q 3419 2906 3187 2673 
Q 2956 2441 2956 1928 
L 2956 0 
L 2394 0 
L 2394 2156 
Q 2394 2531 2256 2718 
Q 2119 2906 1806 2906 
Q 1569 2906 1367 2781 
Q 1166 2656 1075 2415 
Q 984 2175 984 1722 
L 984 0 
L 422 0 
z
" transform="scale(0.015625)"/>
        <path id="ArialMT-68" d="M 422 0 
L 422 4581 
L 984 4581 
L 984 2938 
Q 1378 3394 1978 3394 
Q 2347 3394 2619 3248 
Q 2891 3103 3008 2847 
Q 3125 2591 3125 2103 
L 3125 0 
L 2563 0 
L 2563 2103 
Q 2563 2525 2380 2717 
Q 2197 2909 1863 2909 
Q 1613 2909 1392 2779 
Q 1172 2650 1078 2428 
Q 984 2206 984 1816 
L 984 0 
L 422 0 
z
" transform="scale(0.015625)"/>
        <path id="ArialMT-20" transform="scale(0.015625)"/>
        <path id="ArialMT-78" d="M 47 0 
L 1259 1725 
L 138 3319 
L 841 3319 
L 1350 2541 
Q 1494 2319 1581 2169 
Q 1719 2375 1834 2534 
L 2394 3319 
L 3066 3319 
L 1919 1756 
L 3153 0 
L 2463 0 
L 1781 1031 
L 1600 1309 
L 728 0 
L 47 0 
z
" transform="scale(0.015625)"/>
        <path id="ArialMT-2d" d="M 203 1375 
L 203 1941 
L 1931 1941 
L 1931 1375 
L 203 1375 
z
" transform="scale(0.015625)"/>
        <path id="ArialMT-63" d="M 2588 1216 
L 3141 1144 
Q 3050 572 2676 248 
Q 2303 -75 1759 -75 
Q 1078 -75 664 370 
Q 250 816 250 1647 
Q 250 2184 428 2587 
Q 606 2991 970 3192 
Q 1334 3394 1763 3394 
Q 2303 3394 2647 3120 
Q 2991 2847 3088 2344 
L 2541 2259 
Q 2463 2594 2264 2762 
Q 2066 2931 1784 2931 
Q 1359 2931 1093 2626 
Q 828 2322 828 1663 
Q 828 994 1084 691 
Q 1341 388 1753 388 
Q 2084 388 2306 591 
Q 2528 794 2588 1216 
z
" transform="scale(0.015625)"/>
        <path id="ArialMT-74" d="M 1650 503 
L 1731 6 
Q 1494 -44 1306 -44 
Q 1000 -44 831 53 
Q 663 150 594 308 
Q 525 466 525 972 
L 525 2881 
L 113 2881 
L 113 3319 
L 525 3319 
L 525 4141 
L 1084 4478 
L 1084 3319 
L 1650 3319 
L 1650 2881 
L 1084 2881 
L 1084 941 
Q 1084 700 1114 631 
Q 1144 563 1211 522 
Q 1278 481 1403 481 
Q 1497 481 1650 503 
z
" transform="scale(0.015625)"/>
       </defs>
       <use xlink:href="#ArialMT-73"/>
       <use xlink:href="#ArialMT-6f" x="50"/>
       <use xlink:href="#ArialMT-75" x="105.615234"/>
       <use xlink:href="#ArialMT-72" x="161.230469"/>
       <use xlink:href="#ArialMT-6d" x="194.53125"/>
       <use xlink:href="#ArialMT-61" x="277.832031"/>
       <use xlink:href="#ArialMT-73" x="333.447266"/>
       <use xlink:href="#ArialMT-68" x="383.447266"/>
       <use xlink:href="#ArialMT-20" x="439.0625"/>
       <use xlink:href="#ArialMT-6d" x="466.845703"/>
       <use xlink:href="#ArialMT-61" x="550.146484"/>
       <use xlink:href="#ArialMT-78" x="605.761719"/>
       <use xlink:href="#ArialMT-2d" x="655.761719"/>
       <use xlink:href="#ArialMT-63" x="689.0625"/>
       <use xlink:href="#ArialMT-6f" x="739.0625"/>
       <use xlink:href="#ArialMT-6e" x="794.677734"/>
       <use xlink:href="#ArialMT-74" x="850.292969"/>
       <use xlink:href="#ArialMT-61" x="878.076172"/>
       <use xlink:href="#ArialMT-69" x="933.691406"/>
       <use xlink:href="#ArialMT-6e" x="955.908203"/>
      </g>
     </g>
    </g>
    <g id="xtick_3">
     <g id="line2d_3">
      <g>
       <use xlink:href="#m3257991ca2" x="256.55496" y="223.754673" style="stroke: #000000; stroke-width: 0.8"/>
      </g>
     </g>
     <g id="text_3">
      <!-- sourmash -->
      <g transform="translate(241.188866 235.765141) scale(0.07 -0.07)">
       <use xlink:href="#ArialMT-73"/>
       <use xlink:href="#ArialMT-6f" x="50"/>
       <use xlink:href="#ArialMT-75" x="105.615234"/>
       <use xlink:href="#ArialMT-72" x="161.230469"/>
       <use xlink:href="#ArialMT-6d" x="194.53125"/>
       <use xlink:href="#ArialMT-61" x="277.832031"/>
       <use xlink:href="#ArialMT-73" x="333.447266"/>
       <use xlink:href="#ArialMT-68" x="383.447266"/>
      </g>
     </g>
    </g>
    <g id="xtick_4">
     <g id="line2d_4">
      <g>
       <use xlink:href="#m3257991ca2" x="343.664882" y="223.754673" style="stroke: #000000; stroke-width: 0.8"/>
      </g>
     </g>
     <g id="text_4">
      <!-- FastANI -->
      <g transform="translate(331.023866 235.765141) scale(0.07 -0.07)">
       <defs>
        <path id="ArialMT-46" d="M 525 0 
L 525 4581 
L 3616 4581 
L 3616 4041 
L 1131 4041 
L 1131 2622 
L 3281 2622 
L 3281 2081 
L 1131 2081 
L 1131 0 
L 525 0 
z
" transform="scale(0.015625)"/>
        <path id="ArialMT-41" d="M -9 0 
L 1750 4581 
L 2403 4581 
L 4278 0 
L 3588 0 
L 3053 1388 
L 1138 1388 
L 634 0 
L -9 0 
z
M 1313 1881 
L 2866 1881 
L 2388 3150 
Q 2169 3728 2063 4100 
Q 1975 3659 1816 3225 
L 1313 1881 
z
" transform="scale(0.015625)"/>
        <path id="ArialMT-4e" d="M 488 0 
L 488 4581 
L 1109 4581 
L 3516 984 
L 3516 4581 
L 4097 4581 
L 4097 0 
L 3475 0 
L 1069 3600 
L 1069 0 
L 488 0 
z
" transform="scale(0.015625)"/>
        <path id="ArialMT-49" d="M 597 0 
L 597 4581 
L 1203 4581 
L 1203 0 
L 597 0 
z
" transform="scale(0.015625)"/>
       </defs>
       <use xlink:href="#ArialMT-46"/>
       <use xlink:href="#ArialMT-61" x="61.083984"/>
       <use xlink:href="#ArialMT-73" x="116.699219"/>
       <use xlink:href="#ArialMT-74" x="166.699219"/>
       <use xlink:href="#ArialMT-41" x="194.482422"/>
       <use xlink:href="#ArialMT-4e" x="261.181641"/>
       <use xlink:href="#ArialMT-49" x="333.398438"/>
      </g>
     </g>
    </g>
    <g id="xtick_5">
     <g id="line2d_5">
      <g>
       <use xlink:href="#m3257991ca2" x="430.774803" y="223.754673" style="stroke: #000000; stroke-width: 0.8"/>
      </g>
     </g>
     <g id="text_5">
      <!-- Mash -->
      <g transform="translate(422.216756 235.765141) scale(0.07 -0.07)">
       <defs>
        <path id="ArialMT-4d" d="M 475 0 
L 475 4581 
L 1388 4581 
L 2472 1338 
Q 2622 884 2691 659 
Q 2769 909 2934 1394 
L 4031 4581 
L 4847 4581 
L 4847 0 
L 4263 0 
L 4263 3834 
L 2931 0 
L 2384 0 
L 1059 3900 
L 1059 0 
L 475 0 
z
" transform="scale(0.015625)"/>
       </defs>
       <use xlink:href="#ArialMT-4d"/>
       <use xlink:href="#ArialMT-61" x="83.300781"/>
       <use xlink:href="#ArialMT-73" x="138.916016"/>
       <use xlink:href="#ArialMT-68" x="188.916016"/>
      </g>
     </g>
    </g>
    <g id="text_6">
     <!-- Method -->
     <g transform="translate(244.881913 246.16686) scale(0.07 -0.07)">
      <defs>
       <path id="ArialMT-65" d="M 2694 1069 
L 3275 997 
Q 3138 488 2766 206 
Q 2394 -75 1816 -75 
Q 1088 -75 661 373 
Q 234 822 234 1631 
Q 234 2469 665 2931 
Q 1097 3394 1784 3394 
Q 2450 3394 2872 2941 
Q 3294 2488 3294 1666 
Q 3294 1616 3291 1516 
L 816 1516 
Q 847 969 1125 678 
Q 1403 388 1819 388 
Q 2128 388 2347 550 
Q 2566 713 2694 1069 
z
M 847 1978 
L 2700 1978 
Q 2663 2397 2488 2606 
Q 2219 2931 1791 2931 
Q 1403 2931 1139 2672 
Q 875 2413 847 1978 
z
" transform="scale(0.015625)"/>
       <path id="ArialMT-64" d="M 2575 0 
L 2575 419 
Q 2259 -75 1647 -75 
Q 1250 -75 917 144 
Q 584 363 401 755 
Q 219 1147 219 1656 
Q 219 2153 384 2558 
Q 550 2963 881 3178 
Q 1213 3394 1622 3394 
Q 1922 3394 2156 3267 
Q 2391 3141 2538 2938 
L 2538 4581 
L 3097 4581 
L 3097 0 
L 2575 0 
z
M 797 1656 
Q 797 1019 1065 703 
Q 1334 388 1700 388 
Q 2069 388 2326 689 
Q 2584 991 2584 1609 
Q 2584 2291 2321 2609 
Q 2059 2928 1675 2928 
Q 1300 2928 1048 2622 
Q 797 2316 797 1656 
z
" transform="scale(0.015625)"/>
      </defs>
      <use xlink:href="#ArialMT-4d"/>
      <use xlink:href="#ArialMT-65" x="83.300781"/>
      <use xlink:href="#ArialMT-74" x="138.916016"/>
      <use xlink:href="#ArialMT-68" x="166.699219"/>
      <use xlink:href="#ArialMT-6f" x="222.314453"/>
      <use xlink:href="#ArialMT-64" x="277.929688"/>
     </g>
    </g>
   </g>
   <g id="matplotlib.axis_2">
    <g id="ytick_1">
     <g id="line2d_6">
      <defs>
       <path id="m066be2fee7" d="M 0 0 
L -3.5 0 
" style="stroke: #000000; stroke-width: 0.8"/>
      </defs>
      <g>
       <use xlink:href="#m066be2fee7" x="38.780156" y="202.99927" style="stroke: #000000; stroke-width: 0.8"/>
      </g>
     </g>
     <g id="text_7">
      <!-- −1.2 -->
      <g transform="translate(17.961719 205.504504) scale(0.07 -0.07)">
       <defs>
        <path id="ArialMT-2212" d="M 3381 1997 
L 356 1997 
L 356 2522 
L 3381 2522 
L 3381 1997 
z
" transform="scale(0.015625)"/>
        <path id="ArialMT-31" d="M 2384 0 
L 1822 0 
L 1822 3584 
Q 1619 3391 1289 3197 
Q 959 3003 697 2906 
L 697 3450 
Q 1169 3672 1522 3987 
Q 1875 4303 2022 4600 
L 2384 4600 
L 2384 0 
z
" transform="scale(0.015625)"/>
        <path id="ArialMT-2e" d="M 581 0 
L 581 641 
L 1222 641 
L 1222 0 
L 581 0 
z
" transform="scale(0.015625)"/>
        <path id="ArialMT-32" d="M 3222 541 
L 3222 0 
L 194 0 
Q 188 203 259 391 
Q 375 700 629 1000 
Q 884 1300 1366 1694 
Q 2113 2306 2375 2664 
Q 2638 3022 2638 3341 
Q 2638 3675 2398 3904 
Q 2159 4134 1775 4134 
Q 1369 4134 1125 3890 
Q 881 3647 878 3216 
L 300 3275 
Q 359 3922 746 4261 
Q 1134 4600 1788 4600 
Q 2447 4600 2831 4234 
Q 3216 3869 3216 3328 
Q 3216 3053 3103 2787 
Q 2991 2522 2730 2228 
Q 2469 1934 1863 1422 
Q 1356 997 1212 845 
Q 1069 694 975 541 
L 3222 541 
z
" transform="scale(0.015625)"/>
       </defs>
       <use xlink:href="#ArialMT-2212"/>
       <use xlink:href="#ArialMT-31" x="58.398438"/>
       <use xlink:href="#ArialMT-2e" x="114.013672"/>
       <use xlink:href="#ArialMT-32" x="141.796875"/>
      </g>
     </g>
    </g>
    <g id="ytick_2">
     <g id="line2d_7">
      <g>
       <use xlink:href="#m066be2fee7" x="38.780156" y="174.389279" style="stroke: #000000; stroke-width: 0.8"/>
      </g>
     </g>
     <g id="text_8">
      <!-- −1.0 -->
      <g transform="translate(17.961719 176.894514) scale(0.07 -0.07)">
       <defs>
        <path id="ArialMT-30" d="M 266 2259 
Q 266 3072 433 3567 
Q 600 4063 929 4331 
Q 1259 4600 1759 4600 
Q 2128 4600 2406 4451 
Q 2684 4303 2865 4023 
Q 3047 3744 3150 3342 
Q 3253 2941 3253 2259 
Q 3253 1453 3087 958 
Q 2922 463 2592 192 
Q 2263 -78 1759 -78 
Q 1097 -78 719 397 
Q 266 969 266 2259 
z
M 844 2259 
Q 844 1131 1108 757 
Q 1372 384 1759 384 
Q 2147 384 2411 759 
Q 2675 1134 2675 2259 
Q 2675 3391 2411 3762 
Q 2147 4134 1753 4134 
Q 1366 4134 1134 3806 
Q 844 3388 844 2259 
z
" transform="scale(0.015625)"/>
       </defs>
       <use xlink:href="#ArialMT-2212"/>
       <use xlink:href="#ArialMT-31" x="58.398438"/>
       <use xlink:href="#ArialMT-2e" x="114.013672"/>
       <use xlink:href="#ArialMT-30" x="141.796875"/>
      </g>
     </g>
    </g>
    <g id="ytick_3">
     <g id="line2d_8">
      <g>
       <use xlink:href="#m066be2fee7" x="38.780156" y="145.779288" style="stroke: #000000; stroke-width: 0.8"/>
      </g>
     </g>
     <g id="text_9">
      <!-- −0.8 -->
      <g transform="translate(17.961719 148.284523) scale(0.07 -0.07)">
       <defs>
        <path id="ArialMT-38" d="M 1131 2484 
Q 781 2613 612 2850 
Q 444 3088 444 3419 
Q 444 3919 803 4259 
Q 1163 4600 1759 4600 
Q 2359 4600 2725 4251 
Q 3091 3903 3091 3403 
Q 3091 3084 2923 2848 
Q 2756 2613 2416 2484 
Q 2838 2347 3058 2040 
Q 3278 1734 3278 1309 
Q 3278 722 2862 322 
Q 2447 -78 1769 -78 
Q 1091 -78 675 323 
Q 259 725 259 1325 
Q 259 1772 486 2073 
Q 713 2375 1131 2484 
z
M 1019 3438 
Q 1019 3113 1228 2906 
Q 1438 2700 1772 2700 
Q 2097 2700 2305 2904 
Q 2513 3109 2513 3406 
Q 2513 3716 2298 3927 
Q 2084 4138 1766 4138 
Q 1444 4138 1231 3931 
Q 1019 3725 1019 3438 
z
M 838 1322 
Q 838 1081 952 856 
Q 1066 631 1291 507 
Q 1516 384 1775 384 
Q 2178 384 2440 643 
Q 2703 903 2703 1303 
Q 2703 1709 2433 1975 
Q 2163 2241 1756 2241 
Q 1359 2241 1098 1978 
Q 838 1716 838 1322 
z
" transform="scale(0.015625)"/>
       </defs>
       <use xlink:href="#ArialMT-2212"/>
       <use xlink:href="#ArialMT-30" x="58.398438"/>
       <use xlink:href="#ArialMT-2e" x="114.013672"/>
       <use xlink:href="#ArialMT-38" x="141.796875"/>
      </g>
     </g>
    </g>
    <g id="ytick_4">
     <g id="line2d_9">
      <g>
       <use xlink:href="#m066be2fee7" x="38.780156" y="117.169298" style="stroke: #000000; stroke-width: 0.8"/>
      </g>
     </g>
     <g id="text_10">
      <!-- −0.6 -->
      <g transform="translate(17.961719 119.674532) scale(0.07 -0.07)">
       <defs>
        <path id="ArialMT-36" d="M 3184 3459 
L 2625 3416 
Q 2550 3747 2413 3897 
Q 2184 4138 1850 4138 
Q 1581 4138 1378 3988 
Q 1113 3794 959 3422 
Q 806 3050 800 2363 
Q 1003 2672 1297 2822 
Q 1591 2972 1913 2972 
Q 2475 2972 2870 2558 
Q 3266 2144 3266 1488 
Q 3266 1056 3080 686 
Q 2894 316 2569 119 
Q 2244 -78 1831 -78 
Q 1128 -78 684 439 
Q 241 956 241 2144 
Q 241 3472 731 4075 
Q 1159 4600 1884 4600 
Q 2425 4600 2770 4297 
Q 3116 3994 3184 3459 
z
M 888 1484 
Q 888 1194 1011 928 
Q 1134 663 1356 523 
Q 1578 384 1822 384 
Q 2178 384 2434 671 
Q 2691 959 2691 1453 
Q 2691 1928 2437 2201 
Q 2184 2475 1800 2475 
Q 1419 2475 1153 2201 
Q 888 1928 888 1484 
z
" transform="scale(0.015625)"/>
       </defs>
       <use xlink:href="#ArialMT-2212"/>
       <use xlink:href="#ArialMT-30" x="58.398438"/>
       <use xlink:href="#ArialMT-2e" x="114.013672"/>
       <use xlink:href="#ArialMT-36" x="141.796875"/>
      </g>
     </g>
    </g>
    <g id="ytick_5">
     <g id="line2d_10">
      <g>
       <use xlink:href="#m066be2fee7" x="38.780156" y="88.559307" style="stroke: #000000; stroke-width: 0.8"/>
      </g>
     </g>
     <g id="text_11">
      <!-- −0.4 -->
      <g transform="translate(17.961719 91.064541) scale(0.07 -0.07)">
       <defs>
        <path id="ArialMT-34" d="M 2069 0 
L 2069 1097 
L 81 1097 
L 81 1613 
L 2172 4581 
L 2631 4581 
L 2631 1613 
L 3250 1613 
L 3250 1097 
L 2631 1097 
L 2631 0 
L 2069 0 
z
M 2069 1613 
L 2069 3678 
L 634 1613 
L 2069 1613 
z
" transform="scale(0.015625)"/>
       </defs>
       <use xlink:href="#ArialMT-2212"/>
       <use xlink:href="#ArialMT-30" x="58.398438"/>
       <use xlink:href="#ArialMT-2e" x="114.013672"/>
       <use xlink:href="#ArialMT-34" x="141.796875"/>
      </g>
     </g>
    </g>
    <g id="ytick_6">
     <g id="line2d_11">
      <g>
       <use xlink:href="#m066be2fee7" x="38.780156" y="59.949316" style="stroke: #000000; stroke-width: 0.8"/>
      </g>
     </g>
     <g id="text_12">
      <!-- −0.2 -->
      <g transform="translate(17.961719 62.45455) scale(0.07 -0.07)">
       <use xlink:href="#ArialMT-2212"/>
       <use xlink:href="#ArialMT-30" x="58.398438"/>
       <use xlink:href="#ArialMT-2e" x="114.013672"/>
       <use xlink:href="#ArialMT-32" x="141.796875"/>
      </g>
     </g>
    </g>
    <g id="ytick_7">
     <g id="line2d_12">
      <g>
       <use xlink:href="#m066be2fee7" x="38.780156" y="31.339325" style="stroke: #000000; stroke-width: 0.8"/>
      </g>
     </g>
     <g id="text_13">
      <!-- 0.0 -->
      <g transform="translate(22.050156 33.844559) scale(0.07 -0.07)">
       <use xlink:href="#ArialMT-30"/>
       <use xlink:href="#ArialMT-2e" x="55.615234"/>
       <use xlink:href="#ArialMT-30" x="83.398438"/>
      </g>
     </g>
    </g>
    <g id="text_14">
     <!-- Method correlation - ANIm correlation -->
     <g transform="translate(12.570469 179.680274) rotate(-90) scale(0.07 -0.07)">
      <defs>
       <path id="ArialMT-6c" d="M 409 0 
L 409 4581 
L 972 4581 
L 972 0 
L 409 0 
z
" transform="scale(0.015625)"/>
      </defs>
      <use xlink:href="#ArialMT-4d"/>
      <use xlink:href="#ArialMT-65" x="83.300781"/>
      <use xlink:href="#ArialMT-74" x="138.916016"/>
      <use xlink:href="#ArialMT-68" x="166.699219"/>
      <use xlink:href="#ArialMT-6f" x="222.314453"/>
      <use xlink:href="#ArialMT-64" x="277.929688"/>
      <use xlink:href="#ArialMT-20" x="333.544922"/>
      <use xlink:href="#ArialMT-63" x="361.328125"/>
      <use xlink:href="#ArialMT-6f" x="411.328125"/>
      <use xlink:href="#ArialMT-72" x="466.943359"/>
      <use xlink:href="#ArialMT-72" x="500.244141"/>
      <use xlink:href="#ArialMT-65" x="533.544922"/>
      <use xlink:href="#ArialMT-6c" x="589.160156"/>
      <use xlink:href="#ArialMT-61" x="611.376953"/>
      <use xlink:href="#ArialMT-74" x="666.992188"/>
      <use xlink:href="#ArialMT-69" x="694.775391"/>
      <use xlink:href="#ArialMT-6f" x="716.992188"/>
      <use xlink:href="#ArialMT-6e" x="772.607422"/>
      <use xlink:href="#ArialMT-20" x="828.222656"/>
      <use xlink:href="#ArialMT-2d" x="856.005859"/>
      <use xlink:href="#ArialMT-20" x="889.306641"/>
      <use xlink:href="#ArialMT-41" x="911.589844"/>
      <use xlink:href="#ArialMT-4e" x="978.289062"/>
      <use xlink:href="#ArialMT-49" x="1050.505859"/>
      <use xlink:href="#ArialMT-6d" x="1078.289062"/>
      <use xlink:href="#ArialMT-20" x="1161.589844"/>
      <use xlink:href="#ArialMT-63" x="1189.373047"/>
      <use xlink:href="#ArialMT-6f" x="1239.373047"/>
      <use xlink:href="#ArialMT-72" x="1294.988281"/>
      <use xlink:href="#ArialMT-72" x="1328.289062"/>
      <use xlink:href="#ArialMT-65" x="1361.589844"/>
      <use xlink:href="#ArialMT-6c" x="1417.205078"/>
      <use xlink:href="#ArialMT-61" x="1439.421875"/>
      <use xlink:href="#ArialMT-74" x="1495.037109"/>
      <use xlink:href="#ArialMT-69" x="1522.820312"/>
      <use xlink:href="#ArialMT-6f" x="1545.037109"/>
      <use xlink:href="#ArialMT-6e" x="1600.652344"/>
     </g>
    </g>
   </g>
   <g id="patch_3">
    <path d="M 38.780156 223.754673 
L 38.780156 19.674937 
" style="fill: none; stroke: #000000; stroke-width: 0.8; stroke-linejoin: miter; stroke-linecap: square"/>
   </g>
   <g id="patch_4">
    <path d="M 474.329764 223.754673 
L 474.329764 19.674937 
" style="fill: none; stroke: #000000; stroke-width: 0.8; stroke-linejoin: miter; stroke-linecap: square"/>
   </g>
   <g id="patch_5">
    <path d="M 38.780156 223.754673 
L 474.329764 223.754673 
" style="fill: none; stroke: #000000; stroke-width: 0.8; stroke-linejoin: miter; stroke-linecap: square"/>
   </g>
   <g id="patch_6">
    <path d="M 38.780156 19.674937 
L 474.329764 19.674937 
" style="fill: none; stroke: #000000; stroke-width: 0.8; stroke-linejoin: miter; stroke-linecap: square"/>
   </g>
   <g id="text_15">
    <!-- Distribution of deviation from baseline (ANIm) cophenetic correlation (n = 238) -->
    <g transform="translate(111.711398 13.674937) scale(0.084 -0.084)">
     <defs>
      <path id="ArialMT-44" d="M 494 0 
L 494 4581 
L 2072 4581 
Q 2606 4581 2888 4516 
Q 3281 4425 3559 4188 
Q 3922 3881 4101 3404 
Q 4281 2928 4281 2316 
Q 4281 1794 4159 1391 
Q 4038 988 3847 723 
Q 3656 459 3429 307 
Q 3203 156 2883 78 
Q 2563 0 2147 0 
L 494 0 
z
M 1100 541 
L 2078 541 
Q 2531 541 2789 625 
Q 3047 709 3200 863 
Q 3416 1078 3536 1442 
Q 3656 1806 3656 2325 
Q 3656 3044 3420 3430 
Q 3184 3816 2847 3947 
Q 2603 4041 2063 4041 
L 1100 4041 
L 1100 541 
z
" transform="scale(0.015625)"/>
      <path id="ArialMT-62" d="M 941 0 
L 419 0 
L 419 4581 
L 981 4581 
L 981 2947 
Q 1338 3394 1891 3394 
Q 2197 3394 2470 3270 
Q 2744 3147 2920 2923 
Q 3097 2700 3197 2384 
Q 3297 2069 3297 1709 
Q 3297 856 2875 390 
Q 2453 -75 1863 -75 
Q 1275 -75 941 416 
L 941 0 
z
M 934 1684 
Q 934 1088 1097 822 
Q 1363 388 1816 388 
Q 2184 388 2453 708 
Q 2722 1028 2722 1663 
Q 2722 2313 2464 2622 
Q 2206 2931 1841 2931 
Q 1472 2931 1203 2611 
Q 934 2291 934 1684 
z
" transform="scale(0.015625)"/>
      <path id="ArialMT-66" d="M 556 0 
L 556 2881 
L 59 2881 
L 59 3319 
L 556 3319 
L 556 3672 
Q 556 4006 616 4169 
Q 697 4388 901 4523 
Q 1106 4659 1475 4659 
Q 1713 4659 2000 4603 
L 1916 4113 
Q 1741 4144 1584 4144 
Q 1328 4144 1222 4034 
Q 1116 3925 1116 3625 
L 1116 3319 
L 1763 3319 
L 1763 2881 
L 1116 2881 
L 1116 0 
L 556 0 
z
" transform="scale(0.015625)"/>
      <path id="ArialMT-76" d="M 1344 0 
L 81 3319 
L 675 3319 
L 1388 1331 
Q 1503 1009 1600 663 
Q 1675 925 1809 1294 
L 2547 3319 
L 3125 3319 
L 1869 0 
L 1344 0 
z
" transform="scale(0.015625)"/>
      <path id="ArialMT-28" d="M 1497 -1347 
Q 1031 -759 709 28 
Q 388 816 388 1659 
Q 388 2403 628 3084 
Q 909 3875 1497 4659 
L 1900 4659 
Q 1522 4009 1400 3731 
Q 1209 3300 1100 2831 
Q 966 2247 966 1656 
Q 966 153 1900 -1347 
L 1497 -1347 
z
" transform="scale(0.015625)"/>
      <path id="ArialMT-29" d="M 791 -1347 
L 388 -1347 
Q 1322 153 1322 1656 
Q 1322 2244 1188 2822 
Q 1081 3291 891 3722 
Q 769 4003 388 4659 
L 791 4659 
Q 1378 3875 1659 3084 
Q 1900 2403 1900 1659 
Q 1900 816 1576 28 
Q 1253 -759 791 -1347 
z
" transform="scale(0.015625)"/>
      <path id="ArialMT-70" d="M 422 -1272 
L 422 3319 
L 934 3319 
L 934 2888 
Q 1116 3141 1344 3267 
Q 1572 3394 1897 3394 
Q 2322 3394 2647 3175 
Q 2972 2956 3137 2557 
Q 3303 2159 3303 1684 
Q 3303 1175 3120 767 
Q 2938 359 2589 142 
Q 2241 -75 1856 -75 
Q 1575 -75 1351 44 
Q 1128 163 984 344 
L 984 -1272 
L 422 -1272 
z
M 931 1641 
Q 931 1000 1190 694 
Q 1450 388 1819 388 
Q 2194 388 2461 705 
Q 2728 1022 2728 1688 
Q 2728 2322 2467 2637 
Q 2206 2953 1844 2953 
Q 1484 2953 1207 2617 
Q 931 2281 931 1641 
z
" transform="scale(0.015625)"/>
      <path id="ArialMT-3d" d="M 3381 2694 
L 356 2694 
L 356 3219 
L 3381 3219 
L 3381 2694 
z
M 3381 1303 
L 356 1303 
L 356 1828 
L 3381 1828 
L 3381 1303 
z
" transform="scale(0.015625)"/>
      <path id="ArialMT-33" d="M 269 1209 
L 831 1284 
Q 928 806 1161 595 
Q 1394 384 1728 384 
Q 2125 384 2398 659 
Q 2672 934 2672 1341 
Q 2672 1728 2419 1979 
Q 2166 2231 1775 2231 
Q 1616 2231 1378 2169 
L 1441 2663 
Q 1497 2656 1531 2656 
Q 1891 2656 2178 2843 
Q 2466 3031 2466 3422 
Q 2466 3731 2256 3934 
Q 2047 4138 1716 4138 
Q 1388 4138 1169 3931 
Q 950 3725 888 3313 
L 325 3413 
Q 428 3978 793 4289 
Q 1159 4600 1703 4600 
Q 2078 4600 2393 4439 
Q 2709 4278 2876 4000 
Q 3044 3722 3044 3409 
Q 3044 3113 2884 2869 
Q 2725 2625 2413 2481 
Q 2819 2388 3044 2092 
Q 3269 1797 3269 1353 
Q 3269 753 2831 336 
Q 2394 -81 1725 -81 
Q 1122 -81 723 278 
Q 325 638 269 1209 
z
" transform="scale(0.015625)"/>
     </defs>
     <use xlink:href="#ArialMT-44"/>
     <use xlink:href="#ArialMT-69" x="72.216797"/>
     <use xlink:href="#ArialMT-73" x="94.433594"/>
     <use xlink:href="#ArialMT-74" x="144.433594"/>
     <use xlink:href="#ArialMT-72" x="172.216797"/>
     <use xlink:href="#ArialMT-69" x="205.517578"/>
     <use xlink:href="#ArialMT-62" x="227.734375"/>
     <use xlink:href="#ArialMT-75" x="283.349609"/>
     <use xlink:href="#ArialMT-74" x="338.964844"/>
     <use xlink:href="#ArialMT-69" x="366.748047"/>
     <use xlink:href="#ArialMT-6f" x="388.964844"/>
     <use xlink:href="#ArialMT-6e" x="444.580078"/>
     <use xlink:href="#ArialMT-20" x="500.195312"/>
     <use xlink:href="#ArialMT-6f" x="527.978516"/>
     <use xlink:href="#ArialMT-66" x="583.59375"/>
     <use xlink:href="#ArialMT-20" x="611.376953"/>
     <use xlink:href="#ArialMT-64" x="639.160156"/>
     <use xlink:href="#ArialMT-65" x="694.775391"/>
     <use xlink:href="#ArialMT-76" x="750.390625"/>
     <use xlink:href="#ArialMT-69" x="800.390625"/>
     <use xlink:href="#ArialMT-61" x="822.607422"/>
     <use xlink:href="#ArialMT-74" x="878.222656"/>
     <use xlink:href="#ArialMT-69" x="906.005859"/>
     <use xlink:href="#ArialMT-6f" x="928.222656"/>
     <use xlink:href="#ArialMT-6e" x="983.837891"/>
     <use xlink:href="#ArialMT-20" x="1039.453125"/>
     <use xlink:href="#ArialMT-66" x="1067.236328"/>
     <use xlink:href="#ArialMT-72" x="1095.019531"/>
     <use xlink:href="#ArialMT-6f" x="1128.320312"/>
     <use xlink:href="#ArialMT-6d" x="1183.935547"/>
     <use xlink:href="#ArialMT-20" x="1267.236328"/>
     <use xlink:href="#ArialMT-62" x="1295.019531"/>
     <use xlink:href="#ArialMT-61" x="1350.634766"/>
     <use xlink:href="#ArialMT-73" x="1406.25"/>
     <use xlink:href="#ArialMT-65" x="1456.25"/>
     <use xlink:href="#ArialMT-6c" x="1511.865234"/>
     <use xlink:href="#ArialMT-69" x="1534.082031"/>
     <use xlink:href="#ArialMT-6e" x="1556.298828"/>
     <use xlink:href="#ArialMT-65" x="1611.914062"/>
     <use xlink:href="#ArialMT-20" x="1667.529297"/>
     <use xlink:href="#ArialMT-28" x="1695.3125"/>
     <use xlink:href="#ArialMT-41" x="1728.613281"/>
     <use xlink:href="#ArialMT-4e" x="1795.3125"/>
     <use xlink:href="#ArialMT-49" x="1867.529297"/>
     <use xlink:href="#ArialMT-6d" x="1895.3125"/>
     <use xlink:href="#ArialMT-29" x="1978.613281"/>
     <use xlink:href="#ArialMT-20" x="2011.914062"/>
     <use xlink:href="#ArialMT-63" x="2039.697266"/>
     <use xlink:href="#ArialMT-6f" x="2089.697266"/>
     <use xlink:href="#ArialMT-70" x="2145.3125"/>
     <use xlink:href="#ArialMT-68" x="2200.927734"/>
     <use xlink:href="#ArialMT-65" x="2256.542969"/>
     <use xlink:href="#ArialMT-6e" x="2312.158203"/>
     <use xlink:href="#ArialMT-65" x="2367.773438"/>
     <use xlink:href="#ArialMT-74" x="2423.388672"/>
     <use xlink:href="#ArialMT-69" x="2451.171875"/>
     <use xlink:href="#ArialMT-63" x="2473.388672"/>
     <use xlink:href="#ArialMT-20" x="2523.388672"/>
     <use xlink:href="#ArialMT-63" x="2551.171875"/>
     <use xlink:href="#ArialMT-6f" x="2601.171875"/>
     <use xlink:href="#ArialMT-72" x="2656.787109"/>
     <use xlink:href="#ArialMT-72" x="2690.087891"/>
     <use xlink:href="#ArialMT-65" x="2723.388672"/>
     <use xlink:href="#ArialMT-6c" x="2779.003906"/>
     <use xlink:href="#ArialMT-61" x="2801.220703"/>
     <use xlink:href="#ArialMT-74" x="2856.835938"/>
     <use xlink:href="#ArialMT-69" x="2884.619141"/>
     <use xlink:href="#ArialMT-6f" x="2906.835938"/>
     <use xlink:href="#ArialMT-6e" x="2962.451172"/>
     <use xlink:href="#ArialMT-20" x="3018.066406"/>
     <use xlink:href="#ArialMT-28" x="3045.849609"/>
     <use xlink:href="#ArialMT-6e" x="3079.150391"/>
     <use xlink:href="#ArialMT-20" x="3134.765625"/>
     <use xlink:href="#ArialMT-3d" x="3162.548828"/>
     <use xlink:href="#ArialMT-20" x="3220.947266"/>
     <use xlink:href="#ArialMT-32" x="3248.730469"/>
     <use xlink:href="#ArialMT-33" x="3304.345703"/>
     <use xlink:href="#ArialMT-38" x="3359.960938"/>
     <use xlink:href="#ArialMT-29" x="3415.576172"/>
    </g>
   </g>
   <g id="legend_1">
    <g id="patch_7">
     <path d="M 43.680156 220.254673 
L 176.178125 220.254673 
Q 177.578125 220.254673 177.578125 218.854673 
L 177.578125 160.14436 
Q 177.578125 158.74436 176.178125 158.74436 
L 43.680156 158.74436 
Q 42.280156 158.74436 42.280156 160.14436 
L 42.280156 218.854673 
Q 42.280156 220.254673 43.680156 220.254673 
z
" style="fill: #ffffff; opacity: 0.8; stroke: #cccccc; stroke-linejoin: miter"/>
    </g>
    <g id="text_16">
     <!-- method: mean deviation -->
     <g transform="translate(72.575391 166.554829) scale(0.07 -0.07)">
      <defs>
       <path id="ArialMT-3a" d="M 578 2678 
L 578 3319 
L 1219 3319 
L 1219 2678 
L 578 2678 
z
M 578 0 
L 578 641 
L 1219 641 
L 1219 0 
L 578 0 
z
" transform="scale(0.015625)"/>
      </defs>
      <use xlink:href="#ArialMT-6d"/>
      <use xlink:href="#ArialMT-65" x="83.300781"/>
      <use xlink:href="#ArialMT-74" x="138.916016"/>
      <use xlink:href="#ArialMT-68" x="166.699219"/>
      <use xlink:href="#ArialMT-6f" x="222.314453"/>
      <use xlink:href="#ArialMT-64" x="277.929688"/>
      <use xlink:href="#ArialMT-3a" x="333.544922"/>
      <use xlink:href="#ArialMT-20" x="361.328125"/>
      <use xlink:href="#ArialMT-6d" x="389.111328"/>
      <use xlink:href="#ArialMT-65" x="472.412109"/>
      <use xlink:href="#ArialMT-61" x="528.027344"/>
      <use xlink:href="#ArialMT-6e" x="583.642578"/>
      <use xlink:href="#ArialMT-20" x="639.257812"/>
      <use xlink:href="#ArialMT-64" x="667.041016"/>
      <use xlink:href="#ArialMT-65" x="722.65625"/>
      <use xlink:href="#ArialMT-76" x="778.271484"/>
      <use xlink:href="#ArialMT-69" x="828.271484"/>
      <use xlink:href="#ArialMT-61" x="850.488281"/>
      <use xlink:href="#ArialMT-74" x="906.103516"/>
      <use xlink:href="#ArialMT-69" x="933.886719"/>
      <use xlink:href="#ArialMT-6f" x="956.103516"/>
      <use xlink:href="#ArialMT-6e" x="1011.71875"/>
     </g>
    </g>
    <g id="patch_8">
     <path d="M 45.080156 176.456548 
L 59.080156 176.456548 
L 59.080156 171.556548 
L 45.080156 171.556548 
z
" style="fill: #4878d0; stroke: #000000; stroke-linejoin: miter"/>
    </g>
    <g id="text_17">
     <!-- skani: -0.040 -->
     <g transform="translate(64.680156 176.456548) scale(0.07 -0.07)">
      <use xlink:href="#ArialMT-73"/>
      <use xlink:href="#ArialMT-6b" x="50"/>
      <use xlink:href="#ArialMT-61" x="100"/>
      <use xlink:href="#ArialMT-6e" x="155.615234"/>
      <use xlink:href="#ArialMT-69" x="211.230469"/>
      <use xlink:href="#ArialMT-3a" x="233.447266"/>
      <use xlink:href="#ArialMT-20" x="261.230469"/>
      <use xlink:href="#ArialMT-2d" x="289.013672"/>
      <use xlink:href="#ArialMT-30" x="322.314453"/>
      <use xlink:href="#ArialMT-2e" x="377.929688"/>
      <use xlink:href="#ArialMT-30" x="405.712891"/>
      <use xlink:href="#ArialMT-34" x="461.328125"/>
      <use xlink:href="#ArialMT-30" x="516.943359"/>
     </g>
    </g>
    <g id="patch_9">
     <path d="M 45.080156 186.358266 
L 59.080156 186.358266 
L 59.080156 181.458266 
L 45.080156 181.458266 
z
" style="fill: url(#hf75b2aed1d); stroke: #000000; stroke-linejoin: miter"/>
    </g>
    <g id="text_18">
     <!-- sourmash max-containment: -0.148 -->
     <g transform="translate(64.680156 186.358266) scale(0.07 -0.07)">
      <use xlink:href="#ArialMT-73"/>
      <use xlink:href="#ArialMT-6f" x="50"/>
      <use xlink:href="#ArialMT-75" x="105.615234"/>
      <use xlink:href="#ArialMT-72" x="161.230469"/>
      <use xlink:href="#ArialMT-6d" x="194.53125"/>
      <use xlink:href="#ArialMT-61" x="277.832031"/>
      <use xlink:href="#ArialMT-73" x="333.447266"/>
      <use xlink:href="#ArialMT-68" x="383.447266"/>
      <use xlink:href="#ArialMT-20" x="439.0625"/>
      <use xlink:href="#ArialMT-6d" x="466.845703"/>
      <use xlink:href="#ArialMT-61" x="550.146484"/>
      <use xlink:href="#ArialMT-78" x="605.761719"/>
      <use xlink:href="#ArialMT-2d" x="655.761719"/>
      <use xlink:href="#ArialMT-63" x="689.0625"/>
      <use xlink:href="#ArialMT-6f" x="739.0625"/>
      <use xlink:href="#ArialMT-6e" x="794.677734"/>
      <use xlink:href="#ArialMT-74" x="850.292969"/>
      <use xlink:href="#ArialMT-61" x="878.076172"/>
      <use xlink:href="#ArialMT-69" x="933.691406"/>
      <use xlink:href="#ArialMT-6e" x="955.908203"/>
      <use xlink:href="#ArialMT-6d" x="1011.523438"/>
      <use xlink:href="#ArialMT-65" x="1094.824219"/>
      <use xlink:href="#ArialMT-6e" x="1150.439453"/>
      <use xlink:href="#ArialMT-74" x="1206.054688"/>
      <use xlink:href="#ArialMT-3a" x="1233.837891"/>
      <use xlink:href="#ArialMT-20" x="1261.621094"/>
      <use xlink:href="#ArialMT-2d" x="1289.404297"/>
      <use xlink:href="#ArialMT-30" x="1322.705078"/>
      <use xlink:href="#ArialMT-2e" x="1378.320312"/>
      <use xlink:href="#ArialMT-31" x="1406.103516"/>
      <use xlink:href="#ArialMT-34" x="1461.71875"/>
      <use xlink:href="#ArialMT-38" x="1517.333984"/>
     </g>
    </g>
    <g id="patch_10">
     <path d="M 45.080156 196.259985 
L 59.080156 196.259985 
L 59.080156 191.359985 
L 45.080156 191.359985 
z
" style="fill: #d65f5f; stroke: #000000; stroke-linejoin: miter"/>
    </g>
    <g id="text_19">
     <!-- sourmash: -0.340 -->
     <g transform="translate(64.680156 196.259985) scale(0.07 -0.07)">
      <use xlink:href="#ArialMT-73"/>
      <use xlink:href="#ArialMT-6f" x="50"/>
      <use xlink:href="#ArialMT-75" x="105.615234"/>
      <use xlink:href="#ArialMT-72" x="161.230469"/>
      <use xlink:href="#ArialMT-6d" x="194.53125"/>
      <use xlink:href="#ArialMT-61" x="277.832031"/>
      <use xlink:href="#ArialMT-73" x="333.447266"/>
      <use xlink:href="#ArialMT-68" x="383.447266"/>
      <use xlink:href="#ArialMT-3a" x="439.0625"/>
      <use xlink:href="#ArialMT-20" x="466.845703"/>
      <use xlink:href="#ArialMT-2d" x="494.628906"/>
      <use xlink:href="#ArialMT-30" x="527.929688"/>
      <use xlink:href="#ArialMT-2e" x="583.544922"/>
      <use xlink:href="#ArialMT-33" x="611.328125"/>
      <use xlink:href="#ArialMT-34" x="666.943359"/>
      <use xlink:href="#ArialMT-30" x="722.558594"/>
     </g>
    </g>
    <g id="patch_11">
     <path d="M 45.080156 206.161704 
L 59.080156 206.161704 
L 59.080156 201.261704 
L 45.080156 201.261704 
z
" style="fill: #ee854a; stroke: #000000; stroke-linejoin: miter"/>
    </g>
    <g id="text_20">
     <!-- fastani: -0.227 -->
     <g transform="translate(64.680156 206.161704) scale(0.07 -0.07)">
      <defs>
       <path id="ArialMT-37" d="M 303 3981 
L 303 4522 
L 3269 4522 
L 3269 4084 
Q 2831 3619 2401 2847 
Q 1972 2075 1738 1259 
Q 1569 684 1522 0 
L 944 0 
Q 953 541 1156 1306 
Q 1359 2072 1739 2783 
Q 2119 3494 2547 3981 
L 303 3981 
z
" transform="scale(0.015625)"/>
      </defs>
      <use xlink:href="#ArialMT-66"/>
      <use xlink:href="#ArialMT-61" x="27.783203"/>
      <use xlink:href="#ArialMT-73" x="83.398438"/>
      <use xlink:href="#ArialMT-74" x="133.398438"/>
      <use xlink:href="#ArialMT-61" x="161.181641"/>
      <use xlink:href="#ArialMT-6e" x="216.796875"/>
      <use xlink:href="#ArialMT-69" x="272.412109"/>
      <use xlink:href="#ArialMT-3a" x="294.628906"/>
      <use xlink:href="#ArialMT-20" x="322.412109"/>
      <use xlink:href="#ArialMT-2d" x="350.195312"/>
      <use xlink:href="#ArialMT-30" x="383.496094"/>
      <use xlink:href="#ArialMT-2e" x="439.111328"/>
      <use xlink:href="#ArialMT-32" x="466.894531"/>
      <use xlink:href="#ArialMT-32" x="522.509766"/>
      <use xlink:href="#ArialMT-37" x="578.125"/>
     </g>
    </g>
    <g id="patch_12">
     <path d="M 45.080156 216.063423 
L 59.080156 216.063423 
L 59.080156 211.163423 
L 45.080156 211.163423 
z
" style="fill: #6acc64; stroke: #000000; stroke-linejoin: miter"/>
    </g>
    <g id="text_21">
     <!-- mash: -0.422 -->
     <g transform="translate(64.680156 216.063423) scale(0.07 -0.07)">
      <use xlink:href="#ArialMT-6d"/>
      <use xlink:href="#ArialMT-61" x="83.300781"/>
      <use xlink:href="#ArialMT-73" x="138.916016"/>
      <use xlink:href="#ArialMT-68" x="188.916016"/>
      <use xlink:href="#ArialMT-3a" x="244.53125"/>
      <use xlink:href="#ArialMT-20" x="272.314453"/>
      <use xlink:href="#ArialMT-2d" x="300.097656"/>
      <use xlink:href="#ArialMT-30" x="333.398438"/>
      <use xlink:href="#ArialMT-2e" x="389.013672"/>
      <use xlink:href="#ArialMT-34" x="416.796875"/>
      <use xlink:href="#ArialMT-32" x="472.412109"/>
      <use xlink:href="#ArialMT-32" x="528.027344"/>
     </g>
    </g>
   </g>
  </g>
 </g>
 <defs>
  <clipPath id="p5f72f755a0">
   <rect x="38.780156" y="19.674937" width="435.549608" height="204.079735"/>
  </clipPath>
 </defs>
 <defs>
  <pattern id="h6b5c0fecc7" patternUnits="userSpaceOnUse" x="0" y="0" width="72" height="72">
   <rect x="0" y="0" width="73" height="73" fill="#d65f5f"/>
   <path d="M -36 36 
L 36 -36 
M -32 40 
L 40 -32 
M -28 44 
L 44 -28 
M -24 48 
L 48 -24 
M -20 52 
L 52 -20 
M -16 56 
L 56 -16 
M -12 60 
L 60 -12 
M -8 64 
L 64 -8 
M -4 68 
L 68 -4 
M 0 72 
L 72 0 
M 4 76 
L 76 4 
M 8 80 
L 80 8 
M 12 84 
L 84 12 
M 16 88 
L 88 16 
M 20 92 
L 92 20 
M 24 96 
L 96 24 
M 28 100 
L 100 28 
M 32 104 
L 104 32 
M 36 108 
L 108 36 
" style="fill: #545454; stroke: #545454; stroke-width: 1.0; stroke-linecap: butt; stroke-linejoin: miter"/>
  </pattern>
  <pattern id="hf75b2aed1d" patternUnits="userSpaceOnUse" x="0" y="0" width="72" height="72">
   <rect x="0" y="0" width="73" height="73" fill="#d65f5f"/>
   <path d="M -36 36 
L 36 -36 
M -32 40 
L 40 -32 
M -28 44 
L 44 -28 
M -24 48 
L 48 -24 
M -20 52 
L 52 -20 
M -16 56 
L 56 -16 
M -12 60 
L 60 -12 
M -8 64 
L 64 -8 
M -4 68 
L 68 -4 
M 0 72 
L 72 0 
M 4 76 
L 76 4 
M 8 80 
L 80 8 
M 12 84 
L 84 12 
M 16 88 
L 88 16 
M 20 92 
L 92 20 
M 24 96 
L 96 24 
M 28 100 
L 100 28 
M 32 104 
L 104 32 
M 36 108 
L 108 36 
" style="fill: #000000; stroke: #000000; stroke-width: 1.0; stroke-linecap: butt; stroke-linejoin: miter"/>
  </pattern>
 </defs>
</svg>
