<?xml version="1.0" encoding="utf-8" standalone="no"?>
<!DOCTYPE svg PUBLIC "-//W3C//DTD SVG 1.1//EN"
  "http://www.w3.org/Graphics/SVG/1.1/DTD/svg11.dtd">
<svg xmlns:xlink="http://www.w3.org/1999/xlink" width="481.889764pt" height="255.11811pt" viewBox="0 0 481.889764 255.11811" xmlns="http://www.w3.org/2000/svg" version="1.1">
 <metadata>
  <rdf:RDF xmlns:dc="http://purl.org/dc/elements/1.1/" xmlns:cc="http://creativecommons.org/ns#" xmlns:rdf="http://www.w3.org/1999/02/22-rdf-syntax-ns#">
   <cc:Work>
    <dc:type rdf:resource="http://purl.org/dc/dcmitype/StillImage"/>
    <dc:date>2022-11-30T19:58:03.230394</dc:date>
    <dc:format>image/svg+xml</dc:format>
    <dc:creator>
     <cc:Agent>
      <dc:title>Matplotlib v3.5.3, https://matplotlib.org/</dc:title>
     </cc:Agent>
    </dc:creator>
   </cc:Work>
  </rdf:RDF>
 </metadata>
 <defs>
  <style type="text/css">*{stroke-linejoin: round; stroke-linecap: butt}</style>
 </defs>
 <g id="figure_1">
  <g id="patch_1">
   <path d="M 0 255.11811 
L 481.889764 255.11811 
L 481.889764 0 
L 0 0 
L 0 255.11811 
z
" style="fill: none"/>
  </g>
  <g id="axes_1">
   <g id="patch_2">
    <path d="M 38.780156 223.754673 
L 474.329764 223.754673 
L 474.329764 19.674937 
L 38.780156 19.674937 
L 38.780156 223.754673 
z
" style="fill: none"/>
   </g>
   <g id="PolyCollection_1">
    <defs>
     <path id="mb78093f1ee" d="M 82.757917 -153.436755 
L 81.912317 -153.436755 
L 81.884652 -154.171402 
L 81.873117 -154.906049 
L 81.878715 -155.640697 
L 81.900465 -156.375344 
L 81.935461 -157.109991 
L 81.979218 -157.844638 
L 82.026273 -158.579285 
L 82.070928 -159.313932 
L 82.108056 -160.048579 
L 82.133841 -160.783226 
L 82.146336 -161.517874 
L 82.145758 -162.252521 
L 82.134447 -162.987168 
L 82.116475 -163.721815 
L 82.096926 -164.456462 
L 82.080968 -165.191109 
L 82.072879 -165.925756 
L 82.075248 -166.660404 
L 82.088523 -167.395051 
L 82.111029 -168.129698 
L 82.139398 -168.864345 
L 82.169294 -169.598992 
L 82.196231 -170.333639 
L 82.216285 -171.068286 
L 82.226624 -171.802933 
L 82.225818 -172.537581 
L 82.21397 -173.272228 
L 82.192701 -174.006875 
L 82.164983 -174.741522 
L 82.134782 -175.476169 
L 82.106468 -176.210816 
L 82.084022 -176.945463 
L 82.070149 -177.68011 
L 82.065496 -178.414758 
L 82.068169 -179.149405 
L 82.073737 -179.884052 
L 82.075764 -180.618699 
L 82.066833 -181.353346 
L 82.039911 -182.087993 
L 81.989844 -182.82264 
L 81.914737 -183.557288 
L 81.816931 -184.291935 
L 81.703292 -185.026582 
L 81.584604 -185.761229 
L 81.473979 -186.495876 
L 81.384489 -187.230523 
L 81.326467 -187.96517 
L 81.305133 -188.699817 
L 81.319198 -189.434465 
L 81.360902 -190.169112 
L 81.417526 -190.903759 
L 81.474017 -191.638406 
L 81.516016 -192.373053 
L 81.532484 -193.1077 
L 81.517299 -193.842347 
L 81.469484 -194.576994 
L 81.392187 -195.311642 
L 81.290846 -196.046289 
L 81.171165 -196.780936 
L 81.037524 -197.515583 
L 80.892228 -198.25023 
L 80.735677 -198.984877 
L 80.567273 -199.719524 
L 80.386583 -200.454172 
L 80.194285 -201.188819 
L 79.992528 -201.923466 
L 79.784582 -202.658113 
L 79.573959 -203.39276 
L 79.363307 -204.127407 
L 79.153402 -204.862054 
L 78.942342 -205.596701 
L 78.724907 -206.331349 
L 78.491949 -207.065996 
L 78.229781 -207.800643 
L 77.919704 -208.53529 
L 77.537924 -209.269937 
L 77.055932 -210.004584 
L 76.441076 -210.739231 
L 75.656726 -211.473879 
L 74.661448 -212.208526 
L 73.407202 -212.943173 
L 71.837778 -213.67782 
L 69.889859 -214.412467 
L 67.499786 -215.147114 
L 64.618317 -215.881761 
L 61.233449 -216.616408 
L 57.397767 -217.351056 
L 53.25309 -218.085703 
L 49.042899 -218.82035 
L 45.103534 -219.554997 
L 41.829356 -220.289644 
L 39.614251 -221.024291 
L 38.780156 -221.758938 
L 39.509609 -222.493585 
L 41.800851 -223.228233 
L 45.459375 -223.96288 
L 50.129896 -224.697527 
L 55.360999 -225.432174 
L 60.685326 -226.166821 
L 103.984908 -226.166821 
L 103.984908 -226.166821 
L 109.309235 -225.432174 
L 114.540338 -224.697527 
L 119.210859 -223.96288 
L 122.869383 -223.228233 
L 125.160625 -222.493585 
L 125.890078 -221.758938 
L 125.055983 -221.024291 
L 122.840878 -220.289644 
L 119.5667 -219.554997 
L 115.627335 -218.82035 
L 111.417144 -218.085703 
L 107.272467 -217.351056 
L 103.436785 -216.616408 
L 100.051917 -215.881761 
L 97.170448 -215.147114 
L 94.780375 -214.412467 
L 92.832456 -213.67782 
L 91.263032 -212.943173 
L 90.008786 -212.208526 
L 89.013508 -211.473879 
L 88.229158 -210.739231 
L 87.614302 -210.004584 
L 87.13231 -209.269937 
L 86.75053 -208.53529 
L 86.440453 -207.800643 
L 86.178285 -207.065996 
L 85.945327 -206.331349 
L 85.727892 -205.596701 
L 85.516832 -204.862054 
L 85.306927 -204.127407 
L 85.096275 -203.39276 
L 84.885652 -202.658113 
L 84.677706 -201.923466 
L 84.475949 -201.188819 
L 84.283651 -200.454172 
L 84.102961 -199.719524 
L 83.934557 -198.984877 
L 83.778006 -198.25023 
L 83.63271 -197.515583 
L 83.499069 -196.780936 
L 83.379388 -196.046289 
L 83.278047 -195.311642 
L 83.20075 -194.576994 
L 83.152935 -193.842347 
L 83.13775 -193.1077 
L 83.154218 -192.373053 
L 83.196217 -191.638406 
L 83.252708 -190.903759 
L 83.309332 -190.169112 
L 83.351036 -189.434465 
L 83.365101 -188.699817 
L 83.343767 -187.96517 
L 83.285745 -187.230523 
L 83.196255 -186.495876 
L 83.08563 -185.761229 
L 82.966942 -185.026582 
L 82.853303 -184.291935 
L 82.755497 -183.557288 
L 82.68039 -182.82264 
L 82.630323 -182.087993 
L 82.603401 -181.353346 
L 82.59447 -180.618699 
L 82.596497 -179.884052 
L 82.602065 -179.149405 
L 82.604738 -178.414758 
L 82.600085 -177.68011 
L 82.586212 -176.945463 
L 82.563766 -176.210816 
L 82.535452 -175.476169 
L 82.505251 -174.741522 
L 82.477533 -174.006875 
L 82.456264 -173.272228 
L 82.444416 -172.537581 
L 82.44361 -171.802933 
L 82.453949 -171.068286 
L 82.474003 -170.333639 
L 82.50094 -169.598992 
L 82.530836 -168.864345 
L 82.559205 -168.129698 
L 82.581711 -167.395051 
L 82.594986 -166.660404 
L 82.597355 -165.925756 
L 82.589266 -165.191109 
L 82.573308 -164.456462 
L 82.553759 -163.721815 
L 82.535787 -162.987168 
L 82.524476 -162.252521 
L 82.523898 -161.517874 
L 82.536393 -160.783226 
L 82.562178 -160.048579 
L 82.599306 -159.313932 
L 82.643961 -158.579285 
L 82.691016 -157.844638 
L 82.734773 -157.109991 
L 82.769769 -156.375344 
L 82.791519 -155.640697 
L 82.797117 -154.906049 
L 82.785582 -154.171402 
L 82.757917 -153.436755 
z
" style="stroke: #545454; stroke-width: 1.5"/>
    </defs>
    <g clip-path="url(#pd261aada6e)">
     <use xlink:href="#mb78093f1ee" x="0" y="255.11811" style="fill: #4878d0; stroke: #545454; stroke-width: 1.5"/>
    </g>
   </g>
   <g id="PolyCollection_2">
    <path d="M 169.59117 150.444588 
L 169.298907 150.444588 
L 169.291509 149.243118 
L 169.285814 148.041647 
L 169.281803 146.840176 
L 169.279417 145.638705 
L 169.278587 144.437235 
L 169.279255 143.235764 
L 169.28137 142.034293 
L 169.284868 140.832822 
L 169.289625 139.631352 
L 169.295398 138.429881 
L 169.301764 137.22841 
L 169.308069 136.026939 
L 169.313395 134.825469 
L 169.316562 133.623998 
L 169.316152 132.422527 
L 169.310578 131.221056 
L 169.298183 130.019586 
L 169.277361 128.818115 
L 169.246704 127.616644 
L 169.205156 126.415173 
L 169.152154 125.213703 
L 169.087747 124.012232 
L 169.012669 122.810761 
L 168.928342 121.60929 
L 168.836814 120.40782 
L 168.740613 119.206349 
L 168.642555 118.004878 
L 168.545504 116.803407 
L 168.452146 115.601937 
L 168.364791 114.400466 
L 168.285247 113.198995 
L 168.214772 111.997524 
L 168.15411 110.796054 
L 168.103582 109.594583 
L 168.063204 108.393112 
L 168.032799 107.191641 
L 168.012062 105.990171 
L 168.000574 104.7887 
L 167.997751 103.587229 
L 168.00276 102.385758 
L 168.014409 101.184288 
L 168.031074 99.982817 
L 168.050656 98.781346 
L 168.070618 97.579875 
L 168.08808 96.378405 
L 168.09998 95.176934 
L 168.103272 93.975463 
L 168.095146 92.773992 
L 168.073224 91.572522 
L 168.035743 90.371051 
L 167.981681 89.16958 
L 167.910826 87.968109 
L 167.823793 86.766638 
L 167.721978 85.565168 
L 167.607453 84.363697 
L 167.482818 83.162226 
L 167.351004 81.960755 
L 167.215039 80.759285 
L 167.077794 79.557814 
L 166.941707 78.356343 
L 166.808515 77.154872 
L 166.679015 75.953402 
L 166.552865 74.751931 
L 166.42847 73.55046 
L 166.302956 72.348989 
L 166.172273 71.147519 
L 166.031401 69.946048 
L 165.874681 68.744577 
L 165.696227 67.543106 
L 165.49039 66.341636 
L 165.252226 65.140165 
L 164.97792 63.938694 
L 164.665114 62.737223 
L 164.313096 61.535753 
L 163.922831 60.334282 
L 163.496821 59.132811 
L 163.038802 57.93134 
L 162.55333 56.72987 
L 162.04531 55.528399 
L 161.519548 54.326928 
L 160.980421 53.125457 
L 160.431767 51.923987 
L 159.87703 50.722516 
L 159.319737 49.521045 
L 158.764244 48.319574 
L 158.216687 47.118104 
L 157.685976 45.916633 
L 157.184641 44.715162 
L 156.729287 43.513691 
L 156.340474 42.312221 
L 156.041852 41.11075 
L 155.858534 39.909279 
L 155.814794 38.707808 
L 155.93133 37.506338 
L 156.222467 36.304867 
L 156.693715 35.103396 
L 157.340117 33.901925 
L 158.1457 32.700455 
L 159.084206 31.498984 
L 179.805871 31.498984 
L 179.805871 31.498984 
L 180.744377 32.700455 
L 181.54996 33.901925 
L 182.196362 35.103396 
L 182.66761 36.304867 
L 182.958747 37.506338 
L 183.075283 38.707808 
L 183.031543 39.909279 
L 182.848225 41.11075 
L 182.549603 42.312221 
L 182.16079 43.513691 
L 181.705436 44.715162 
L 181.204101 45.916633 
L 180.67339 47.118104 
L 180.125833 48.319574 
L 179.57034 49.521045 
L 179.013047 50.722516 
L 178.45831 51.923987 
L 177.909656 53.125457 
L 177.370529 54.326928 
L 176.844767 55.528399 
L 176.336747 56.72987 
L 175.851275 57.93134 
L 175.393256 59.132811 
L 174.967246 60.334282 
L 174.576981 61.535753 
L 174.224963 62.737223 
L 173.912157 63.938694 
L 173.637851 65.140165 
L 173.399687 66.341636 
L 173.19385 67.543106 
L 173.015396 68.744577 
L 172.858676 69.946048 
L 172.717804 71.147519 
L 172.587121 72.348989 
L 172.461607 73.55046 
L 172.337212 74.751931 
L 172.211062 75.953402 
L 172.081562 77.154872 
L 171.94837 78.356343 
L 171.812283 79.557814 
L 171.675038 80.759285 
L 171.539074 81.960755 
L 171.407259 83.162226 
L 171.282624 84.363697 
L 171.168099 85.565168 
L 171.066284 86.766638 
L 170.979251 87.968109 
L 170.908396 89.16958 
L 170.854334 90.371051 
L 170.816853 91.572522 
L 170.794931 92.773992 
L 170.786805 93.975463 
L 170.790097 95.176934 
L 170.801997 96.378405 
L 170.819459 97.579875 
L 170.839421 98.781346 
L 170.859003 99.982817 
L 170.875668 101.184288 
L 170.887317 102.385758 
L 170.892326 103.587229 
L 170.889503 104.7887 
L 170.878015 105.990171 
L 170.857278 107.191641 
L 170.826873 108.393112 
L 170.786495 109.594583 
L 170.735967 110.796054 
L 170.675305 111.997524 
L 170.60483 113.198995 
L 170.525286 114.400466 
L 170.437931 115.601937 
L 170.344573 116.803407 
L 170.247522 118.004878 
L 170.149464 119.206349 
L 170.053263 120.40782 
L 169.961735 121.60929 
L 169.877408 122.810761 
L 169.80233 124.012232 
L 169.737923 125.213703 
L 169.684921 126.415173 
L 169.643373 127.616644 
L 169.612716 128.818115 
L 169.591894 130.019586 
L 169.579499 131.221056 
L 169.573925 132.422527 
L 169.573515 133.623998 
L 169.576682 134.825469 
L 169.582009 136.026939 
L 169.588313 137.22841 
L 169.594679 138.429881 
L 169.600452 139.631352 
L 169.605209 140.832822 
L 169.608707 142.034293 
L 169.610822 143.235764 
L 169.61149 144.437235 
L 169.61066 145.638705 
L 169.608274 146.840176 
L 169.604263 148.041647 
L 169.598568 149.243118 
L 169.59117 150.444588 
z
" clip-path="url(#pd261aada6e)" style="fill: url(#hcbd77d0a97); stroke: #545454; stroke-width: 1.5"/>
   </g>
   <g id="PolyCollection_3">
    <defs>
     <path id="mae92b83404" d="M 256.656092 -43.161266 
L 256.453828 -43.161266 
L 256.447243 -44.965879 
L 256.441199 -46.770493 
L 256.435546 -48.575106 
L 256.430091 -50.37972 
L 256.424628 -52.184333 
L 256.418971 -53.988947 
L 256.412988 -55.79356 
L 256.406622 -57.598174 
L 256.399908 -59.402787 
L 256.392984 -61.207401 
L 256.386083 -63.012014 
L 256.379515 -64.816627 
L 256.373639 -66.621241 
L 256.368818 -68.425854 
L 256.365362 -70.230468 
L 256.36346 -72.035081 
L 256.363111 -73.839695 
L 256.364063 -75.644308 
L 256.365758 -77.448922 
L 256.367316 -79.253535 
L 256.367545 -81.058149 
L 256.36499 -82.862762 
L 256.358024 -84.667376 
L 256.344974 -86.471989 
L 256.324264 -88.276603 
L 256.294573 -90.081216 
L 256.254971 -91.88583 
L 256.205038 -93.690443 
L 256.14492 -95.495057 
L 256.075334 -97.29967 
L 255.997499 -99.104283 
L 255.913007 -100.908897 
L 255.82364 -102.71351 
L 255.731157 -104.518124 
L 255.637081 -106.322737 
L 255.542508 -108.127351 
L 255.447973 -109.931964 
L 255.353376 -111.736578 
L 255.257992 -113.541191 
L 255.16054 -115.345805 
L 255.059327 -117.150418 
L 254.952413 -118.955032 
L 254.83781 -120.759645 
L 254.71368 -122.564259 
L 254.578527 -124.368872 
L 254.431375 -126.173486 
L 254.271925 -127.978099 
L 254.100689 -129.782713 
L 253.919094 -131.587326 
L 253.729536 -133.39194 
L 253.53537 -135.196553 
L 253.340827 -137.001166 
L 253.150821 -138.80578 
L 252.970659 -140.610393 
L 252.805656 -142.415007 
L 252.660676 -144.21962 
L 252.539653 -146.024234 
L 252.445137 -147.828847 
L 252.377939 -149.633461 
L 252.336929 -151.438074 
L 252.319036 -153.242688 
L 252.319456 -155.047301 
L 252.332077 -156.851915 
L 252.350054 -158.656528 
L 252.366491 -160.461142 
L 252.375112 -162.265755 
L 252.370858 -164.070369 
L 252.350322 -165.874982 
L 252.311963 -167.679596 
L 252.256092 -169.484209 
L 252.184636 -171.288822 
L 252.100729 -173.093436 
L 252.008198 -174.898049 
L 251.911021 -176.702663 
L 251.812834 -178.507276 
L 251.71654 -180.31189 
L 251.624067 -182.116503 
L 251.536292 -183.921117 
L 251.453119 -185.72573 
L 251.373712 -187.530344 
L 251.296826 -189.334957 
L 251.221219 -191.139571 
L 251.146092 -192.944184 
L 251.071511 -194.748798 
L 250.99876 -196.553411 
L 250.930591 -198.358025 
L 250.871305 -200.162638 
L 250.826665 -201.967252 
L 250.803596 -203.771865 
L 250.809701 -205.576478 
L 250.852622 -207.381092 
L 250.939297 -209.185705 
L 251.075191 -210.990319 
L 251.263604 -212.794932 
L 251.505122 -214.599546 
L 251.797306 -216.404159 
L 252.134661 -218.208773 
L 252.508911 -220.013386 
L 252.909553 -221.818 
L 260.200367 -221.818 
L 260.200367 -221.818 
L 260.601009 -220.013386 
L 260.975259 -218.208773 
L 261.312614 -216.404159 
L 261.604798 -214.599546 
L 261.846316 -212.794932 
L 262.034729 -210.990319 
L 262.170623 -209.185705 
L 262.257298 -207.381092 
L 262.300219 -205.576478 
L 262.306324 -203.771865 
L 262.283255 -201.967252 
L 262.238615 -200.162638 
L 262.179329 -198.358025 
L 262.11116 -196.553411 
L 262.038409 -194.748798 
L 261.963828 -192.944184 
L 261.888701 -191.139571 
L 261.813094 -189.334957 
L 261.736208 -187.530344 
L 261.656801 -185.72573 
L 261.573628 -183.921117 
L 261.485853 -182.116503 
L 261.39338 -180.31189 
L 261.297086 -178.507276 
L 261.198899 -176.702663 
L 261.101722 -174.898049 
L 261.009191 -173.093436 
L 260.925284 -171.288822 
L 260.853828 -169.484209 
L 260.797957 -167.679596 
L 260.759598 -165.874982 
L 260.739062 -164.070369 
L 260.734808 -162.265755 
L 260.743429 -160.461142 
L 260.759866 -158.656528 
L 260.777843 -156.851915 
L 260.790464 -155.047301 
L 260.790884 -153.242688 
L 260.772991 -151.438074 
L 260.731981 -149.633461 
L 260.664783 -147.828847 
L 260.570267 -146.024234 
L 260.449244 -144.21962 
L 260.304264 -142.415007 
L 260.139261 -140.610393 
L 259.959099 -138.80578 
L 259.769093 -137.001166 
L 259.57455 -135.196553 
L 259.380384 -133.39194 
L 259.190826 -131.587326 
L 259.009231 -129.782713 
L 258.837995 -127.978099 
L 258.678545 -126.173486 
L 258.531393 -124.368872 
L 258.39624 -122.564259 
L 258.27211 -120.759645 
L 258.157507 -118.955032 
L 258.050593 -117.150418 
L 257.94938 -115.345805 
L 257.851929 -113.541191 
L 257.756544 -111.736578 
L 257.661947 -109.931964 
L 257.567412 -108.127351 
L 257.472839 -106.322737 
L 257.378763 -104.518124 
L 257.28628 -102.71351 
L 257.196913 -100.908897 
L 257.112421 -99.104283 
L 257.034586 -97.29967 
L 256.965 -95.495057 
L 256.904882 -93.690443 
L 256.854949 -91.88583 
L 256.815347 -90.081216 
L 256.785656 -88.276603 
L 256.764946 -86.471989 
L 256.751896 -84.667376 
L 256.74493 -82.862762 
L 256.742375 -81.058149 
L 256.742604 -79.253535 
L 256.744162 -77.448922 
L 256.745857 -75.644308 
L 256.746809 -73.839695 
L 256.74646 -72.035081 
L 256.744558 -70.230468 
L 256.741102 -68.425854 
L 256.736281 -66.621241 
L 256.730405 -64.816627 
L 256.723837 -63.012014 
L 256.716936 -61.207401 
L 256.710012 -59.402787 
L 256.703298 -57.598174 
L 256.696932 -55.79356 
L 256.690949 -53.988947 
L 256.685292 -52.184333 
L 256.679829 -50.37972 
L 256.674374 -48.575106 
L 256.668721 -46.770493 
L 256.662677 -44.965879 
L 256.656092 -43.161266 
z
" style="stroke: #545454; stroke-width: 1.5"/>
    </defs>
    <g clip-path="url(#pd261aada6e)">
     <use xlink:href="#mae92b83404" x="0" y="255.11811" style="fill: #d65f5f; stroke: #545454; stroke-width: 1.5"/>
    </g>
   </g>
   <g id="PolyCollection_4">
    <defs>
     <path id="m218396ef5e" d="M 343.760845 -77.66827 
L 343.568918 -77.66827 
L 343.567748 -79.141939 
L 343.56795 -80.615608 
L 343.569139 -82.089278 
L 343.570813 -83.562947 
L 343.572409 -85.036616 
L 343.573364 -86.510286 
L 343.573173 -87.983955 
L 343.571429 -89.457624 
L 343.567851 -90.931294 
L 343.562279 -92.404963 
L 343.554654 -93.878632 
L 343.54498 -95.352302 
L 343.533278 -96.825971 
L 343.519545 -98.29964 
L 343.503724 -99.77331 
L 343.485697 -101.246979 
L 343.465293 -102.720648 
L 343.442322 -104.194318 
L 343.416605 -105.667987 
L 343.388021 -107.141656 
L 343.356529 -108.615326 
L 343.322176 -110.088995 
L 343.28509 -111.562664 
L 343.245447 -113.036334 
L 343.203433 -114.510003 
L 343.159203 -115.983672 
L 343.112848 -117.457342 
L 343.064377 -118.931011 
L 343.013714 -120.40468 
L 342.960703 -121.87835 
L 342.905127 -123.352019 
L 342.846718 -124.825688 
L 342.785168 -126.299358 
L 342.720133 -127.773027 
L 342.651238 -129.246696 
L 342.57809 -130.720365 
L 342.500306 -132.194035 
L 342.417563 -133.667704 
L 342.329666 -135.141373 
L 342.236629 -136.615043 
L 342.138737 -138.088712 
L 342.036597 -139.562381 
L 341.931129 -141.036051 
L 341.823503 -142.50972 
L 341.715006 -143.983389 
L 341.606877 -145.457059 
L 341.500103 -146.930728 
L 341.395254 -148.404397 
L 341.292363 -149.878067 
L 341.190911 -151.351736 
L 341.089921 -152.825405 
L 340.988157 -154.299075 
L 340.884401 -155.772744 
L 340.777752 -157.246413 
L 340.667893 -158.720083 
L 340.555248 -160.193752 
L 340.441014 -161.667421 
L 340.327021 -163.141091 
L 340.215449 -164.61476 
L 340.108449 -166.088429 
L 340.007727 -167.562099 
L 339.91417 -169.035768 
L 339.827588 -170.509437 
L 339.746613 -171.983107 
L 339.668777 -173.456776 
L 339.590769 -174.930445 
L 339.508799 -176.404115 
L 339.419033 -177.877784 
L 339.318006 -179.351453 
L 339.202957 -180.825122 
L 339.072033 -182.298792 
L 338.924347 -183.772461 
L 338.759891 -185.24613 
L 338.579346 -186.7198 
L 338.383839 -188.193469 
L 338.174695 -189.667138 
L 337.953243 -191.140808 
L 337.720695 -192.614477 
L 337.47813 -194.088146 
L 337.226574 -195.561816 
L 336.967162 -197.035485 
L 336.701374 -198.509154 
L 336.431319 -199.982824 
L 336.160059 -201.456493 
L 335.891933 -202.930162 
L 335.632863 -204.403832 
L 335.390573 -205.877501 
L 335.174662 -207.35117 
L 334.996462 -208.82484 
L 334.86861 -210.298509 
L 334.804309 -211.772178 
L 334.816305 -213.245848 
L 334.915637 -214.719517 
L 335.110321 -216.193186 
L 335.40414 -217.666856 
L 335.795727 -219.140525 
L 336.27812 -220.614194 
L 336.838889 -222.087864 
L 337.460871 -223.561533 
L 349.868892 -223.561533 
L 349.868892 -223.561533 
L 350.490874 -222.087864 
L 351.051643 -220.614194 
L 351.534036 -219.140525 
L 351.925623 -217.666856 
L 352.219442 -216.193186 
L 352.414126 -214.719517 
L 352.513458 -213.245848 
L 352.525454 -211.772178 
L 352.461153 -210.298509 
L 352.333301 -208.82484 
L 352.155101 -207.35117 
L 351.93919 -205.877501 
L 351.6969 -204.403832 
L 351.43783 -202.930162 
L 351.169704 -201.456493 
L 350.898444 -199.982824 
L 350.628389 -198.509154 
L 350.362601 -197.035485 
L 350.103189 -195.561816 
L 349.851633 -194.088146 
L 349.609068 -192.614477 
L 349.37652 -191.140808 
L 349.155068 -189.667138 
L 348.945924 -188.193469 
L 348.750417 -186.7198 
L 348.569872 -185.24613 
L 348.405416 -183.772461 
L 348.25773 -182.298792 
L 348.126806 -180.825122 
L 348.011757 -179.351453 
L 347.91073 -177.877784 
L 347.820964 -176.404115 
L 347.738994 -174.930445 
L 347.660986 -173.456776 
L 347.58315 -171.983107 
L 347.502175 -170.509437 
L 347.415593 -169.035768 
L 347.322037 -167.562099 
L 347.221314 -166.088429 
L 347.114314 -164.61476 
L 347.002742 -163.141091 
L 346.888749 -161.667421 
L 346.774515 -160.193752 
L 346.661871 -158.720083 
L 346.552011 -157.246413 
L 346.445362 -155.772744 
L 346.341606 -154.299075 
L 346.239842 -152.825405 
L 346.138852 -151.351736 
L 346.0374 -149.878067 
L 345.934509 -148.404397 
L 345.82966 -146.930728 
L 345.722886 -145.457059 
L 345.614757 -143.983389 
L 345.50626 -142.50972 
L 345.398634 -141.036051 
L 345.293166 -139.562381 
L 345.191026 -138.088712 
L 345.093134 -136.615043 
L 345.000097 -135.141373 
L 344.912201 -133.667704 
L 344.829458 -132.194035 
L 344.751673 -130.720365 
L 344.678525 -129.246696 
L 344.60963 -127.773027 
L 344.544595 -126.299358 
L 344.483045 -124.825688 
L 344.424636 -123.352019 
L 344.36906 -121.87835 
L 344.316049 -120.40468 
L 344.265386 -118.931011 
L 344.216915 -117.457342 
L 344.17056 -115.983672 
L 344.12633 -114.510003 
L 344.084316 -113.036334 
L 344.044673 -111.562664 
L 344.007587 -110.088995 
L 343.973234 -108.615326 
L 343.941742 -107.141656 
L 343.913158 -105.667987 
L 343.887441 -104.194318 
L 343.86447 -102.720648 
L 343.844066 -101.246979 
L 343.826039 -99.77331 
L 343.810218 -98.29964 
L 343.796485 -96.825971 
L 343.784783 -95.352302 
L 343.775109 -93.878632 
L 343.767484 -92.404963 
L 343.761912 -90.931294 
L 343.758334 -89.457624 
L 343.75659 -87.983955 
L 343.756399 -86.510286 
L 343.757354 -85.036616 
L 343.75895 -83.562947 
L 343.760624 -82.089278 
L 343.761813 -80.615608 
L 343.762015 -79.141939 
L 343.760845 -77.66827 
z
" style="stroke: #545454; stroke-width: 1.5"/>
    </defs>
    <g clip-path="url(#pd261aada6e)">
     <use xlink:href="#m218396ef5e" x="0" y="255.11811" style="fill: #ee854a; stroke: #545454; stroke-width: 1.5"/>
    </g>
   </g>
   <g id="PolyCollection_5">
    <defs>
     <path id="mc9137be1de" d="M 430.877947 -40.639789 
L 430.671659 -40.639789 
L 430.663514 -42.458989 
L 430.65541 -44.278189 
L 430.647213 -46.097389 
L 430.638787 -47.916588 
L 430.630016 -49.735788 
L 430.620835 -51.554988 
L 430.611251 -53.374188 
L 430.601341 -55.193388 
L 430.591249 -57.012587 
L 430.581153 -58.831787 
L 430.571225 -60.650987 
L 430.561576 -62.470187 
L 430.5522 -64.289387 
L 430.542924 -66.108586 
L 430.533369 -67.927786 
L 430.52293 -69.746986 
L 430.51078 -71.566186 
L 430.495905 -73.385386 
L 430.477152 -75.204586 
L 430.4533 -77.023785 
L 430.423139 -78.842985 
L 430.385546 -80.662185 
L 430.339556 -82.481385 
L 430.284412 -84.300585 
L 430.219604 -86.119784 
L 430.14489 -87.938984 
L 430.060304 -89.758184 
L 429.966148 -91.577384 
L 429.862986 -93.396584 
L 429.75162 -95.215783 
L 429.633055 -97.034983 
L 429.508458 -98.854183 
L 429.379076 -100.673383 
L 429.246155 -102.492583 
L 429.110817 -104.311783 
L 428.97395 -106.130982 
L 428.836096 -107.950182 
L 428.697378 -109.769382 
L 428.557478 -111.588582 
L 428.415697 -113.407782 
L 428.271078 -115.226981 
L 428.122613 -117.046181 
L 427.969483 -118.865381 
L 427.811316 -120.684581 
L 427.648401 -122.503781 
L 427.481842 -124.32298 
L 427.313594 -126.14218 
L 427.146393 -127.96138 
L 426.983571 -129.78058 
L 426.828787 -131.59978 
L 426.68572 -133.41898 
L 426.557753 -135.238179 
L 426.447704 -137.057379 
L 426.357625 -138.876579 
L 426.28869 -140.695779 
L 426.241154 -142.514979 
L 426.214398 -144.334178 
L 426.207 -146.153378 
L 426.216841 -147.972578 
L 426.241212 -149.791778 
L 426.276921 -151.610978 
L 426.320399 -153.430177 
L 426.367814 -155.249377 
L 426.415218 -157.068577 
L 426.458717 -158.887777 
L 426.494683 -160.706977 
L 426.519993 -162.526177 
L 426.53228 -164.345376 
L 426.530148 -166.164576 
L 426.51334 -167.983776 
L 426.482806 -169.802976 
L 426.440658 -171.622176 
L 426.389994 -173.441375 
L 426.334613 -175.260575 
L 426.278642 -177.079775 
L 426.226128 -178.898975 
L 426.18064 -180.718175 
L 426.144955 -182.537374 
L 426.12085 -184.356574 
L 426.109051 -186.175774 
L 426.109337 -187.994974 
L 426.120781 -189.814174 
L 426.142097 -191.633374 
L 426.172043 -193.452573 
L 426.209807 -195.271773 
L 426.255322 -197.090973 
L 426.309466 -198.910173 
L 426.374101 -200.729373 
L 426.451939 -202.548572 
L 426.546261 -204.367772 
L 426.660499 -206.186972 
L 426.797764 -208.006172 
L 426.96035 -209.825372 
L 427.149317 -211.644571 
L 427.364179 -213.463771 
L 427.602764 -215.282971 
L 427.86125 -217.102171 
L 428.134396 -218.921371 
L 428.415908 -220.74057 
L 433.133698 -220.74057 
L 433.133698 -220.74057 
L 433.41521 -218.921371 
L 433.688356 -217.102171 
L 433.946843 -215.282971 
L 434.185427 -213.463771 
L 434.400289 -211.644571 
L 434.589256 -209.825372 
L 434.751842 -208.006172 
L 434.889107 -206.186972 
L 435.003345 -204.367772 
L 435.097667 -202.548572 
L 435.175505 -200.729373 
L 435.24014 -198.910173 
L 435.294284 -197.090973 
L 435.339799 -195.271773 
L 435.377563 -193.452573 
L 435.407509 -191.633374 
L 435.428826 -189.814174 
L 435.440269 -187.994974 
L 435.440555 -186.175774 
L 435.428756 -184.356574 
L 435.404651 -182.537374 
L 435.368966 -180.718175 
L 435.323478 -178.898975 
L 435.270964 -177.079775 
L 435.214993 -175.260575 
L 435.159612 -173.441375 
L 435.108948 -171.622176 
L 435.0668 -169.802976 
L 435.036267 -167.983776 
L 435.019458 -166.164576 
L 435.017326 -164.345376 
L 435.029613 -162.526177 
L 435.054924 -160.706977 
L 435.090889 -158.887777 
L 435.134388 -157.068577 
L 435.181792 -155.249377 
L 435.229208 -153.430177 
L 435.272685 -151.610978 
L 435.308394 -149.791778 
L 435.332765 -147.972578 
L 435.342606 -146.153378 
L 435.335208 -144.334178 
L 435.308452 -142.514979 
L 435.260916 -140.695779 
L 435.191981 -138.876579 
L 435.101902 -137.057379 
L 434.991853 -135.238179 
L 434.863886 -133.41898 
L 434.720819 -131.59978 
L 434.566036 -129.78058 
L 434.403213 -127.96138 
L 434.236012 -126.14218 
L 434.067764 -124.32298 
L 433.901205 -122.503781 
L 433.73829 -120.684581 
L 433.580123 -118.865381 
L 433.426993 -117.046181 
L 433.278528 -115.226981 
L 433.133909 -113.407782 
L 432.992128 -111.588582 
L 432.852228 -109.769382 
L 432.71351 -107.950182 
L 432.575656 -106.130982 
L 432.438789 -104.311783 
L 432.303452 -102.492583 
L 432.17053 -100.673383 
L 432.041149 -98.854183 
L 431.916551 -97.034983 
L 431.797986 -95.215783 
L 431.68662 -93.396584 
L 431.583458 -91.577384 
L 431.489302 -89.758184 
L 431.404716 -87.938984 
L 431.330002 -86.119784 
L 431.265194 -84.300585 
L 431.21005 -82.481385 
L 431.16406 -80.662185 
L 431.126467 -78.842985 
L 431.096306 -77.023785 
L 431.072454 -75.204586 
L 431.053701 -73.385386 
L 431.038826 -71.566186 
L 431.026676 -69.746986 
L 431.016237 -67.927786 
L 431.006682 -66.108586 
L 430.997406 -64.289387 
L 430.98803 -62.470187 
L 430.978381 -60.650987 
L 430.968453 -58.831787 
L 430.958357 -57.012587 
L 430.948265 -55.193388 
L 430.938355 -53.374188 
L 430.928771 -51.554988 
L 430.91959 -49.735788 
L 430.910819 -47.916588 
L 430.902393 -46.097389 
L 430.894196 -44.278189 
L 430.886092 -42.458989 
L 430.877947 -40.639789 
z
" style="stroke: #545454; stroke-width: 1.5"/>
    </defs>
    <g clip-path="url(#pd261aada6e)">
     <use xlink:href="#mc9137be1de" x="0" y="255.11811" style="fill: #6acc64; stroke: #545454; stroke-width: 1.5"/>
    </g>
   </g>
   <g id="matplotlib.axis_1">
    <g id="xtick_1">
     <g id="line2d_1">
      <defs>
       <path id="mff5e35f5c1" d="M 0 0 
L 0 3.5 
" style="stroke: #000000; stroke-width: 0.8"/>
      </defs>
      <g>
       <use xlink:href="#mff5e35f5c1" x="82.335117" y="223.754673" style="stroke: #000000; stroke-width: 0.8"/>
      </g>
     </g>
     <g id="text_1">
      <!-- skani -->
      <g transform="translate(74.164805 235.765141)scale(0.07 -0.07)">
       <defs>
        <path id="ArialMT-73" d="M 197 991 
L 753 1078 
Q 800 744 1014 566 
Q 1228 388 1613 388 
Q 2000 388 2187 545 
Q 2375 703 2375 916 
Q 2375 1106 2209 1216 
Q 2094 1291 1634 1406 
Q 1016 1563 777 1677 
Q 538 1791 414 1992 
Q 291 2194 291 2438 
Q 291 2659 392 2848 
Q 494 3038 669 3163 
Q 800 3259 1026 3326 
Q 1253 3394 1513 3394 
Q 1903 3394 2198 3281 
Q 2494 3169 2634 2976 
Q 2775 2784 2828 2463 
L 2278 2388 
Q 2241 2644 2061 2787 
Q 1881 2931 1553 2931 
Q 1166 2931 1000 2803 
Q 834 2675 834 2503 
Q 834 2394 903 2306 
Q 972 2216 1119 2156 
Q 1203 2125 1616 2013 
Q 2213 1853 2448 1751 
Q 2684 1650 2818 1456 
Q 2953 1263 2953 975 
Q 2953 694 2789 445 
Q 2625 197 2315 61 
Q 2006 -75 1616 -75 
Q 969 -75 630 194 
Q 291 463 197 991 
z
" transform="scale(0.015625)"/>
        <path id="ArialMT-6b" d="M 425 0 
L 425 4581 
L 988 4581 
L 988 1969 
L 2319 3319 
L 3047 3319 
L 1778 2088 
L 3175 0 
L 2481 0 
L 1384 1697 
L 988 1316 
L 988 0 
L 425 0 
z
" transform="scale(0.015625)"/>
        <path id="ArialMT-61" d="M 2588 409 
Q 2275 144 1986 34 
Q 1697 -75 1366 -75 
Q 819 -75 525 192 
Q 231 459 231 875 
Q 231 1119 342 1320 
Q 453 1522 633 1644 
Q 813 1766 1038 1828 
Q 1203 1872 1538 1913 
Q 2219 1994 2541 2106 
Q 2544 2222 2544 2253 
Q 2544 2597 2384 2738 
Q 2169 2928 1744 2928 
Q 1347 2928 1158 2789 
Q 969 2650 878 2297 
L 328 2372 
Q 403 2725 575 2942 
Q 747 3159 1072 3276 
Q 1397 3394 1825 3394 
Q 2250 3394 2515 3294 
Q 2781 3194 2906 3042 
Q 3031 2891 3081 2659 
Q 3109 2516 3109 2141 
L 3109 1391 
Q 3109 606 3145 398 
Q 3181 191 3288 0 
L 2700 0 
Q 2613 175 2588 409 
z
M 2541 1666 
Q 2234 1541 1622 1453 
Q 1275 1403 1131 1340 
Q 988 1278 909 1158 
Q 831 1038 831 891 
Q 831 666 1001 516 
Q 1172 366 1500 366 
Q 1825 366 2078 508 
Q 2331 650 2450 897 
Q 2541 1088 2541 1459 
L 2541 1666 
z
" transform="scale(0.015625)"/>
        <path id="ArialMT-6e" d="M 422 0 
L 422 3319 
L 928 3319 
L 928 2847 
Q 1294 3394 1984 3394 
Q 2284 3394 2536 3286 
Q 2788 3178 2913 3003 
Q 3038 2828 3088 2588 
Q 3119 2431 3119 2041 
L 3119 0 
L 2556 0 
L 2556 2019 
Q 2556 2363 2490 2533 
Q 2425 2703 2258 2804 
Q 2091 2906 1866 2906 
Q 1506 2906 1245 2678 
Q 984 2450 984 1813 
L 984 0 
L 422 0 
z
" transform="scale(0.015625)"/>
        <path id="ArialMT-69" d="M 425 3934 
L 425 4581 
L 988 4581 
L 988 3934 
L 425 3934 
z
M 425 0 
L 425 3319 
L 988 3319 
L 988 0 
L 425 0 
z
" transform="scale(0.015625)"/>
       </defs>
       <use xlink:href="#ArialMT-73"/>
       <use xlink:href="#ArialMT-6b" x="50"/>
       <use xlink:href="#ArialMT-61" x="100"/>
       <use xlink:href="#ArialMT-6e" x="155.615234"/>
       <use xlink:href="#ArialMT-69" x="211.230469"/>
      </g>
     </g>
    </g>
    <g id="xtick_2">
     <g id="line2d_2">
      <g>
       <use xlink:href="#mff5e35f5c1" x="169.445039" y="223.754673" style="stroke: #000000; stroke-width: 0.8"/>
      </g>
     </g>
     <g id="text_2">
      <!-- sourmash max-contain -->
      <g transform="translate(134.044179 235.765141)scale(0.07 -0.07)">
       <defs>
        <path id="ArialMT-6f" d="M 213 1659 
Q 213 2581 725 3025 
Q 1153 3394 1769 3394 
Q 2453 3394 2887 2945 
Q 3322 2497 3322 1706 
Q 3322 1066 3130 698 
Q 2938 331 2570 128 
Q 2203 -75 1769 -75 
Q 1072 -75 642 372 
Q 213 819 213 1659 
z
M 791 1659 
Q 791 1022 1069 705 
Q 1347 388 1769 388 
Q 2188 388 2466 706 
Q 2744 1025 2744 1678 
Q 2744 2294 2464 2611 
Q 2184 2928 1769 2928 
Q 1347 2928 1069 2612 
Q 791 2297 791 1659 
z
" transform="scale(0.015625)"/>
        <path id="ArialMT-75" d="M 2597 0 
L 2597 488 
Q 2209 -75 1544 -75 
Q 1250 -75 995 37 
Q 741 150 617 320 
Q 494 491 444 738 
Q 409 903 409 1263 
L 409 3319 
L 972 3319 
L 972 1478 
Q 972 1038 1006 884 
Q 1059 663 1231 536 
Q 1403 409 1656 409 
Q 1909 409 2131 539 
Q 2353 669 2445 892 
Q 2538 1116 2538 1541 
L 2538 3319 
L 3100 3319 
L 3100 0 
L 2597 0 
z
" transform="scale(0.015625)"/>
        <path id="ArialMT-72" d="M 416 0 
L 416 3319 
L 922 3319 
L 922 2816 
Q 1116 3169 1280 3281 
Q 1444 3394 1641 3394 
Q 1925 3394 2219 3213 
L 2025 2691 
Q 1819 2813 1613 2813 
Q 1428 2813 1281 2702 
Q 1134 2591 1072 2394 
Q 978 2094 978 1738 
L 978 0 
L 416 0 
z
" transform="scale(0.015625)"/>
        <path id="ArialMT-6d" d="M 422 0 
L 422 3319 
L 925 3319 
L 925 2853 
Q 1081 3097 1340 3245 
Q 1600 3394 1931 3394 
Q 2300 3394 2536 3241 
Q 2772 3088 2869 2813 
Q 3263 3394 3894 3394 
Q 4388 3394 4653 3120 
Q 4919 2847 4919 2278 
L 4919 0 
L 4359 0 
L 4359 2091 
Q 4359 2428 4304 2576 
Q 4250 2725 4106 2815 
Q 3963 2906 3769 2906 
Q 3419 2906 3187 2673 
Q 2956 2441 2956 1928 
L 2956 0 
L 2394 0 
L 2394 2156 
Q 2394 2531 2256 2718 
Q 2119 2906 1806 2906 
Q 1569 2906 1367 2781 
Q 1166 2656 1075 2415 
Q 984 2175 984 1722 
L 984 0 
L 422 0 
z
" transform="scale(0.015625)"/>
        <path id="ArialMT-68" d="M 422 0 
L 422 4581 
L 984 4581 
L 984 2938 
Q 1378 3394 1978 3394 
Q 2347 3394 2619 3248 
Q 2891 3103 3008 2847 
Q 3125 2591 3125 2103 
L 3125 0 
L 2563 0 
L 2563 2103 
Q 2563 2525 2380 2717 
Q 2197 2909 1863 2909 
Q 1613 2909 1392 2779 
Q 1172 2650 1078 2428 
Q 984 2206 984 1816 
L 984 0 
L 422 0 
z
" transform="scale(0.015625)"/>
        <path id="ArialMT-20" transform="scale(0.015625)"/>
        <path id="ArialMT-78" d="M 47 0 
L 1259 1725 
L 138 3319 
L 841 3319 
L 1350 2541 
Q 1494 2319 1581 2169 
Q 1719 2375 1834 2534 
L 2394 3319 
L 3066 3319 
L 1919 1756 
L 3153 0 
L 2463 0 
L 1781 1031 
L 1600 1309 
L 728 0 
L 47 0 
z
" transform="scale(0.015625)"/>
        <path id="ArialMT-2d" d="M 203 1375 
L 203 1941 
L 1931 1941 
L 1931 1375 
L 203 1375 
z
" transform="scale(0.015625)"/>
        <path id="ArialMT-63" d="M 2588 1216 
L 3141 1144 
Q 3050 572 2676 248 
Q 2303 -75 1759 -75 
Q 1078 -75 664 370 
Q 250 816 250 1647 
Q 250 2184 428 2587 
Q 606 2991 970 3192 
Q 1334 3394 1763 3394 
Q 2303 3394 2647 3120 
Q 2991 2847 3088 2344 
L 2541 2259 
Q 2463 2594 2264 2762 
Q 2066 2931 1784 2931 
Q 1359 2931 1093 2626 
Q 828 2322 828 1663 
Q 828 994 1084 691 
Q 1341 388 1753 388 
Q 2084 388 2306 591 
Q 2528 794 2588 1216 
z
" transform="scale(0.015625)"/>
        <path id="ArialMT-74" d="M 1650 503 
L 1731 6 
Q 1494 -44 1306 -44 
Q 1000 -44 831 53 
Q 663 150 594 308 
Q 525 466 525 972 
L 525 2881 
L 113 2881 
L 113 3319 
L 525 3319 
L 525 4141 
L 1084 4478 
L 1084 3319 
L 1650 3319 
L 1650 2881 
L 1084 2881 
L 1084 941 
Q 1084 700 1114 631 
Q 1144 563 1211 522 
Q 1278 481 1403 481 
Q 1497 481 1650 503 
z
" transform="scale(0.015625)"/>
       </defs>
       <use xlink:href="#ArialMT-73"/>
       <use xlink:href="#ArialMT-6f" x="50"/>
       <use xlink:href="#ArialMT-75" x="105.615234"/>
       <use xlink:href="#ArialMT-72" x="161.230469"/>
       <use xlink:href="#ArialMT-6d" x="194.53125"/>
       <use xlink:href="#ArialMT-61" x="277.832031"/>
       <use xlink:href="#ArialMT-73" x="333.447266"/>
       <use xlink:href="#ArialMT-68" x="383.447266"/>
       <use xlink:href="#ArialMT-20" x="439.0625"/>
       <use xlink:href="#ArialMT-6d" x="466.845703"/>
       <use xlink:href="#ArialMT-61" x="550.146484"/>
       <use xlink:href="#ArialMT-78" x="605.761719"/>
       <use xlink:href="#ArialMT-2d" x="655.761719"/>
       <use xlink:href="#ArialMT-63" x="689.0625"/>
       <use xlink:href="#ArialMT-6f" x="739.0625"/>
       <use xlink:href="#ArialMT-6e" x="794.677734"/>
       <use xlink:href="#ArialMT-74" x="850.292969"/>
       <use xlink:href="#ArialMT-61" x="878.076172"/>
       <use xlink:href="#ArialMT-69" x="933.691406"/>
       <use xlink:href="#ArialMT-6e" x="955.908203"/>
      </g>
     </g>
    </g>
    <g id="xtick_3">
     <g id="line2d_3">
      <g>
       <use xlink:href="#mff5e35f5c1" x="256.55496" y="223.754673" style="stroke: #000000; stroke-width: 0.8"/>
      </g>
     </g>
     <g id="text_3">
      <!-- sourmash -->
      <g transform="translate(241.188866 235.765141)scale(0.07 -0.07)">
       <use xlink:href="#ArialMT-73"/>
       <use xlink:href="#ArialMT-6f" x="50"/>
       <use xlink:href="#ArialMT-75" x="105.615234"/>
       <use xlink:href="#ArialMT-72" x="161.230469"/>
       <use xlink:href="#ArialMT-6d" x="194.53125"/>
       <use xlink:href="#ArialMT-61" x="277.832031"/>
       <use xlink:href="#ArialMT-73" x="333.447266"/>
       <use xlink:href="#ArialMT-68" x="383.447266"/>
      </g>
     </g>
    </g>
    <g id="xtick_4">
     <g id="line2d_4">
      <g>
       <use xlink:href="#mff5e35f5c1" x="343.664882" y="223.754673" style="stroke: #000000; stroke-width: 0.8"/>
      </g>
     </g>
     <g id="text_4">
      <!-- FastANI -->
      <g transform="translate(331.023866 235.765141)scale(0.07 -0.07)">
       <defs>
        <path id="ArialMT-46" d="M 525 0 
L 525 4581 
L 3616 4581 
L 3616 4041 
L 1131 4041 
L 1131 2622 
L 3281 2622 
L 3281 2081 
L 1131 2081 
L 1131 0 
L 525 0 
z
" transform="scale(0.015625)"/>
        <path id="ArialMT-41" d="M -9 0 
L 1750 4581 
L 2403 4581 
L 4278 0 
L 3588 0 
L 3053 1388 
L 1138 1388 
L 634 0 
L -9 0 
z
M 1313 1881 
L 2866 1881 
L 2388 3150 
Q 2169 3728 2063 4100 
Q 1975 3659 1816 3225 
L 1313 1881 
z
" transform="scale(0.015625)"/>
        <path id="ArialMT-4e" d="M 488 0 
L 488 4581 
L 1109 4581 
L 3516 984 
L 3516 4581 
L 4097 4581 
L 4097 0 
L 3475 0 
L 1069 3600 
L 1069 0 
L 488 0 
z
" transform="scale(0.015625)"/>
        <path id="ArialMT-49" d="M 597 0 
L 597 4581 
L 1203 4581 
L 1203 0 
L 597 0 
z
" transform="scale(0.015625)"/>
       </defs>
       <use xlink:href="#ArialMT-46"/>
       <use xlink:href="#ArialMT-61" x="61.083984"/>
       <use xlink:href="#ArialMT-73" x="116.699219"/>
       <use xlink:href="#ArialMT-74" x="166.699219"/>
       <use xlink:href="#ArialMT-41" x="194.482422"/>
       <use xlink:href="#ArialMT-4e" x="261.181641"/>
       <use xlink:href="#ArialMT-49" x="333.398438"/>
      </g>
     </g>
    </g>
    <g id="xtick_5">
     <g id="line2d_5">
      <g>
       <use xlink:href="#mff5e35f5c1" x="430.774803" y="223.754673" style="stroke: #000000; stroke-width: 0.8"/>
      </g>
     </g>
     <g id="text_5">
      <!-- Mash -->
      <g transform="translate(422.216756 235.765141)scale(0.07 -0.07)">
       <defs>
        <path id="ArialMT-4d" d="M 475 0 
L 475 4581 
L 1388 4581 
L 2472 1338 
Q 2622 884 2691 659 
Q 2769 909 2934 1394 
L 4031 4581 
L 4847 4581 
L 4847 0 
L 4263 0 
L 4263 3834 
L 2931 0 
L 2384 0 
L 1059 3900 
L 1059 0 
L 475 0 
z
" transform="scale(0.015625)"/>
       </defs>
       <use xlink:href="#ArialMT-4d"/>
       <use xlink:href="#ArialMT-61" x="83.300781"/>
       <use xlink:href="#ArialMT-73" x="138.916016"/>
       <use xlink:href="#ArialMT-68" x="188.916016"/>
      </g>
     </g>
    </g>
    <g id="text_6">
     <!-- Method -->
     <g transform="translate(244.881913 246.16686)scale(0.07 -0.07)">
      <defs>
       <path id="ArialMT-65" d="M 2694 1069 
L 3275 997 
Q 3138 488 2766 206 
Q 2394 -75 1816 -75 
Q 1088 -75 661 373 
Q 234 822 234 1631 
Q 234 2469 665 2931 
Q 1097 3394 1784 3394 
Q 2450 3394 2872 2941 
Q 3294 2488 3294 1666 
Q 3294 1616 3291 1516 
L 816 1516 
Q 847 969 1125 678 
Q 1403 388 1819 388 
Q 2128 388 2347 550 
Q 2566 713 2694 1069 
z
M 847 1978 
L 2700 1978 
Q 2663 2397 2488 2606 
Q 2219 2931 1791 2931 
Q 1403 2931 1139 2672 
Q 875 2413 847 1978 
z
" transform="scale(0.015625)"/>
       <path id="ArialMT-64" d="M 2575 0 
L 2575 419 
Q 2259 -75 1647 -75 
Q 1250 -75 917 144 
Q 584 363 401 755 
Q 219 1147 219 1656 
Q 219 2153 384 2558 
Q 550 2963 881 3178 
Q 1213 3394 1622 3394 
Q 1922 3394 2156 3267 
Q 2391 3141 2538 2938 
L 2538 4581 
L 3097 4581 
L 3097 0 
L 2575 0 
z
M 797 1656 
Q 797 1019 1065 703 
Q 1334 388 1700 388 
Q 2069 388 2326 689 
Q 2584 991 2584 1609 
Q 2584 2291 2321 2609 
Q 2059 2928 1675 2928 
Q 1300 2928 1048 2622 
Q 797 2316 797 1656 
z
" transform="scale(0.015625)"/>
      </defs>
      <use xlink:href="#ArialMT-4d"/>
      <use xlink:href="#ArialMT-65" x="83.300781"/>
      <use xlink:href="#ArialMT-74" x="138.916016"/>
      <use xlink:href="#ArialMT-68" x="166.699219"/>
      <use xlink:href="#ArialMT-6f" x="222.314453"/>
      <use xlink:href="#ArialMT-64" x="277.929688"/>
     </g>
    </g>
   </g>
   <g id="matplotlib.axis_2">
    <g id="ytick_1">
     <g id="line2d_6">
      <defs>
       <path id="m64f20bf9e3" d="M 0 0 
L -3.5 0 
" style="stroke: #000000; stroke-width: 0.8"/>
      </defs>
      <g>
       <use xlink:href="#m64f20bf9e3" x="38.780156" y="202.99927" style="stroke: #000000; stroke-width: 0.8"/>
      </g>
     </g>
     <g id="text_7">
      <!-- −1.2 -->
      <g transform="translate(17.961719 205.504504)scale(0.07 -0.07)">
       <defs>
        <path id="ArialMT-2212" d="M 3381 1997 
L 356 1997 
L 356 2522 
L 3381 2522 
L 3381 1997 
z
" transform="scale(0.015625)"/>
        <path id="ArialMT-31" d="M 2384 0 
L 1822 0 
L 1822 3584 
Q 1619 3391 1289 3197 
Q 959 3003 697 2906 
L 697 3450 
Q 1169 3672 1522 3987 
Q 1875 4303 2022 4600 
L 2384 4600 
L 2384 0 
z
" transform="scale(0.015625)"/>
        <path id="ArialMT-2e" d="M 581 0 
L 581 641 
L 1222 641 
L 1222 0 
L 581 0 
z
" transform="scale(0.015625)"/>
        <path id="ArialMT-32" d="M 3222 541 
L 3222 0 
L 194 0 
Q 188 203 259 391 
Q 375 700 629 1000 
Q 884 1300 1366 1694 
Q 2113 2306 2375 2664 
Q 2638 3022 2638 3341 
Q 2638 3675 2398 3904 
Q 2159 4134 1775 4134 
Q 1369 4134 1125 3890 
Q 881 3647 878 3216 
L 300 3275 
Q 359 3922 746 4261 
Q 1134 4600 1788 4600 
Q 2447 4600 2831 4234 
Q 3216 3869 3216 3328 
Q 3216 3053 3103 2787 
Q 2991 2522 2730 2228 
Q 2469 1934 1863 1422 
Q 1356 997 1212 845 
Q 1069 694 975 541 
L 3222 541 
z
" transform="scale(0.015625)"/>
       </defs>
       <use xlink:href="#ArialMT-2212"/>
       <use xlink:href="#ArialMT-31" x="58.398438"/>
       <use xlink:href="#ArialMT-2e" x="114.013672"/>
       <use xlink:href="#ArialMT-32" x="141.796875"/>
      </g>
     </g>
    </g>
    <g id="ytick_2">
     <g id="line2d_7">
      <g>
       <use xlink:href="#m64f20bf9e3" x="38.780156" y="174.389279" style="stroke: #000000; stroke-width: 0.8"/>
      </g>
     </g>
     <g id="text_8">
      <!-- −1.0 -->
      <g transform="translate(17.961719 176.894514)scale(0.07 -0.07)">
       <defs>
        <path id="ArialMT-30" d="M 266 2259 
Q 266 3072 433 3567 
Q 600 4063 929 4331 
Q 1259 4600 1759 4600 
Q 2128 4600 2406 4451 
Q 2684 4303 2865 4023 
Q 3047 3744 3150 3342 
Q 3253 2941 3253 2259 
Q 3253 1453 3087 958 
Q 2922 463 2592 192 
Q 2263 -78 1759 -78 
Q 1097 -78 719 397 
Q 266 969 266 2259 
z
M 844 2259 
Q 844 1131 1108 757 
Q 1372 384 1759 384 
Q 2147 384 2411 759 
Q 2675 1134 2675 2259 
Q 2675 3391 2411 3762 
Q 2147 4134 1753 4134 
Q 1366 4134 1134 3806 
Q 844 3388 844 2259 
z
" transform="scale(0.015625)"/>
       </defs>
       <use xlink:href="#ArialMT-2212"/>
       <use xlink:href="#ArialMT-31" x="58.398438"/>
       <use xlink:href="#ArialMT-2e" x="114.013672"/>
       <use xlink:href="#ArialMT-30" x="141.796875"/>
      </g>
     </g>
    </g>
    <g id="ytick_3">
     <g id="line2d_8">
      <g>
       <use xlink:href="#m64f20bf9e3" x="38.780156" y="145.779288" style="stroke: #000000; stroke-width: 0.8"/>
      </g>
     </g>
     <g id="text_9">
      <!-- −0.8 -->
      <g transform="translate(17.961719 148.284523)scale(0.07 -0.07)">
       <defs>
        <path id="ArialMT-38" d="M 1131 2484 
Q 781 2613 612 2850 
Q 444 3088 444 3419 
Q 444 3919 803 4259 
Q 1163 4600 1759 4600 
Q 2359 4600 2725 4251 
Q 3091 3903 3091 3403 
Q 3091 3084 2923 2848 
Q 2756 2613 2416 2484 
Q 2838 2347 3058 2040 
Q 3278 1734 3278 1309 
Q 3278 722 2862 322 
Q 2447 -78 1769 -78 
Q 1091 -78 675 323 
Q 259 725 259 1325 
Q 259 1772 486 2073 
Q 713 2375 1131 2484 
z
M 1019 3438 
Q 1019 3113 1228 2906 
Q 1438 2700 1772 2700 
Q 2097 2700 2305 2904 
Q 2513 3109 2513 3406 
Q 2513 3716 2298 3927 
Q 2084 4138 1766 4138 
Q 1444 4138 1231 3931 
Q 1019 3725 1019 3438 
z
M 838 1322 
Q 838 1081 952 856 
Q 1066 631 1291 507 
Q 1516 384 1775 384 
Q 2178 384 2440 643 
Q 2703 903 2703 1303 
Q 2703 1709 2433 1975 
Q 2163 2241 1756 2241 
Q 1359 2241 1098 1978 
Q 838 1716 838 1322 
z
" transform="scale(0.015625)"/>
       </defs>
       <use xlink:href="#ArialMT-2212"/>
       <use xlink:href="#ArialMT-30" x="58.398438"/>
       <use xlink:href="#ArialMT-2e" x="114.013672"/>
       <use xlink:href="#ArialMT-38" x="141.796875"/>
      </g>
     </g>
    </g>
    <g id="ytick_4">
     <g id="line2d_9">
      <g>
       <use xlink:href="#m64f20bf9e3" x="38.780156" y="117.169298" style="stroke: #000000; stroke-width: 0.8"/>
      </g>
     </g>
     <g id="text_10">
      <!-- −0.6 -->
      <g transform="translate(17.961719 119.674532)scale(0.07 -0.07)">
       <defs>
        <path id="ArialMT-36" d="M 3184 3459 
L 2625 3416 
Q 2550 3747 2413 3897 
Q 2184 4138 1850 4138 
Q 1581 4138 1378 3988 
Q 1113 3794 959 3422 
Q 806 3050 800 2363 
Q 1003 2672 1297 2822 
Q 1591 2972 1913 2972 
Q 2475 2972 2870 2558 
Q 3266 2144 3266 1488 
Q 3266 1056 3080 686 
Q 2894 316 2569 119 
Q 2244 -78 1831 -78 
Q 1128 -78 684 439 
Q 241 956 241 2144 
Q 241 3472 731 4075 
Q 1159 4600 1884 4600 
Q 2425 4600 2770 4297 
Q 3116 3994 3184 3459 
z
M 888 1484 
Q 888 1194 1011 928 
Q 1134 663 1356 523 
Q 1578 384 1822 384 
Q 2178 384 2434 671 
Q 2691 959 2691 1453 
Q 2691 1928 2437 2201 
Q 2184 2475 1800 2475 
Q 1419 2475 1153 2201 
Q 888 1928 888 1484 
z
" transform="scale(0.015625)"/>
       </defs>
       <use xlink:href="#ArialMT-2212"/>
       <use xlink:href="#ArialMT-30" x="58.398438"/>
       <use xlink:href="#ArialMT-2e" x="114.013672"/>
       <use xlink:href="#ArialMT-36" x="141.796875"/>
      </g>
     </g>
    </g>
    <g id="ytick_5">
     <g id="line2d_10">
      <g>
       <use xlink:href="#m64f20bf9e3" x="38.780156" y="88.559307" style="stroke: #000000; stroke-width: 0.8"/>
      </g>
     </g>
     <g id="text_11">
      <!-- −0.4 -->
      <g transform="translate(17.961719 91.064541)scale(0.07 -0.07)">
       <defs>
        <path id="ArialMT-34" d="M 2069 0 
L 2069 1097 
L 81 1097 
L 81 1613 
L 2172 4581 
L 2631 4581 
L 2631 1613 
L 3250 1613 
L 3250 1097 
L 2631 1097 
L 2631 0 
L 2069 0 
z
M 2069 1613 
L 2069 3678 
L 634 1613 
L 2069 1613 
z
" transform="scale(0.015625)"/>
       </defs>
       <use xlink:href="#ArialMT-2212"/>
       <use xlink:href="#ArialMT-30" x="58.398438"/>
       <use xlink:href="#ArialMT-2e" x="114.013672"/>
       <use xlink:href="#ArialMT-34" x="141.796875"/>
      </g>
     </g>
    </g>
    <g id="ytick_6">
     <g id="line2d_11">
      <g>
       <use xlink:href="#m64f20bf9e3" x="38.780156" y="59.949316" style="stroke: #000000; stroke-width: 0.8"/>
      </g>
     </g>
     <g id="text_12">
      <!-- −0.2 -->
      <g transform="translate(17.961719 62.45455)scale(0.07 -0.07)">
       <use xlink:href="#ArialMT-2212"/>
       <use xlink:href="#ArialMT-30" x="58.398438"/>
       <use xlink:href="#ArialMT-2e" x="114.013672"/>
       <use xlink:href="#ArialMT-32" x="141.796875"/>
      </g>
     </g>
    </g>
    <g id="ytick_7">
     <g id="line2d_12">
      <g>
       <use xlink:href="#m64f20bf9e3" x="38.780156" y="31.339325" style="stroke: #000000; stroke-width: 0.8"/>
      </g>
     </g>
     <g id="text_13">
      <!-- 0.0 -->
      <g transform="translate(22.050156 33.844559)scale(0.07 -0.07)">
       <use xlink:href="#ArialMT-30"/>
       <use xlink:href="#ArialMT-2e" x="55.615234"/>
       <use xlink:href="#ArialMT-30" x="83.398438"/>
      </g>
     </g>
    </g>
    <g id="text_14">
     <!-- Method correlation - ANIm correlation -->
     <g transform="translate(12.570469 179.680274)rotate(-90)scale(0.07 -0.07)">
      <defs>
       <path id="ArialMT-6c" d="M 409 0 
L 409 4581 
L 972 4581 
L 972 0 
L 409 0 
z
" transform="scale(0.015625)"/>
      </defs>
      <use xlink:href="#ArialMT-4d"/>
      <use xlink:href="#ArialMT-65" x="83.300781"/>
      <use xlink:href="#ArialMT-74" x="138.916016"/>
      <use xlink:href="#ArialMT-68" x="166.699219"/>
      <use xlink:href="#ArialMT-6f" x="222.314453"/>
      <use xlink:href="#ArialMT-64" x="277.929688"/>
      <use xlink:href="#ArialMT-20" x="333.544922"/>
      <use xlink:href="#ArialMT-63" x="361.328125"/>
      <use xlink:href="#ArialMT-6f" x="411.328125"/>
      <use xlink:href="#ArialMT-72" x="466.943359"/>
      <use xlink:href="#ArialMT-72" x="500.244141"/>
      <use xlink:href="#ArialMT-65" x="533.544922"/>
      <use xlink:href="#ArialMT-6c" x="589.160156"/>
      <use xlink:href="#ArialMT-61" x="611.376953"/>
      <use xlink:href="#ArialMT-74" x="666.992188"/>
      <use xlink:href="#ArialMT-69" x="694.775391"/>
      <use xlink:href="#ArialMT-6f" x="716.992188"/>
      <use xlink:href="#ArialMT-6e" x="772.607422"/>
      <use xlink:href="#ArialMT-20" x="828.222656"/>
      <use xlink:href="#ArialMT-2d" x="856.005859"/>
      <use xlink:href="#ArialMT-20" x="889.306641"/>
      <use xlink:href="#ArialMT-41" x="911.589844"/>
      <use xlink:href="#ArialMT-4e" x="978.289062"/>
      <use xlink:href="#ArialMT-49" x="1050.505859"/>
      <use xlink:href="#ArialMT-6d" x="1078.289062"/>
      <use xlink:href="#ArialMT-20" x="1161.589844"/>
      <use xlink:href="#ArialMT-63" x="1189.373047"/>
      <use xlink:href="#ArialMT-6f" x="1239.373047"/>
      <use xlink:href="#ArialMT-72" x="1294.988281"/>
      <use xlink:href="#ArialMT-72" x="1328.289062"/>
      <use xlink:href="#ArialMT-65" x="1361.589844"/>
      <use xlink:href="#ArialMT-6c" x="1417.205078"/>
      <use xlink:href="#ArialMT-61" x="1439.421875"/>
      <use xlink:href="#ArialMT-74" x="1495.037109"/>
      <use xlink:href="#ArialMT-69" x="1522.820312"/>
      <use xlink:href="#ArialMT-6f" x="1545.037109"/>
      <use xlink:href="#ArialMT-6e" x="1600.652344"/>
     </g>
    </g>
   </g>
   <g id="patch_3">
    <path d="M 38.780156 223.754673 
L 38.780156 19.674937 
" style="fill: none; stroke: #000000; stroke-width: 0.8; stroke-linejoin: miter; stroke-linecap: square"/>
   </g>
   <g id="patch_4">
    <path d="M 474.329764 223.754673 
L 474.329764 19.674937 
" style="fill: none; stroke: #000000; stroke-width: 0.8; stroke-linejoin: miter; stroke-linecap: square"/>
   </g>
   <g id="patch_5">
    <path d="M 38.780156 223.754673 
L 474.329764 223.754673 
" style="fill: none; stroke: #000000; stroke-width: 0.8; stroke-linejoin: miter; stroke-linecap: square"/>
   </g>
   <g id="patch_6">
    <path d="M 38.780156 19.674937 
L 474.329764 19.674937 
" style="fill: none; stroke: #000000; stroke-width: 0.8; stroke-linejoin: miter; stroke-linecap: square"/>
   </g>
   <g id="text_15">
    <!-- Distribution of deviation from baseline (ANIm) cophenetic correlation (n = 238) -->
    <g transform="translate(111.711398 13.674937)scale(0.084 -0.084)">
     <defs>
      <path id="ArialMT-44" d="M 494 0 
L 494 4581 
L 2072 4581 
Q 2606 4581 2888 4516 
Q 3281 4425 3559 4188 
Q 3922 3881 4101 3404 
Q 4281 2928 4281 2316 
Q 4281 1794 4159 1391 
Q 4038 988 3847 723 
Q 3656 459 3429 307 
Q 3203 156 2883 78 
Q 2563 0 2147 0 
L 494 0 
z
M 1100 541 
L 2078 541 
Q 2531 541 2789 625 
Q 3047 709 3200 863 
Q 3416 1078 3536 1442 
Q 3656 1806 3656 2325 
Q 3656 3044 3420 3430 
Q 3184 3816 2847 3947 
Q 2603 4041 2063 4041 
L 1100 4041 
L 1100 541 
z
" transform="scale(0.015625)"/>
      <path id="ArialMT-62" d="M 941 0 
L 419 0 
L 419 4581 
L 981 4581 
L 981 2947 
Q 1338 3394 1891 3394 
Q 2197 3394 2470 3270 
Q 2744 3147 2920 2923 
Q 3097 2700 3197 2384 
Q 3297 2069 3297 1709 
Q 3297 856 2875 390 
Q 2453 -75 1863 -75 
Q 1275 -75 941 416 
L 941 0 
z
M 934 1684 
Q 934 1088 1097 822 
Q 1363 388 1816 388 
Q 2184 388 2453 708 
Q 2722 1028 2722 1663 
Q 2722 2313 2464 2622 
Q 2206 2931 1841 2931 
Q 1472 2931 1203 2611 
Q 934 2291 934 1684 
z
" transform="scale(0.015625)"/>
      <path id="ArialMT-66" d="M 556 0 
L 556 2881 
L 59 2881 
L 59 3319 
L 556 3319 
L 556 3672 
Q 556 4006 616 4169 
Q 697 4388 901 4523 
Q 1106 4659 1475 4659 
Q 1713 4659 2000 4603 
L 1916 4113 
Q 1741 4144 1584 4144 
Q 1328 4144 1222 4034 
Q 1116 3925 1116 3625 
L 1116 3319 
L 1763 3319 
L 1763 2881 
L 1116 2881 
L 1116 0 
L 556 0 
z
" transform="scale(0.015625)"/>
      <path id="ArialMT-76" d="M 1344 0 
L 81 3319 
L 675 3319 
L 1388 1331 
Q 1503 1009 1600 663 
Q 1675 925 1809 1294 
L 2547 3319 
L 3125 3319 
L 1869 0 
L 1344 0 
z
" transform="scale(0.015625)"/>
      <path id="ArialMT-28" d="M 1497 -1347 
Q 1031 -759 709 28 
Q 388 816 388 1659 
Q 388 2403 628 3084 
Q 909 3875 1497 4659 
L 1900 4659 
Q 1522 4009 1400 3731 
Q 1209 3300 1100 2831 
Q 966 2247 966 1656 
Q 966 153 1900 -1347 
L 1497 -1347 
z
" transform="scale(0.015625)"/>
      <path id="ArialMT-29" d="M 791 -1347 
L 388 -1347 
Q 1322 153 1322 1656 
Q 1322 2244 1188 2822 
Q 1081 3291 891 3722 
Q 769 4003 388 4659 
L 791 4659 
Q 1378 3875 1659 3084 
Q 1900 2403 1900 1659 
Q 1900 816 1576 28 
Q 1253 -759 791 -1347 
z
" transform="scale(0.015625)"/>
      <path id="ArialMT-70" d="M 422 -1272 
L 422 3319 
L 934 3319 
L 934 2888 
Q 1116 3141 1344 3267 
Q 1572 3394 1897 3394 
Q 2322 3394 2647 3175 
Q 2972 2956 3137 2557 
Q 3303 2159 3303 1684 
Q 3303 1175 3120 767 
Q 2938 359 2589 142 
Q 2241 -75 1856 -75 
Q 1575 -75 1351 44 
Q 1128 163 984 344 
L 984 -1272 
L 422 -1272 
z
M 931 1641 
Q 931 1000 1190 694 
Q 1450 388 1819 388 
Q 2194 388 2461 705 
Q 2728 1022 2728 1688 
Q 2728 2322 2467 2637 
Q 2206 2953 1844 2953 
Q 1484 2953 1207 2617 
Q 931 2281 931 1641 
z
" transform="scale(0.015625)"/>
      <path id="ArialMT-3d" d="M 3381 2694 
L 356 2694 
L 356 3219 
L 3381 3219 
L 3381 2694 
z
M 3381 1303 
L 356 1303 
L 356 1828 
L 3381 1828 
L 3381 1303 
z
" transform="scale(0.015625)"/>
      <path id="ArialMT-33" d="M 269 1209 
L 831 1284 
Q 928 806 1161 595 
Q 1394 384 1728 384 
Q 2125 384 2398 659 
Q 2672 934 2672 1341 
Q 2672 1728 2419 1979 
Q 2166 2231 1775 2231 
Q 1616 2231 1378 2169 
L 1441 2663 
Q 1497 2656 1531 2656 
Q 1891 2656 2178 2843 
Q 2466 3031 2466 3422 
Q 2466 3731 2256 3934 
Q 2047 4138 1716 4138 
Q 1388 4138 1169 3931 
Q 950 3725 888 3313 
L 325 3413 
Q 428 3978 793 4289 
Q 1159 4600 1703 4600 
Q 2078 4600 2393 4439 
Q 2709 4278 2876 4000 
Q 3044 3722 3044 3409 
Q 3044 3113 2884 2869 
Q 2725 2625 2413 2481 
Q 2819 2388 3044 2092 
Q 3269 1797 3269 1353 
Q 3269 753 2831 336 
Q 2394 -81 1725 -81 
Q 1122 -81 723 278 
Q 325 638 269 1209 
z
" transform="scale(0.015625)"/>
     </defs>
     <use xlink:href="#ArialMT-44"/>
     <use xlink:href="#ArialMT-69" x="72.216797"/>
     <use xlink:href="#ArialMT-73" x="94.433594"/>
     <use xlink:href="#ArialMT-74" x="144.433594"/>
     <use xlink:href="#ArialMT-72" x="172.216797"/>
     <use xlink:href="#ArialMT-69" x="205.517578"/>
     <use xlink:href="#ArialMT-62" x="227.734375"/>
     <use xlink:href="#ArialMT-75" x="283.349609"/>
     <use xlink:href="#ArialMT-74" x="338.964844"/>
     <use xlink:href="#ArialMT-69" x="366.748047"/>
     <use xlink:href="#ArialMT-6f" x="388.964844"/>
     <use xlink:href="#ArialMT-6e" x="444.580078"/>
     <use xlink:href="#ArialMT-20" x="500.195312"/>
     <use xlink:href="#ArialMT-6f" x="527.978516"/>
     <use xlink:href="#ArialMT-66" x="583.59375"/>
     <use xlink:href="#ArialMT-20" x="611.376953"/>
     <use xlink:href="#ArialMT-64" x="639.160156"/>
     <use xlink:href="#ArialMT-65" x="694.775391"/>
     <use xlink:href="#ArialMT-76" x="750.390625"/>
     <use xlink:href="#ArialMT-69" x="800.390625"/>
     <use xlink:href="#ArialMT-61" x="822.607422"/>
     <use xlink:href="#ArialMT-74" x="878.222656"/>
     <use xlink:href="#ArialMT-69" x="906.005859"/>
     <use xlink:href="#ArialMT-6f" x="928.222656"/>
     <use xlink:href="#ArialMT-6e" x="983.837891"/>
     <use xlink:href="#ArialMT-20" x="1039.453125"/>
     <use xlink:href="#ArialMT-66" x="1067.236328"/>
     <use xlink:href="#ArialMT-72" x="1095.019531"/>
     <use xlink:href="#ArialMT-6f" x="1128.320312"/>
     <use xlink:href="#ArialMT-6d" x="1183.935547"/>
     <use xlink:href="#ArialMT-20" x="1267.236328"/>
     <use xlink:href="#ArialMT-62" x="1295.019531"/>
     <use xlink:href="#ArialMT-61" x="1350.634766"/>
     <use xlink:href="#ArialMT-73" x="1406.25"/>
     <use xlink:href="#ArialMT-65" x="1456.25"/>
     <use xlink:href="#ArialMT-6c" x="1511.865234"/>
     <use xlink:href="#ArialMT-69" x="1534.082031"/>
     <use xlink:href="#ArialMT-6e" x="1556.298828"/>
     <use xlink:href="#ArialMT-65" x="1611.914062"/>
     <use xlink:href="#ArialMT-20" x="1667.529297"/>
     <use xlink:href="#ArialMT-28" x="1695.3125"/>
     <use xlink:href="#ArialMT-41" x="1728.613281"/>
     <use xlink:href="#ArialMT-4e" x="1795.3125"/>
     <use xlink:href="#ArialMT-49" x="1867.529297"/>
     <use xlink:href="#ArialMT-6d" x="1895.3125"/>
     <use xlink:href="#ArialMT-29" x="1978.613281"/>
     <use xlink:href="#ArialMT-20" x="2011.914062"/>
     <use xlink:href="#ArialMT-63" x="2039.697266"/>
     <use xlink:href="#ArialMT-6f" x="2089.697266"/>
     <use xlink:href="#ArialMT-70" x="2145.3125"/>
     <use xlink:href="#ArialMT-68" x="2200.927734"/>
     <use xlink:href="#ArialMT-65" x="2256.542969"/>
     <use xlink:href="#ArialMT-6e" x="2312.158203"/>
     <use xlink:href="#ArialMT-65" x="2367.773438"/>
     <use xlink:href="#ArialMT-74" x="2423.388672"/>
     <use xlink:href="#ArialMT-69" x="2451.171875"/>
     <use xlink:href="#ArialMT-63" x="2473.388672"/>
     <use xlink:href="#ArialMT-20" x="2523.388672"/>
     <use xlink:href="#ArialMT-63" x="2551.171875"/>
     <use xlink:href="#ArialMT-6f" x="2601.171875"/>
     <use xlink:href="#ArialMT-72" x="2656.787109"/>
     <use xlink:href="#ArialMT-72" x="2690.087891"/>
     <use xlink:href="#ArialMT-65" x="2723.388672"/>
     <use xlink:href="#ArialMT-6c" x="2779.003906"/>
     <use xlink:href="#ArialMT-61" x="2801.220703"/>
     <use xlink:href="#ArialMT-74" x="2856.835938"/>
     <use xlink:href="#ArialMT-69" x="2884.619141"/>
     <use xlink:href="#ArialMT-6f" x="2906.835938"/>
     <use xlink:href="#ArialMT-6e" x="2962.451172"/>
     <use xlink:href="#ArialMT-20" x="3018.066406"/>
     <use xlink:href="#ArialMT-28" x="3045.849609"/>
     <use xlink:href="#ArialMT-6e" x="3079.150391"/>
     <use xlink:href="#ArialMT-20" x="3134.765625"/>
     <use xlink:href="#ArialMT-3d" x="3162.548828"/>
     <use xlink:href="#ArialMT-20" x="3220.947266"/>
     <use xlink:href="#ArialMT-32" x="3248.730469"/>
     <use xlink:href="#ArialMT-33" x="3304.345703"/>
     <use xlink:href="#ArialMT-38" x="3359.960938"/>
     <use xlink:href="#ArialMT-29" x="3415.576172"/>
    </g>
   </g>
   <g id="legend_1">
    <g id="patch_7">
     <path d="M 43.680156 220.254673 
L 176.178125 220.254673 
Q 177.578125 220.254673 177.578125 218.854673 
L 177.578125 160.14436 
Q 177.578125 158.74436 176.178125 158.74436 
L 43.680156 158.74436 
Q 42.280156 158.74436 42.280156 160.14436 
L 42.280156 218.854673 
Q 42.280156 220.254673 43.680156 220.254673 
z
" style="fill: #ffffff; opacity: 0.8; stroke: #cccccc; stroke-linejoin: miter"/>
    </g>
    <g id="text_16">
     <!-- method: mean deviation -->
     <g transform="translate(72.575391 166.554829)scale(0.07 -0.07)">
      <defs>
       <path id="ArialMT-3a" d="M 578 2678 
L 578 3319 
L 1219 3319 
L 1219 2678 
L 578 2678 
z
M 578 0 
L 578 641 
L 1219 641 
L 1219 0 
L 578 0 
z
" transform="scale(0.015625)"/>
      </defs>
      <use xlink:href="#ArialMT-6d"/>
      <use xlink:href="#ArialMT-65" x="83.300781"/>
      <use xlink:href="#ArialMT-74" x="138.916016"/>
      <use xlink:href="#ArialMT-68" x="166.699219"/>
      <use xlink:href="#ArialMT-6f" x="222.314453"/>
      <use xlink:href="#ArialMT-64" x="277.929688"/>
      <use xlink:href="#ArialMT-3a" x="333.544922"/>
      <use xlink:href="#ArialMT-20" x="361.328125"/>
      <use xlink:href="#ArialMT-6d" x="389.111328"/>
      <use xlink:href="#ArialMT-65" x="472.412109"/>
      <use xlink:href="#ArialMT-61" x="528.027344"/>
      <use xlink:href="#ArialMT-6e" x="583.642578"/>
      <use xlink:href="#ArialMT-20" x="639.257812"/>
      <use xlink:href="#ArialMT-64" x="667.041016"/>
      <use xlink:href="#ArialMT-65" x="722.65625"/>
      <use xlink:href="#ArialMT-76" x="778.271484"/>
      <use xlink:href="#ArialMT-69" x="828.271484"/>
      <use xlink:href="#ArialMT-61" x="850.488281"/>
      <use xlink:href="#ArialMT-74" x="906.103516"/>
      <use xlink:href="#ArialMT-69" x="933.886719"/>
      <use xlink:href="#ArialMT-6f" x="956.103516"/>
      <use xlink:href="#ArialMT-6e" x="1011.71875"/>
     </g>
    </g>
    <g id="patch_8">
     <path d="M 45.080156 176.456548 
L 59.080156 176.456548 
L 59.080156 171.556548 
L 45.080156 171.556548 
z
" style="fill: #4878d0; stroke: #000000; stroke-linejoin: miter"/>
    </g>
    <g id="text_17">
     <!-- skani: -0.040 -->
     <g transform="translate(64.680156 176.456548)scale(0.07 -0.07)">
      <use xlink:href="#ArialMT-73"/>
      <use xlink:href="#ArialMT-6b" x="50"/>
      <use xlink:href="#ArialMT-61" x="100"/>
      <use xlink:href="#ArialMT-6e" x="155.615234"/>
      <use xlink:href="#ArialMT-69" x="211.230469"/>
      <use xlink:href="#ArialMT-3a" x="233.447266"/>
      <use xlink:href="#ArialMT-20" x="261.230469"/>
      <use xlink:href="#ArialMT-2d" x="289.013672"/>
      <use xlink:href="#ArialMT-30" x="322.314453"/>
      <use xlink:href="#ArialMT-2e" x="377.929688"/>
      <use xlink:href="#ArialMT-30" x="405.712891"/>
      <use xlink:href="#ArialMT-34" x="461.328125"/>
      <use xlink:href="#ArialMT-30" x="516.943359"/>
     </g>
    </g>
    <g id="patch_9">
     <path d="M 45.080156 186.358266 
L 59.080156 186.358266 
L 59.080156 181.458266 
L 45.080156 181.458266 
z
" style="fill: url(#hd779269a03); stroke: #000000; stroke-linejoin: miter"/>
    </g>
    <g id="text_18">
     <!-- sourmash max-containment: -0.148 -->
     <g transform="translate(64.680156 186.358266)scale(0.07 -0.07)">
      <use xlink:href="#ArialMT-73"/>
      <use xlink:href="#ArialMT-6f" x="50"/>
      <use xlink:href="#ArialMT-75" x="105.615234"/>
      <use xlink:href="#ArialMT-72" x="161.230469"/>
      <use xlink:href="#ArialMT-6d" x="194.53125"/>
      <use xlink:href="#ArialMT-61" x="277.832031"/>
      <use xlink:href="#ArialMT-73" x="333.447266"/>
      <use xlink:href="#ArialMT-68" x="383.447266"/>
      <use xlink:href="#ArialMT-20" x="439.0625"/>
      <use xlink:href="#ArialMT-6d" x="466.845703"/>
      <use xlink:href="#ArialMT-61" x="550.146484"/>
      <use xlink:href="#ArialMT-78" x="605.761719"/>
      <use xlink:href="#ArialMT-2d" x="655.761719"/>
      <use xlink:href="#ArialMT-63" x="689.0625"/>
      <use xlink:href="#ArialMT-6f" x="739.0625"/>
      <use xlink:href="#ArialMT-6e" x="794.677734"/>
      <use xlink:href="#ArialMT-74" x="850.292969"/>
      <use xlink:href="#ArialMT-61" x="878.076172"/>
      <use xlink:href="#ArialMT-69" x="933.691406"/>
      <use xlink:href="#ArialMT-6e" x="955.908203"/>
      <use xlink:href="#ArialMT-6d" x="1011.523438"/>
      <use xlink:href="#ArialMT-65" x="1094.824219"/>
      <use xlink:href="#ArialMT-6e" x="1150.439453"/>
      <use xlink:href="#ArialMT-74" x="1206.054688"/>
      <use xlink:href="#ArialMT-3a" x="1233.837891"/>
      <use xlink:href="#ArialMT-20" x="1261.621094"/>
      <use xlink:href="#ArialMT-2d" x="1289.404297"/>
      <use xlink:href="#ArialMT-30" x="1322.705078"/>
      <use xlink:href="#ArialMT-2e" x="1378.320312"/>
      <use xlink:href="#ArialMT-31" x="1406.103516"/>
      <use xlink:href="#ArialMT-34" x="1461.71875"/>
      <use xlink:href="#ArialMT-38" x="1517.333984"/>
     </g>
    </g>
    <g id="patch_10">
     <path d="M 45.080156 196.259985 
L 59.080156 196.259985 
L 59.080156 191.359985 
L 45.080156 191.359985 
z
" style="fill: #d65f5f; stroke: #000000; stroke-linejoin: miter"/>
    </g>
    <g id="text_19">
     <!-- sourmash: -0.339 -->
     <g transform="translate(64.680156 196.259985)scale(0.07 -0.07)">
      <defs>
       <path id="ArialMT-39" d="M 350 1059 
L 891 1109 
Q 959 728 1153 556 
Q 1347 384 1650 384 
Q 1909 384 2104 503 
Q 2300 622 2425 820 
Q 2550 1019 2634 1356 
Q 2719 1694 2719 2044 
Q 2719 2081 2716 2156 
Q 2547 1888 2255 1720 
Q 1963 1553 1622 1553 
Q 1053 1553 659 1965 
Q 266 2378 266 3053 
Q 266 3750 677 4175 
Q 1088 4600 1706 4600 
Q 2153 4600 2523 4359 
Q 2894 4119 3086 3673 
Q 3278 3228 3278 2384 
Q 3278 1506 3087 986 
Q 2897 466 2520 194 
Q 2144 -78 1638 -78 
Q 1100 -78 759 220 
Q 419 519 350 1059 
z
M 2653 3081 
Q 2653 3566 2395 3850 
Q 2138 4134 1775 4134 
Q 1400 4134 1122 3828 
Q 844 3522 844 3034 
Q 844 2597 1108 2323 
Q 1372 2050 1759 2050 
Q 2150 2050 2401 2323 
Q 2653 2597 2653 3081 
z
" transform="scale(0.015625)"/>
      </defs>
      <use xlink:href="#ArialMT-73"/>
      <use xlink:href="#ArialMT-6f" x="50"/>
      <use xlink:href="#ArialMT-75" x="105.615234"/>
      <use xlink:href="#ArialMT-72" x="161.230469"/>
      <use xlink:href="#ArialMT-6d" x="194.53125"/>
      <use xlink:href="#ArialMT-61" x="277.832031"/>
      <use xlink:href="#ArialMT-73" x="333.447266"/>
      <use xlink:href="#ArialMT-68" x="383.447266"/>
      <use xlink:href="#ArialMT-3a" x="439.0625"/>
      <use xlink:href="#ArialMT-20" x="466.845703"/>
      <use xlink:href="#ArialMT-2d" x="494.628906"/>
      <use xlink:href="#ArialMT-30" x="527.929688"/>
      <use xlink:href="#ArialMT-2e" x="583.544922"/>
      <use xlink:href="#ArialMT-33" x="611.328125"/>
      <use xlink:href="#ArialMT-33" x="666.943359"/>
      <use xlink:href="#ArialMT-39" x="722.558594"/>
     </g>
    </g>
    <g id="patch_11">
     <path d="M 45.080156 206.161704 
L 59.080156 206.161704 
L 59.080156 201.261704 
L 45.080156 201.261704 
z
" style="fill: #ee854a; stroke: #000000; stroke-linejoin: miter"/>
    </g>
    <g id="text_20">
     <!-- fastani: -0.227 -->
     <g transform="translate(64.680156 206.161704)scale(0.07 -0.07)">
      <defs>
       <path id="ArialMT-37" d="M 303 3981 
L 303 4522 
L 3269 4522 
L 3269 4084 
Q 2831 3619 2401 2847 
Q 1972 2075 1738 1259 
Q 1569 684 1522 0 
L 944 0 
Q 953 541 1156 1306 
Q 1359 2072 1739 2783 
Q 2119 3494 2547 3981 
L 303 3981 
z
" transform="scale(0.015625)"/>
      </defs>
      <use xlink:href="#ArialMT-66"/>
      <use xlink:href="#ArialMT-61" x="27.783203"/>
      <use xlink:href="#ArialMT-73" x="83.398438"/>
      <use xlink:href="#ArialMT-74" x="133.398438"/>
      <use xlink:href="#ArialMT-61" x="161.181641"/>
      <use xlink:href="#ArialMT-6e" x="216.796875"/>
      <use xlink:href="#ArialMT-69" x="272.412109"/>
      <use xlink:href="#ArialMT-3a" x="294.628906"/>
      <use xlink:href="#ArialMT-20" x="322.412109"/>
      <use xlink:href="#ArialMT-2d" x="350.195312"/>
      <use xlink:href="#ArialMT-30" x="383.496094"/>
      <use xlink:href="#ArialMT-2e" x="439.111328"/>
      <use xlink:href="#ArialMT-32" x="466.894531"/>
      <use xlink:href="#ArialMT-32" x="522.509766"/>
      <use xlink:href="#ArialMT-37" x="578.125"/>
     </g>
    </g>
    <g id="patch_12">
     <path d="M 45.080156 216.063423 
L 59.080156 216.063423 
L 59.080156 211.163423 
L 45.080156 211.163423 
z
" style="fill: #6acc64; stroke: #000000; stroke-linejoin: miter"/>
    </g>
    <g id="text_21">
     <!-- mash: -0.422 -->
     <g transform="translate(64.680156 216.063423)scale(0.07 -0.07)">
      <use xlink:href="#ArialMT-6d"/>
      <use xlink:href="#ArialMT-61" x="83.300781"/>
      <use xlink:href="#ArialMT-73" x="138.916016"/>
      <use xlink:href="#ArialMT-68" x="188.916016"/>
      <use xlink:href="#ArialMT-3a" x="244.53125"/>
      <use xlink:href="#ArialMT-20" x="272.314453"/>
      <use xlink:href="#ArialMT-2d" x="300.097656"/>
      <use xlink:href="#ArialMT-30" x="333.398438"/>
      <use xlink:href="#ArialMT-2e" x="389.013672"/>
      <use xlink:href="#ArialMT-34" x="416.796875"/>
      <use xlink:href="#ArialMT-32" x="472.412109"/>
      <use xlink:href="#ArialMT-32" x="528.027344"/>
     </g>
    </g>
   </g>
  </g>
 </g>
 <defs>
  <clipPath id="pd261aada6e">
   <rect x="38.780156" y="19.674937" width="435.549608" height="204.079735"/>
  </clipPath>
 </defs>
 <defs>
  <pattern id="hcbd77d0a97" patternUnits="userSpaceOnUse" x="0" y="0" width="72" height="72">
   <rect x="0" y="0" width="73" height="73" fill="#d65f5f"/>
   <path d="M -36 36 
L 36 -36 
M -32 40 
L 40 -32 
M -28 44 
L 44 -28 
M -24 48 
L 48 -24 
M -20 52 
L 52 -20 
M -16 56 
L 56 -16 
M -12 60 
L 60 -12 
M -8 64 
L 64 -8 
M -4 68 
L 68 -4 
M 0 72 
L 72 0 
M 4 76 
L 76 4 
M 8 80 
L 80 8 
M 12 84 
L 84 12 
M 16 88 
L 88 16 
M 20 92 
L 92 20 
M 24 96 
L 96 24 
M 28 100 
L 100 28 
M 32 104 
L 104 32 
M 36 108 
L 108 36 
" style="fill: #545454; stroke: #545454; stroke-width: 1.0; stroke-linecap: butt; stroke-linejoin: miter"/>
  </pattern>
  <pattern id="hd779269a03" patternUnits="userSpaceOnUse" x="0" y="0" width="72" height="72">
   <rect x="0" y="0" width="73" height="73" fill="#d65f5f"/>
   <path d="M -36 36 
L 36 -36 
M -32 40 
L 40 -32 
M -28 44 
L 44 -28 
M -24 48 
L 48 -24 
M -20 52 
L 52 -20 
M -16 56 
L 56 -16 
M -12 60 
L 60 -12 
M -8 64 
L 64 -8 
M -4 68 
L 68 -4 
M 0 72 
L 72 0 
M 4 76 
L 76 4 
M 8 80 
L 80 8 
M 12 84 
L 84 12 
M 16 88 
L 88 16 
M 20 92 
L 92 20 
M 24 96 
L 96 24 
M 28 100 
L 100 28 
M 32 104 
L 104 32 
M 36 108 
L 108 36 
" style="fill: #000000; stroke: #000000; stroke-width: 1.0; stroke-linecap: butt; stroke-linejoin: miter"/>
  </pattern>
 </defs>
</svg>
