<?xml version="1.0" encoding="utf-8" standalone="no"?>
<!DOCTYPE svg PUBLIC "-//W3C//DTD SVG 1.1//EN"
  "http://www.w3.org/Graphics/SVG/1.1/DTD/svg11.dtd">
<svg xmlns:xlink="http://www.w3.org/1999/xlink" width="481.889764pt" height="255.11811pt" viewBox="0 0 481.889764 255.11811" xmlns="http://www.w3.org/2000/svg" version="1.1">
 <metadata>
  <rdf:RDF xmlns:dc="http://purl.org/dc/elements/1.1/" xmlns:cc="http://creativecommons.org/ns#" xmlns:rdf="http://www.w3.org/1999/02/22-rdf-syntax-ns#">
   <cc:Work>
    <dc:type rdf:resource="http://purl.org/dc/dcmitype/StillImage"/>
    <dc:date>2022-11-27T15:39:33.841650</dc:date>
    <dc:format>image/svg+xml</dc:format>
    <dc:creator>
     <cc:Agent>
      <dc:title>Matplotlib v3.6.2, https://matplotlib.org/</dc:title>
     </cc:Agent>
    </dc:creator>
   </cc:Work>
  </rdf:RDF>
 </metadata>
 <defs>
  <style type="text/css">*{stroke-linejoin: round; stroke-linecap: butt}</style>
 </defs>
 <g id="figure_1">
  <g id="patch_1">
   <path d="M 0 255.11811 
L 481.889764 255.11811 
L 481.889764 0 
L 0 0 
L 0 255.11811 
z
" style="fill: none"/>
  </g>
  <g id="axes_1">
   <g id="patch_2">
    <path d="M 38.780156 223.754673 
L 474.329764 223.754673 
L 474.329764 19.674937 
L 38.780156 19.674937 
L 38.780156 223.754673 
z
" style="fill: none"/>
   </g>
   <g id="PolyCollection_1">
    <defs>
     <path id="mbfeeaffe8e" d="M 82.62369 -145.633749 
L 82.046544 -145.633749 
L 82.031489 -146.447214 
L 82.021718 -147.260679 
L 82.014301 -148.074145 
L 82.006138 -148.88761 
L 81.994842 -149.701076 
L 81.979253 -150.514541 
L 81.959432 -151.328006 
L 81.936267 -152.141472 
L 81.910984 -152.954937 
L 81.884883 -153.768403 
L 81.859408 -154.581868 
L 81.83645 -155.395333 
L 81.818589 -156.208799 
L 81.80902 -157.022264 
L 81.811035 -157.835729 
L 81.82719 -158.649195 
L 81.858475 -159.46266 
L 81.903786 -160.276126 
L 81.959952 -161.089591 
L 82.022302 -161.903056 
L 82.085596 -162.716522 
L 82.145025 -163.529987 
L 82.196989 -164.343452 
L 82.239489 -165.156918 
L 82.272097 -165.970383 
L 82.295614 -166.783849 
L 82.311576 -167.597314 
L 82.321778 -168.410779 
L 82.327906 -169.224245 
L 82.33133 -170.03771 
L 82.33302 -170.851175 
L 82.333551 -171.664641 
L 82.33313 -172.478106 
L 82.331623 -173.291572 
L 82.328564 -174.105037 
L 82.323156 -174.918502 
L 82.314313 -175.731968 
L 82.300773 -176.545433 
L 82.281316 -177.358898 
L 82.255089 -178.172364 
L 82.221955 -178.985829 
L 82.182765 -179.799295 
L 82.139419 -180.61276 
L 82.094625 -181.426225 
L 82.051394 -182.239691 
L 82.012402 -183.053156 
L 81.979429 -183.866621 
L 81.953062 -184.680087 
L 81.932727 -185.493552 
L 81.916971 -186.307018 
L 81.903858 -187.120483 
L 81.891335 -187.933948 
L 81.877557 -188.747414 
L 81.861193 -189.560879 
L 81.841746 -190.374345 
L 81.819801 -191.18781 
L 81.796998 -192.001275 
L 81.77554 -192.814741 
L 81.757174 -193.628206 
L 81.741874 -194.441671 
L 81.72667 -195.255137 
L 81.705167 -196.068602 
L 81.668102 -196.882068 
L 81.604933 -197.695533 
L 81.50607 -198.508998 
L 81.365028 -199.322464 
L 81.179819 -200.135929 
L 80.953144 -200.949394 
L 80.6914 -201.76286 
L 80.402918 -202.576325 
L 80.096034 -203.389791 
L 79.777486 -204.203256 
L 79.451284 -205.016721 
L 79.117836 -205.830187 
L 78.773013 -206.643652 
L 78.406946 -207.457117 
L 78.002681 -208.270583 
L 77.53501 -209.084048 
L 76.969729 -209.897514 
L 76.263236 -210.710979 
L 75.36207 -211.524444 
L 74.202207 -212.33791 
L 72.708776 -213.151375 
L 70.798332 -213.96484 
L 68.387031 -214.778306 
L 65.408047 -215.591771 
L 61.839343 -216.405237 
L 57.738407 -217.218702 
L 53.274824 -218.032167 
L 48.747129 -218.845633 
L 44.570205 -219.659098 
L 41.225533 -220.472563 
L 39.178446 -221.286029 
L 38.780156 -222.099494 
L 40.182004 -222.91296 
L 43.289575 -223.726425 
L 47.773584 -224.53989 
L 53.136138 -225.353356 
L 58.812724 -226.166821 
L 105.85751 -226.166821 
L 105.85751 -226.166821 
L 111.534096 -225.353356 
L 116.89665 -224.53989 
L 121.380659 -223.726425 
L 124.48823 -222.91296 
L 125.890078 -222.099494 
L 125.491788 -221.286029 
L 123.444701 -220.472563 
L 120.100029 -219.659098 
L 115.923105 -218.845633 
L 111.39541 -218.032167 
L 106.931827 -217.218702 
L 102.830891 -216.405237 
L 99.262187 -215.591771 
L 96.283203 -214.778306 
L 93.871902 -213.96484 
L 91.961458 -213.151375 
L 90.468027 -212.33791 
L 89.308164 -211.524444 
L 88.406998 -210.710979 
L 87.700505 -209.897514 
L 87.135224 -209.084048 
L 86.667553 -208.270583 
L 86.263288 -207.457117 
L 85.897221 -206.643652 
L 85.552398 -205.830187 
L 85.21895 -205.016721 
L 84.892748 -204.203256 
L 84.5742 -203.389791 
L 84.267316 -202.576325 
L 83.978834 -201.76286 
L 83.71709 -200.949394 
L 83.490415 -200.135929 
L 83.305206 -199.322464 
L 83.164164 -198.508998 
L 83.065301 -197.695533 
L 83.002132 -196.882068 
L 82.965067 -196.068602 
L 82.943564 -195.255137 
L 82.92836 -194.441671 
L 82.91306 -193.628206 
L 82.894694 -192.814741 
L 82.873236 -192.001275 
L 82.850433 -191.18781 
L 82.828488 -190.374345 
L 82.809041 -189.560879 
L 82.792677 -188.747414 
L 82.778899 -187.933948 
L 82.766376 -187.120483 
L 82.753263 -186.307018 
L 82.737507 -185.493552 
L 82.717172 -184.680087 
L 82.690805 -183.866621 
L 82.657832 -183.053156 
L 82.61884 -182.239691 
L 82.57561 -181.426225 
L 82.530815 -180.61276 
L 82.487469 -179.799295 
L 82.448279 -178.985829 
L 82.415145 -178.172364 
L 82.388918 -177.358898 
L 82.369461 -176.545433 
L 82.355921 -175.731968 
L 82.347078 -174.918502 
L 82.34167 -174.105037 
L 82.338611 -173.291572 
L 82.337104 -172.478106 
L 82.336683 -171.664641 
L 82.337214 -170.851175 
L 82.338904 -170.03771 
L 82.342328 -169.224245 
L 82.348456 -168.410779 
L 82.358658 -167.597314 
L 82.37462 -166.783849 
L 82.398137 -165.970383 
L 82.430745 -165.156918 
L 82.473245 -164.343452 
L 82.525209 -163.529987 
L 82.584638 -162.716522 
L 82.647932 -161.903056 
L 82.710282 -161.089591 
L 82.766448 -160.276126 
L 82.811759 -159.46266 
L 82.843044 -158.649195 
L 82.859199 -157.835729 
L 82.861214 -157.022264 
L 82.851645 -156.208799 
L 82.833784 -155.395333 
L 82.810826 -154.581868 
L 82.785351 -153.768403 
L 82.75925 -152.954937 
L 82.733967 -152.141472 
L 82.710802 -151.328006 
L 82.690981 -150.514541 
L 82.675392 -149.701076 
L 82.664096 -148.88761 
L 82.655933 -148.074145 
L 82.648516 -147.260679 
L 82.638745 -146.447214 
L 82.62369 -145.633749 
z
" style="stroke: #545454; stroke-width: 1.5"/>
    </defs>
    <g clip-path="url(#paf5301e5f2)">
     <use xlink:href="#mbfeeaffe8e" x="0" y="255.11811" style="fill: #4878d0; stroke: #545454; stroke-width: 1.5"/>
    </g>
   </g>
   <g id="PolyCollection_2">
    <path d="M 169.592896 150.412593 
L 169.297181 150.412593 
L 169.289697 149.210522 
L 169.283941 148.008451 
L 169.27989 146.80638 
L 169.277482 145.604309 
L 169.276647 144.402238 
L 169.277325 143.200167 
L 169.279468 141.998095 
L 169.283013 140.796024 
L 169.287838 139.593953 
L 169.293703 138.391882 
L 169.300182 137.189811 
L 169.306617 135.98774 
L 169.312081 134.785669 
L 169.315377 133.583598 
L 169.315069 132.381527 
L 169.309546 131.179456 
L 169.297121 129.977385 
L 169.276164 128.775313 
L 169.245239 127.573242 
L 169.20327 126.371171 
L 169.149679 125.1691 
L 169.084511 123.967029 
L 169.008508 122.764958 
L 168.923112 121.562887 
L 168.830401 120.360816 
L 168.732948 119.158745 
L 168.633613 117.956674 
L 168.53531 116.754603 
L 168.440765 115.552532 
L 168.352323 114.35046 
L 168.271816 113.148389 
L 168.200513 111.946318 
L 168.13916 110.744247 
L 168.088073 109.542176 
L 168.047262 108.340105 
L 168.01654 107.138034 
L 167.995602 105.935963 
L 167.984025 104.733892 
L 167.981226 103.531821 
L 167.986368 102.32975 
L 167.998254 101.127678 
L 168.015243 99.925607 
L 168.035211 98.723536 
L 168.055586 97.521465 
L 168.073446 96.319394 
L 168.085682 95.117323 
L 168.089199 93.915252 
L 168.081142 92.713181 
L 168.059095 91.51111 
L 168.021268 90.309039 
L 167.96662 89.106968 
L 167.894935 87.904896 
L 167.806838 86.702825 
L 167.703742 85.500754 
L 167.587747 84.298683 
L 167.461486 83.096612 
L 167.32792 81.894541 
L 167.190107 80.69247 
L 167.050929 79.490399 
L 166.912818 78.288328 
L 166.777477 77.086257 
L 166.645626 75.884186 
L 166.516808 74.682115 
L 166.389263 73.480043 
L 166.259917 72.277972 
L 166.124481 71.075901 
L 165.977693 69.87383 
L 165.813667 68.671759 
L 165.626346 67.469688 
L 165.410001 66.267617 
L 165.15974 65.065546 
L 164.871948 63.863475 
L 164.544634 62.661404 
L 164.177606 61.459333 
L 163.772472 60.257261 
L 163.33244 59.05519 
L 162.861956 57.853119 
L 162.366209 56.651048 
L 161.850594 55.448977 
L 161.320216 54.246906 
L 160.779534 53.044835 
L 160.232249 51.842764 
L 159.681496 50.640693 
L 159.130366 49.438622 
L 158.582732 48.236551 
L 158.044268 47.03448 
L 157.523503 45.832408 
L 157.032706 44.630337 
L 156.588357 43.428266 
L 156.211004 42.226195 
L 155.924368 41.024124 
L 155.753656 39.822053 
L 155.723201 38.619982 
L 155.853678 37.417911 
L 156.159263 36.21584 
L 156.645188 35.013769 
L 157.306097 33.811698 
L 158.125539 32.609626 
L 159.076753 31.407555 
L 179.813324 31.407555 
L 179.813324 31.407555 
L 180.764538 32.609626 
L 181.58398 33.811698 
L 182.244889 35.013769 
L 182.730814 36.21584 
L 183.036399 37.417911 
L 183.166876 38.619982 
L 183.136421 39.822053 
L 182.965709 41.024124 
L 182.679073 42.226195 
L 182.30172 43.428266 
L 181.857371 44.630337 
L 181.366574 45.832408 
L 180.845809 47.03448 
L 180.307345 48.236551 
L 179.759711 49.438622 
L 179.208581 50.640693 
L 178.657828 51.842764 
L 178.110543 53.044835 
L 177.569861 54.246906 
L 177.039483 55.448977 
L 176.523868 56.651048 
L 176.028121 57.853119 
L 175.557637 59.05519 
L 175.117605 60.257261 
L 174.712471 61.459333 
L 174.345443 62.661404 
L 174.018129 63.863475 
L 173.730337 65.065546 
L 173.480076 66.267617 
L 173.263731 67.469688 
L 173.07641 68.671759 
L 172.912384 69.87383 
L 172.765596 71.075901 
L 172.63016 72.277972 
L 172.500814 73.480043 
L 172.373269 74.682115 
L 172.244451 75.884186 
L 172.112601 77.086257 
L 171.977259 78.288328 
L 171.839148 79.490399 
L 171.69997 80.69247 
L 171.562157 81.894541 
L 171.428591 83.096612 
L 171.30233 84.298683 
L 171.186335 85.500754 
L 171.083239 86.702825 
L 170.995142 87.904896 
L 170.923457 89.106968 
L 170.868809 90.309039 
L 170.830982 91.51111 
L 170.808935 92.713181 
L 170.800878 93.915252 
L 170.804396 95.117323 
L 170.816631 96.319394 
L 170.834491 97.521465 
L 170.854866 98.723536 
L 170.874835 99.925607 
L 170.891823 101.127678 
L 170.903709 102.32975 
L 170.908851 103.531821 
L 170.906052 104.733892 
L 170.894475 105.935963 
L 170.873537 107.138034 
L 170.842815 108.340105 
L 170.802004 109.542176 
L 170.750917 110.744247 
L 170.689564 111.946318 
L 170.618261 113.148389 
L 170.537754 114.35046 
L 170.449312 115.552532 
L 170.354767 116.754603 
L 170.256464 117.956674 
L 170.157129 119.158745 
L 170.059676 120.360816 
L 169.966965 121.562887 
L 169.881569 122.764958 
L 169.805566 123.967029 
L 169.740398 125.1691 
L 169.686807 126.371171 
L 169.644838 127.573242 
L 169.613913 128.775313 
L 169.592956 129.977385 
L 169.580531 131.179456 
L 169.575008 132.381527 
L 169.5747 133.583598 
L 169.577996 134.785669 
L 169.58346 135.98774 
L 169.589895 137.189811 
L 169.596374 138.391882 
L 169.602239 139.593953 
L 169.607064 140.796024 
L 169.610609 141.998095 
L 169.612752 143.200167 
L 169.61343 144.402238 
L 169.612595 145.604309 
L 169.610187 146.80638 
L 169.606136 148.008451 
L 169.60038 149.210522 
L 169.592896 150.412593 
z
" clip-path="url(#paf5301e5f2)" style="fill: url(#hf4138f8f1d); stroke: #545454; stroke-width: 1.5"/>
   </g>
   <g id="PolyCollection_3">
    <defs>
     <path id="m3c6258707f" d="M 256.657192 -43.162526 
L 256.452728 -43.162526 
L 256.446068 -44.968041 
L 256.439953 -46.773556 
L 256.434232 -48.579071 
L 256.42871 -50.384586 
L 256.423181 -52.190102 
L 256.417458 -53.995617 
L 256.411407 -55.801132 
L 256.404971 -57.606647 
L 256.398187 -59.412162 
L 256.391194 -61.217677 
L 256.384225 -63.023193 
L 256.377595 -64.828708 
L 256.371665 -66.634223 
L 256.366801 -68.439738 
L 256.363312 -70.245253 
L 256.361389 -72.050769 
L 256.36103 -73.856284 
L 256.361975 -75.661799 
L 256.363662 -77.467314 
L 256.365203 -79.272829 
L 256.36539 -81.078344 
L 256.362758 -82.88386 
L 256.355664 -84.689375 
L 256.342422 -86.49489 
L 256.321443 -88.300405 
L 256.291394 -90.10592 
L 256.251339 -91.911435 
L 256.200853 -93.716951 
L 256.140081 -95.522466 
L 256.069743 -97.327981 
L 255.991063 -99.133496 
L 255.905633 -100.939011 
L 255.815236 -102.744527 
L 255.721621 -104.550042 
L 255.626291 -106.355557 
L 255.530309 -108.161072 
L 255.434154 -109.966587 
L 255.337654 -111.772102 
L 255.23999 -113.577618 
L 255.139771 -115.383133 
L 255.035181 -117.188648 
L 254.92416 -118.994163 
L 254.804615 -120.799678 
L 254.674636 -122.605193 
L 254.532709 -124.410709 
L 254.377909 -126.216224 
L 254.210076 -128.021739 
L 254.029951 -129.827254 
L 253.839278 -131.632769 
L 253.640838 -133.438285 
L 253.438417 -135.2438 
L 253.236677 -137.049315 
L 253.040928 -138.85483 
L 252.856791 -140.660345 
L 252.689782 -142.46586 
L 252.544828 -144.271376 
L 252.425783 -146.076891 
L 252.334983 -147.882406 
L 252.272918 -149.687921 
L 252.238067 -151.493436 
L 252.226932 -153.298951 
L 252.234296 -155.104467 
L 252.253675 -156.909982 
L 252.277928 -158.715497 
L 252.299943 -160.521012 
L 252.313322 -162.326527 
L 252.312971 -164.132043 
L 252.295521 -165.937558 
L 252.259536 -167.743073 
L 252.205482 -169.548588 
L 252.135473 -171.354103 
L 252.052852 -173.159618 
L 251.961665 -174.965134 
L 251.866106 -176.770649 
L 251.770006 -178.576164 
L 251.676434 -180.381679 
L 251.587431 -182.187194 
L 251.503925 -183.992709 
L 251.425791 -185.798225 
L 251.352075 -187.60374 
L 251.281325 -189.409255 
L 251.212011 -191.21477 
L 251.142985 -193.020285 
L 251.073933 -194.825801 
L 251.005769 -196.631316 
L 250.940921 -198.436831 
L 250.883461 -200.242346 
L 250.839038 -202.047861 
L 250.814602 -203.853376 
L 250.817922 -205.658892 
L 250.856919 -207.464407 
L 250.938903 -209.269922 
L 251.069756 -211.075437 
L 251.253196 -212.880952 
L 251.490186 -214.686467 
L 251.778588 -216.491983 
L 252.113111 -218.297498 
L 252.48558 -220.103013 
L 252.88549 -221.908528 
L 260.22443 -221.908528 
L 260.22443 -221.908528 
L 260.62434 -220.103013 
L 260.996809 -218.297498 
L 261.331332 -216.491983 
L 261.619734 -214.686467 
L 261.856724 -212.880952 
L 262.040164 -211.075437 
L 262.171017 -209.269922 
L 262.253001 -207.464407 
L 262.291998 -205.658892 
L 262.295318 -203.853376 
L 262.270882 -202.047861 
L 262.22646 -200.242346 
L 262.168999 -198.436831 
L 262.104151 -196.631316 
L 262.035987 -194.825801 
L 261.966935 -193.020285 
L 261.897909 -191.21477 
L 261.828595 -189.409255 
L 261.757845 -187.60374 
L 261.684129 -185.798225 
L 261.605995 -183.992709 
L 261.522489 -182.187194 
L 261.433486 -180.381679 
L 261.339914 -178.576164 
L 261.243814 -176.770649 
L 261.148255 -174.965134 
L 261.057068 -173.159618 
L 260.974447 -171.354103 
L 260.904438 -169.548588 
L 260.850384 -167.743073 
L 260.814399 -165.937558 
L 260.796949 -164.132043 
L 260.796598 -162.326527 
L 260.809977 -160.521012 
L 260.831992 -158.715497 
L 260.856245 -156.909982 
L 260.875624 -155.104467 
L 260.882988 -153.298951 
L 260.871853 -151.493436 
L 260.837002 -149.687921 
L 260.774937 -147.882406 
L 260.684137 -146.076891 
L 260.565092 -144.271376 
L 260.420138 -142.46586 
L 260.253129 -140.660345 
L 260.068992 -138.85483 
L 259.873243 -137.049315 
L 259.671503 -135.2438 
L 259.469082 -133.438285 
L 259.270642 -131.632769 
L 259.079969 -129.827254 
L 258.899844 -128.021739 
L 258.732011 -126.216224 
L 258.577211 -124.410709 
L 258.435284 -122.605193 
L 258.305305 -120.799678 
L 258.18576 -118.994163 
L 258.074739 -117.188648 
L 257.970149 -115.383133 
L 257.869931 -113.577618 
L 257.772266 -111.772102 
L 257.675766 -109.966587 
L 257.579611 -108.161072 
L 257.483629 -106.355557 
L 257.388299 -104.550042 
L 257.294684 -102.744527 
L 257.204287 -100.939011 
L 257.118857 -99.133496 
L 257.040177 -97.327981 
L 256.969839 -95.522466 
L 256.909067 -93.716951 
L 256.858581 -91.911435 
L 256.818526 -90.10592 
L 256.788477 -88.300405 
L 256.767498 -86.49489 
L 256.754256 -84.689375 
L 256.747162 -82.88386 
L 256.74453 -81.078344 
L 256.744717 -79.272829 
L 256.746258 -77.467314 
L 256.747945 -75.661799 
L 256.74889 -73.856284 
L 256.748531 -72.050769 
L 256.746608 -70.245253 
L 256.743119 -68.439738 
L 256.738255 -66.634223 
L 256.732325 -64.828708 
L 256.725695 -63.023193 
L 256.718726 -61.217677 
L 256.711733 -59.412162 
L 256.704949 -57.606647 
L 256.698513 -55.801132 
L 256.692462 -53.995617 
L 256.686739 -52.190102 
L 256.68121 -50.384586 
L 256.675688 -48.579071 
L 256.669967 -46.773556 
L 256.663852 -44.968041 
L 256.657192 -43.162526 
z
" style="stroke: #545454; stroke-width: 1.5"/>
    </defs>
    <g clip-path="url(#paf5301e5f2)">
     <use xlink:href="#m3c6258707f" x="0" y="255.11811" style="fill: #d65f5f; stroke: #545454; stroke-width: 1.5"/>
    </g>
   </g>
   <g id="PolyCollection_4">
    <defs>
     <path id="mfeb289b877" d="M 343.762003 -77.686772 
L 343.56776 -77.686772 
L 343.566591 -79.161177 
L 343.566819 -80.635583 
L 343.568051 -82.109989 
L 343.569778 -83.584394 
L 343.571425 -85.0588 
L 343.572421 -86.533206 
L 343.572252 -88.007611 
L 343.570507 -89.482017 
L 343.566898 -90.956423 
L 343.561268 -92.430828 
L 343.553558 -93.905234 
L 343.543776 -95.37964 
L 343.531944 -96.854045 
L 343.518062 -98.328451 
L 343.502074 -99.802857 
L 343.483858 -101.277262 
L 343.463241 -102.751668 
L 343.440026 -104.226074 
L 343.414032 -105.700479 
L 343.385135 -107.174885 
L 343.353291 -108.649291 
L 343.318551 -110.123696 
L 343.281044 -111.598102 
L 343.240951 -113.072508 
L 343.198463 -114.546913 
L 343.153738 -116.021319 
L 343.10687 -117.495725 
L 343.057868 -118.97013 
L 343.006654 -120.444536 
L 342.95307 -121.918942 
L 342.896896 -123.393347 
L 342.837859 -124.867753 
L 342.77565 -126.342159 
L 342.709918 -127.816564 
L 342.640285 -129.29097 
L 342.566351 -130.765376 
L 342.487727 -132.239781 
L 342.404081 -133.714187 
L 342.315212 -135.188593 
L 342.221128 -136.662998 
L 342.122115 -138.137404 
L 342.018786 -139.61181 
L 341.912074 -141.086215 
L 341.803164 -142.560621 
L 341.693367 -144.035027 
L 341.583936 -145.509432 
L 341.47587 -146.983838 
L 341.369731 -148.458244 
L 341.265524 -149.932649 
L 341.162681 -151.407055 
L 341.060144 -152.881461 
L 340.956573 -154.355866 
L 340.850626 -155.830272 
L 340.741264 -157.304678 
L 340.628029 -158.779083 
L 340.511219 -160.253489 
L 340.391925 -161.727895 
L 340.271909 -163.2023 
L 340.153341 -164.676706 
L 340.038426 -166.151112 
L 339.929002 -167.625517 
L 339.826171 -169.099923 
L 339.730037 -170.574329 
L 339.639594 -172.048734 
L 339.552787 -173.52314 
L 339.46673 -174.997546 
L 339.378041 -176.471951 
L 339.28323 -177.946357 
L 339.17908 -179.420763 
L 339.062949 -180.895168 
L 338.932965 -182.369574 
L 338.788081 -183.84398 
L 338.628008 -185.318385 
L 338.453064 -186.792791 
L 338.263965 -188.267197 
L 338.061631 -189.741602 
L 337.847033 -191.216008 
L 337.621106 -192.690414 
L 337.384762 -194.164819 
L 337.138967 -195.639225 
L 336.884902 -197.113631 
L 336.624171 -198.588036 
L 336.359058 -200.062442 
L 336.092813 -201.536848 
L 335.829938 -203.011253 
L 335.576465 -204.485659 
L 335.340151 -205.960065 
L 335.130545 -207.43447 
L 334.958854 -208.908876 
L 334.837527 -210.383281 
L 334.779548 -211.857687 
L 334.797439 -213.332093 
L 334.902043 -214.806498 
L 335.101238 -216.280904 
L 335.398729 -217.75531 
L 335.793147 -219.229715 
L 336.277591 -220.704121 
L 336.83974 -222.178527 
L 337.462566 -223.652932 
L 349.867197 -223.652932 
L 349.867197 -223.652932 
L 350.490023 -222.178527 
L 351.052172 -220.704121 
L 351.536616 -219.229715 
L 351.931034 -217.75531 
L 352.228525 -216.280904 
L 352.42772 -214.806498 
L 352.532325 -213.332093 
L 352.550215 -211.857687 
L 352.492236 -210.383281 
L 352.370909 -208.908876 
L 352.199218 -207.43447 
L 351.989613 -205.960065 
L 351.753298 -204.485659 
L 351.499825 -203.011253 
L 351.23695 -201.536848 
L 350.970705 -200.062442 
L 350.705592 -198.588036 
L 350.444861 -197.113631 
L 350.190796 -195.639225 
L 349.945001 -194.164819 
L 349.708657 -192.690414 
L 349.48273 -191.216008 
L 349.268132 -189.741602 
L 349.065798 -188.267197 
L 348.876699 -186.792791 
L 348.701755 -185.318385 
L 348.541682 -183.84398 
L 348.396798 -182.369574 
L 348.266814 -180.895168 
L 348.150683 -179.420763 
L 348.046533 -177.946357 
L 347.951722 -176.471951 
L 347.863033 -174.997546 
L 347.776976 -173.52314 
L 347.690169 -172.048734 
L 347.599726 -170.574329 
L 347.503592 -169.099923 
L 347.400761 -167.625517 
L 347.291337 -166.151112 
L 347.176422 -164.676706 
L 347.057854 -163.2023 
L 346.937838 -161.727895 
L 346.818544 -160.253489 
L 346.701734 -158.779083 
L 346.588499 -157.304678 
L 346.479137 -155.830272 
L 346.37319 -154.355866 
L 346.269619 -152.881461 
L 346.167082 -151.407055 
L 346.064239 -149.932649 
L 345.960032 -148.458244 
L 345.853893 -146.983838 
L 345.745827 -145.509432 
L 345.636396 -144.035027 
L 345.526599 -142.560621 
L 345.417689 -141.086215 
L 345.310977 -139.61181 
L 345.207648 -138.137404 
L 345.108635 -136.662998 
L 345.014551 -135.188593 
L 344.925682 -133.714187 
L 344.842037 -132.239781 
L 344.763412 -130.765376 
L 344.689478 -129.29097 
L 344.619845 -127.816564 
L 344.554113 -126.342159 
L 344.491904 -124.867753 
L 344.432867 -123.393347 
L 344.376693 -121.918942 
L 344.323109 -120.444536 
L 344.271895 -118.97013 
L 344.222893 -117.495725 
L 344.176025 -116.021319 
L 344.1313 -114.546913 
L 344.088812 -113.072508 
L 344.048719 -111.598102 
L 344.011212 -110.123696 
L 343.976472 -108.649291 
L 343.944628 -107.174885 
L 343.915731 -105.700479 
L 343.889738 -104.226074 
L 343.866523 -102.751668 
L 343.845905 -101.277262 
L 343.827689 -99.802857 
L 343.811701 -98.328451 
L 343.797819 -96.854045 
L 343.785987 -95.37964 
L 343.776205 -93.905234 
L 343.768495 -92.430828 
L 343.762865 -90.956423 
L 343.759257 -89.482017 
L 343.757511 -88.007611 
L 343.757342 -86.533206 
L 343.758338 -85.0588 
L 343.759985 -83.584394 
L 343.761712 -82.109989 
L 343.762944 -80.635583 
L 343.763173 -79.161177 
L 343.762003 -77.686772 
z
" style="stroke: #545454; stroke-width: 1.5"/>
    </defs>
    <g clip-path="url(#paf5301e5f2)">
     <use xlink:href="#mfeb289b877" x="0" y="255.11811" style="fill: #ee854a; stroke: #545454; stroke-width: 1.5"/>
    </g>
   </g>
   <g id="PolyCollection_5">
    <defs>
     <path id="macee56fa7f" d="M 430.879084 -40.639789 
L 430.670522 -40.639789 
L 430.662285 -42.459898 
L 430.654087 -44.280007 
L 430.645796 -46.100116 
L 430.637274 -47.920224 
L 430.628404 -49.740333 
L 430.619122 -51.560442 
L 430.609434 -53.380551 
L 430.599418 -55.20066 
L 430.589219 -57.020768 
L 430.579017 -58.840877 
L 430.568982 -60.660986 
L 430.559226 -62.481095 
L 430.549741 -64.301204 
L 430.540353 -66.121312 
L 430.530677 -67.941421 
L 430.5201 -69.76153 
L 430.50779 -71.581639 
L 430.49272 -73.401748 
L 430.473726 -75.221856 
L 430.449575 -77.041965 
L 430.419045 -78.862074 
L 430.381001 -80.682183 
L 430.334464 -82.502292 
L 430.278664 -84.3224 
L 430.213079 -86.142509 
L 430.137451 -87.962618 
L 430.051796 -89.782727 
L 429.956393 -91.602836 
L 429.851776 -93.422944 
L 429.738707 -95.243053 
L 429.618144 -97.063162 
L 429.491192 -98.883271 
L 429.359028 -100.70338 
L 429.222819 -102.523488 
L 429.083607 -104.343597 
L 428.942206 -106.163706 
L 428.799104 -107.983815 
L 428.654396 -109.803924 
L 428.507789 -111.624032 
L 428.358657 -113.444141 
L 428.206188 -115.26425 
L 428.049579 -117.084359 
L 427.888283 -118.904468 
L 427.722242 -120.724576 
L 427.552085 -122.544685 
L 427.379252 -124.364794 
L 427.205996 -126.184903 
L 427.035289 -128.005012 
L 426.870609 -129.82512 
L 426.715659 -131.645229 
L 426.574052 -133.465338 
L 426.449008 -135.285447 
L 426.343104 -137.105556 
L 426.258095 -138.925664 
L 426.194834 -140.745773 
L 426.153264 -142.565882 
L 426.132481 -144.385991 
L 426.13083 -146.2061 
L 426.146018 -148.026208 
L 426.175227 -149.846317 
L 426.215213 -151.666426 
L 426.262411 -153.486535 
L 426.313035 -155.306644 
L 426.363215 -157.126752 
L 426.409162 -158.946861 
L 426.447368 -160.76697 
L 426.474846 -162.587079 
L 426.489365 -164.407188 
L 426.489672 -166.227296 
L 426.475644 -168.047405 
L 426.448351 -169.867514 
L 426.409994 -171.687623 
L 426.363723 -173.507732 
L 426.31333 -175.327841 
L 426.262876 -177.147949 
L 426.216266 -178.968058 
L 426.176863 -180.788167 
L 426.147176 -182.608276 
L 426.128674 -184.428385 
L 426.121765 -186.248493 
L 426.125926 -188.068602 
L 426.139979 -189.888711 
L 426.162471 -191.70882 
L 426.19209 -193.528929 
L 426.228065 -195.349037 
L 426.270481 -197.169146 
L 426.32046 -198.989255 
L 426.380177 -200.809364 
L 426.452695 -202.629473 
L 426.541649 -204.449581 
L 426.650803 -206.26969 
L 426.783541 -208.089799 
L 426.942368 -209.909908 
L 427.128473 -211.730017 
L 427.341424 -213.550125 
L 427.579032 -215.370234 
L 427.837404 -217.190343 
L 428.111181 -219.010452 
L 428.393928 -220.830561 
L 433.155678 -220.830561 
L 433.155678 -220.830561 
L 433.438425 -219.010452 
L 433.712202 -217.190343 
L 433.970574 -215.370234 
L 434.208182 -213.550125 
L 434.421133 -211.730017 
L 434.607238 -209.909908 
L 434.766065 -208.089799 
L 434.898803 -206.26969 
L 435.007957 -204.449581 
L 435.096911 -202.629473 
L 435.169429 -200.809364 
L 435.229146 -198.989255 
L 435.279125 -197.169146 
L 435.321541 -195.349037 
L 435.357516 -193.528929 
L 435.387135 -191.70882 
L 435.409627 -189.888711 
L 435.423681 -188.068602 
L 435.427841 -186.248493 
L 435.420932 -184.428385 
L 435.40243 -182.608276 
L 435.372743 -180.788167 
L 435.33334 -178.968058 
L 435.28673 -177.147949 
L 435.236276 -175.327841 
L 435.185883 -173.507732 
L 435.139612 -171.687623 
L 435.101255 -169.867514 
L 435.073962 -168.047405 
L 435.059934 -166.227296 
L 435.060241 -164.407188 
L 435.074761 -162.587079 
L 435.102238 -160.76697 
L 435.140444 -158.946861 
L 435.186391 -157.126752 
L 435.236571 -155.306644 
L 435.287196 -153.486535 
L 435.334393 -151.666426 
L 435.374379 -149.846317 
L 435.403588 -148.026208 
L 435.418776 -146.2061 
L 435.417125 -144.385991 
L 435.396342 -142.565882 
L 435.354772 -140.745773 
L 435.291511 -138.925664 
L 435.206502 -137.105556 
L 435.100598 -135.285447 
L 434.975554 -133.465338 
L 434.833947 -131.645229 
L 434.678997 -129.82512 
L 434.514317 -128.005012 
L 434.34361 -126.184903 
L 434.170355 -124.364794 
L 433.997521 -122.544685 
L 433.827364 -120.724576 
L 433.661323 -118.904468 
L 433.500027 -117.084359 
L 433.343418 -115.26425 
L 433.190949 -113.444141 
L 433.041817 -111.624032 
L 432.89521 -109.803924 
L 432.750502 -107.983815 
L 432.6074 -106.163706 
L 432.465999 -104.343597 
L 432.326787 -102.523488 
L 432.190578 -100.70338 
L 432.058414 -98.883271 
L 431.931462 -97.063162 
L 431.810899 -95.243053 
L 431.69783 -93.422944 
L 431.593213 -91.602836 
L 431.49781 -89.782727 
L 431.412155 -87.962618 
L 431.336527 -86.142509 
L 431.270942 -84.3224 
L 431.215142 -82.502292 
L 431.168605 -80.682183 
L 431.130561 -78.862074 
L 431.100031 -77.041965 
L 431.075881 -75.221856 
L 431.056886 -73.401748 
L 431.041816 -71.581639 
L 431.029506 -69.76153 
L 431.018929 -67.941421 
L 431.009253 -66.121312 
L 430.999865 -64.301204 
L 430.99038 -62.481095 
L 430.980624 -60.660986 
L 430.970589 -58.840877 
L 430.960387 -57.020768 
L 430.950188 -55.20066 
L 430.940172 -53.380551 
L 430.930484 -51.560442 
L 430.921202 -49.740333 
L 430.912332 -47.920224 
L 430.90381 -46.100116 
L 430.895519 -44.280007 
L 430.887321 -42.459898 
L 430.879084 -40.639789 
z
" style="stroke: #545454; stroke-width: 1.5"/>
    </defs>
    <g clip-path="url(#paf5301e5f2)">
     <use xlink:href="#macee56fa7f" x="0" y="255.11811" style="fill: #6acc64; stroke: #545454; stroke-width: 1.5"/>
    </g>
   </g>
   <g id="matplotlib.axis_1">
    <g id="xtick_1">
     <g id="line2d_1">
      <defs>
       <path id="m6c978e89cb" d="M 0 0 
L 0 3.5 
" style="stroke: #000000; stroke-width: 0.8"/>
      </defs>
      <g>
       <use xlink:href="#m6c978e89cb" x="82.335117" y="223.754673" style="stroke: #000000; stroke-width: 0.8"/>
      </g>
     </g>
     <g id="text_1">
      <!-- skani -->
      <g transform="translate(74.164805 235.765141) scale(0.07 -0.07)">
       <defs>
        <path id="ArialMT-73" d="M 197 991 
L 753 1078 
Q 800 744 1014 566 
Q 1228 388 1613 388 
Q 2000 388 2187 545 
Q 2375 703 2375 916 
Q 2375 1106 2209 1216 
Q 2094 1291 1634 1406 
Q 1016 1563 777 1677 
Q 538 1791 414 1992 
Q 291 2194 291 2438 
Q 291 2659 392 2848 
Q 494 3038 669 3163 
Q 800 3259 1026 3326 
Q 1253 3394 1513 3394 
Q 1903 3394 2198 3281 
Q 2494 3169 2634 2976 
Q 2775 2784 2828 2463 
L 2278 2388 
Q 2241 2644 2061 2787 
Q 1881 2931 1553 2931 
Q 1166 2931 1000 2803 
Q 834 2675 834 2503 
Q 834 2394 903 2306 
Q 972 2216 1119 2156 
Q 1203 2125 1616 2013 
Q 2213 1853 2448 1751 
Q 2684 1650 2818 1456 
Q 2953 1263 2953 975 
Q 2953 694 2789 445 
Q 2625 197 2315 61 
Q 2006 -75 1616 -75 
Q 969 -75 630 194 
Q 291 463 197 991 
z
" transform="scale(0.015625)"/>
        <path id="ArialMT-6b" d="M 425 0 
L 425 4581 
L 988 4581 
L 988 1969 
L 2319 3319 
L 3047 3319 
L 1778 2088 
L 3175 0 
L 2481 0 
L 1384 1697 
L 988 1316 
L 988 0 
L 425 0 
z
" transform="scale(0.015625)"/>
        <path id="ArialMT-61" d="M 2588 409 
Q 2275 144 1986 34 
Q 1697 -75 1366 -75 
Q 819 -75 525 192 
Q 231 459 231 875 
Q 231 1119 342 1320 
Q 453 1522 633 1644 
Q 813 1766 1038 1828 
Q 1203 1872 1538 1913 
Q 2219 1994 2541 2106 
Q 2544 2222 2544 2253 
Q 2544 2597 2384 2738 
Q 2169 2928 1744 2928 
Q 1347 2928 1158 2789 
Q 969 2650 878 2297 
L 328 2372 
Q 403 2725 575 2942 
Q 747 3159 1072 3276 
Q 1397 3394 1825 3394 
Q 2250 3394 2515 3294 
Q 2781 3194 2906 3042 
Q 3031 2891 3081 2659 
Q 3109 2516 3109 2141 
L 3109 1391 
Q 3109 606 3145 398 
Q 3181 191 3288 0 
L 2700 0 
Q 2613 175 2588 409 
z
M 2541 1666 
Q 2234 1541 1622 1453 
Q 1275 1403 1131 1340 
Q 988 1278 909 1158 
Q 831 1038 831 891 
Q 831 666 1001 516 
Q 1172 366 1500 366 
Q 1825 366 2078 508 
Q 2331 650 2450 897 
Q 2541 1088 2541 1459 
L 2541 1666 
z
" transform="scale(0.015625)"/>
        <path id="ArialMT-6e" d="M 422 0 
L 422 3319 
L 928 3319 
L 928 2847 
Q 1294 3394 1984 3394 
Q 2284 3394 2536 3286 
Q 2788 3178 2913 3003 
Q 3038 2828 3088 2588 
Q 3119 2431 3119 2041 
L 3119 0 
L 2556 0 
L 2556 2019 
Q 2556 2363 2490 2533 
Q 2425 2703 2258 2804 
Q 2091 2906 1866 2906 
Q 1506 2906 1245 2678 
Q 984 2450 984 1813 
L 984 0 
L 422 0 
z
" transform="scale(0.015625)"/>
        <path id="ArialMT-69" d="M 425 3934 
L 425 4581 
L 988 4581 
L 988 3934 
L 425 3934 
z
M 425 0 
L 425 3319 
L 988 3319 
L 988 0 
L 425 0 
z
" transform="scale(0.015625)"/>
       </defs>
       <use xlink:href="#ArialMT-73"/>
       <use xlink:href="#ArialMT-6b" x="50"/>
       <use xlink:href="#ArialMT-61" x="100"/>
       <use xlink:href="#ArialMT-6e" x="155.615234"/>
       <use xlink:href="#ArialMT-69" x="211.230469"/>
      </g>
     </g>
    </g>
    <g id="xtick_2">
     <g id="line2d_2">
      <g>
       <use xlink:href="#m6c978e89cb" x="169.445039" y="223.754673" style="stroke: #000000; stroke-width: 0.8"/>
      </g>
     </g>
     <g id="text_2">
      <!-- sourmash max-contain -->
      <g transform="translate(134.044179 235.765141) scale(0.07 -0.07)">
       <defs>
        <path id="ArialMT-6f" d="M 213 1659 
Q 213 2581 725 3025 
Q 1153 3394 1769 3394 
Q 2453 3394 2887 2945 
Q 3322 2497 3322 1706 
Q 3322 1066 3130 698 
Q 2938 331 2570 128 
Q 2203 -75 1769 -75 
Q 1072 -75 642 372 
Q 213 819 213 1659 
z
M 791 1659 
Q 791 1022 1069 705 
Q 1347 388 1769 388 
Q 2188 388 2466 706 
Q 2744 1025 2744 1678 
Q 2744 2294 2464 2611 
Q 2184 2928 1769 2928 
Q 1347 2928 1069 2612 
Q 791 2297 791 1659 
z
" transform="scale(0.015625)"/>
        <path id="ArialMT-75" d="M 2597 0 
L 2597 488 
Q 2209 -75 1544 -75 
Q 1250 -75 995 37 
Q 741 150 617 320 
Q 494 491 444 738 
Q 409 903 409 1263 
L 409 3319 
L 972 3319 
L 972 1478 
Q 972 1038 1006 884 
Q 1059 663 1231 536 
Q 1403 409 1656 409 
Q 1909 409 2131 539 
Q 2353 669 2445 892 
Q 2538 1116 2538 1541 
L 2538 3319 
L 3100 3319 
L 3100 0 
L 2597 0 
z
" transform="scale(0.015625)"/>
        <path id="ArialMT-72" d="M 416 0 
L 416 3319 
L 922 3319 
L 922 2816 
Q 1116 3169 1280 3281 
Q 1444 3394 1641 3394 
Q 1925 3394 2219 3213 
L 2025 2691 
Q 1819 2813 1613 2813 
Q 1428 2813 1281 2702 
Q 1134 2591 1072 2394 
Q 978 2094 978 1738 
L 978 0 
L 416 0 
z
" transform="scale(0.015625)"/>
        <path id="ArialMT-6d" d="M 422 0 
L 422 3319 
L 925 3319 
L 925 2853 
Q 1081 3097 1340 3245 
Q 1600 3394 1931 3394 
Q 2300 3394 2536 3241 
Q 2772 3088 2869 2813 
Q 3263 3394 3894 3394 
Q 4388 3394 4653 3120 
Q 4919 2847 4919 2278 
L 4919 0 
L 4359 0 
L 4359 2091 
Q 4359 2428 4304 2576 
Q 4250 2725 4106 2815 
Q 3963 2906 3769 2906 
Q 3419 2906 3187 2673 
Q 2956 2441 2956 1928 
L 2956 0 
L 2394 0 
L 2394 2156 
Q 2394 2531 2256 2718 
Q 2119 2906 1806 2906 
Q 1569 2906 1367 2781 
Q 1166 2656 1075 2415 
Q 984 2175 984 1722 
L 984 0 
L 422 0 
z
" transform="scale(0.015625)"/>
        <path id="ArialMT-68" d="M 422 0 
L 422 4581 
L 984 4581 
L 984 2938 
Q 1378 3394 1978 3394 
Q 2347 3394 2619 3248 
Q 2891 3103 3008 2847 
Q 3125 2591 3125 2103 
L 3125 0 
L 2563 0 
L 2563 2103 
Q 2563 2525 2380 2717 
Q 2197 2909 1863 2909 
Q 1613 2909 1392 2779 
Q 1172 2650 1078 2428 
Q 984 2206 984 1816 
L 984 0 
L 422 0 
z
" transform="scale(0.015625)"/>
        <path id="ArialMT-20" transform="scale(0.015625)"/>
        <path id="ArialMT-78" d="M 47 0 
L 1259 1725 
L 138 3319 
L 841 3319 
L 1350 2541 
Q 1494 2319 1581 2169 
Q 1719 2375 1834 2534 
L 2394 3319 
L 3066 3319 
L 1919 1756 
L 3153 0 
L 2463 0 
L 1781 1031 
L 1600 1309 
L 728 0 
L 47 0 
z
" transform="scale(0.015625)"/>
        <path id="ArialMT-2d" d="M 203 1375 
L 203 1941 
L 1931 1941 
L 1931 1375 
L 203 1375 
z
" transform="scale(0.015625)"/>
        <path id="ArialMT-63" d="M 2588 1216 
L 3141 1144 
Q 3050 572 2676 248 
Q 2303 -75 1759 -75 
Q 1078 -75 664 370 
Q 250 816 250 1647 
Q 250 2184 428 2587 
Q 606 2991 970 3192 
Q 1334 3394 1763 3394 
Q 2303 3394 2647 3120 
Q 2991 2847 3088 2344 
L 2541 2259 
Q 2463 2594 2264 2762 
Q 2066 2931 1784 2931 
Q 1359 2931 1093 2626 
Q 828 2322 828 1663 
Q 828 994 1084 691 
Q 1341 388 1753 388 
Q 2084 388 2306 591 
Q 2528 794 2588 1216 
z
" transform="scale(0.015625)"/>
        <path id="ArialMT-74" d="M 1650 503 
L 1731 6 
Q 1494 -44 1306 -44 
Q 1000 -44 831 53 
Q 663 150 594 308 
Q 525 466 525 972 
L 525 2881 
L 113 2881 
L 113 3319 
L 525 3319 
L 525 4141 
L 1084 4478 
L 1084 3319 
L 1650 3319 
L 1650 2881 
L 1084 2881 
L 1084 941 
Q 1084 700 1114 631 
Q 1144 563 1211 522 
Q 1278 481 1403 481 
Q 1497 481 1650 503 
z
" transform="scale(0.015625)"/>
       </defs>
       <use xlink:href="#ArialMT-73"/>
       <use xlink:href="#ArialMT-6f" x="50"/>
       <use xlink:href="#ArialMT-75" x="105.615234"/>
       <use xlink:href="#ArialMT-72" x="161.230469"/>
       <use xlink:href="#ArialMT-6d" x="194.53125"/>
       <use xlink:href="#ArialMT-61" x="277.832031"/>
       <use xlink:href="#ArialMT-73" x="333.447266"/>
       <use xlink:href="#ArialMT-68" x="383.447266"/>
       <use xlink:href="#ArialMT-20" x="439.0625"/>
       <use xlink:href="#ArialMT-6d" x="466.845703"/>
       <use xlink:href="#ArialMT-61" x="550.146484"/>
       <use xlink:href="#ArialMT-78" x="605.761719"/>
       <use xlink:href="#ArialMT-2d" x="655.761719"/>
       <use xlink:href="#ArialMT-63" x="689.0625"/>
       <use xlink:href="#ArialMT-6f" x="739.0625"/>
       <use xlink:href="#ArialMT-6e" x="794.677734"/>
       <use xlink:href="#ArialMT-74" x="850.292969"/>
       <use xlink:href="#ArialMT-61" x="878.076172"/>
       <use xlink:href="#ArialMT-69" x="933.691406"/>
       <use xlink:href="#ArialMT-6e" x="955.908203"/>
      </g>
     </g>
    </g>
    <g id="xtick_3">
     <g id="line2d_3">
      <g>
       <use xlink:href="#m6c978e89cb" x="256.55496" y="223.754673" style="stroke: #000000; stroke-width: 0.8"/>
      </g>
     </g>
     <g id="text_3">
      <!-- sourmash -->
      <g transform="translate(241.188866 235.765141) scale(0.07 -0.07)">
       <use xlink:href="#ArialMT-73"/>
       <use xlink:href="#ArialMT-6f" x="50"/>
       <use xlink:href="#ArialMT-75" x="105.615234"/>
       <use xlink:href="#ArialMT-72" x="161.230469"/>
       <use xlink:href="#ArialMT-6d" x="194.53125"/>
       <use xlink:href="#ArialMT-61" x="277.832031"/>
       <use xlink:href="#ArialMT-73" x="333.447266"/>
       <use xlink:href="#ArialMT-68" x="383.447266"/>
      </g>
     </g>
    </g>
    <g id="xtick_4">
     <g id="line2d_4">
      <g>
       <use xlink:href="#m6c978e89cb" x="343.664882" y="223.754673" style="stroke: #000000; stroke-width: 0.8"/>
      </g>
     </g>
     <g id="text_4">
      <!-- FastANI -->
      <g transform="translate(331.023866 235.765141) scale(0.07 -0.07)">
       <defs>
        <path id="ArialMT-46" d="M 525 0 
L 525 4581 
L 3616 4581 
L 3616 4041 
L 1131 4041 
L 1131 2622 
L 3281 2622 
L 3281 2081 
L 1131 2081 
L 1131 0 
L 525 0 
z
" transform="scale(0.015625)"/>
        <path id="ArialMT-41" d="M -9 0 
L 1750 4581 
L 2403 4581 
L 4278 0 
L 3588 0 
L 3053 1388 
L 1138 1388 
L 634 0 
L -9 0 
z
M 1313 1881 
L 2866 1881 
L 2388 3150 
Q 2169 3728 2063 4100 
Q 1975 3659 1816 3225 
L 1313 1881 
z
" transform="scale(0.015625)"/>
        <path id="ArialMT-4e" d="M 488 0 
L 488 4581 
L 1109 4581 
L 3516 984 
L 3516 4581 
L 4097 4581 
L 4097 0 
L 3475 0 
L 1069 3600 
L 1069 0 
L 488 0 
z
" transform="scale(0.015625)"/>
        <path id="ArialMT-49" d="M 597 0 
L 597 4581 
L 1203 4581 
L 1203 0 
L 597 0 
z
" transform="scale(0.015625)"/>
       </defs>
       <use xlink:href="#ArialMT-46"/>
       <use xlink:href="#ArialMT-61" x="61.083984"/>
       <use xlink:href="#ArialMT-73" x="116.699219"/>
       <use xlink:href="#ArialMT-74" x="166.699219"/>
       <use xlink:href="#ArialMT-41" x="194.482422"/>
       <use xlink:href="#ArialMT-4e" x="261.181641"/>
       <use xlink:href="#ArialMT-49" x="333.398438"/>
      </g>
     </g>
    </g>
    <g id="xtick_5">
     <g id="line2d_5">
      <g>
       <use xlink:href="#m6c978e89cb" x="430.774803" y="223.754673" style="stroke: #000000; stroke-width: 0.8"/>
      </g>
     </g>
     <g id="text_5">
      <!-- Mash -->
      <g transform="translate(422.216756 235.765141) scale(0.07 -0.07)">
       <defs>
        <path id="ArialMT-4d" d="M 475 0 
L 475 4581 
L 1388 4581 
L 2472 1338 
Q 2622 884 2691 659 
Q 2769 909 2934 1394 
L 4031 4581 
L 4847 4581 
L 4847 0 
L 4263 0 
L 4263 3834 
L 2931 0 
L 2384 0 
L 1059 3900 
L 1059 0 
L 475 0 
z
" transform="scale(0.015625)"/>
       </defs>
       <use xlink:href="#ArialMT-4d"/>
       <use xlink:href="#ArialMT-61" x="83.300781"/>
       <use xlink:href="#ArialMT-73" x="138.916016"/>
       <use xlink:href="#ArialMT-68" x="188.916016"/>
      </g>
     </g>
    </g>
    <g id="text_6">
     <!-- Method -->
     <g transform="translate(244.881913 246.16686) scale(0.07 -0.07)">
      <defs>
       <path id="ArialMT-65" d="M 2694 1069 
L 3275 997 
Q 3138 488 2766 206 
Q 2394 -75 1816 -75 
Q 1088 -75 661 373 
Q 234 822 234 1631 
Q 234 2469 665 2931 
Q 1097 3394 1784 3394 
Q 2450 3394 2872 2941 
Q 3294 2488 3294 1666 
Q 3294 1616 3291 1516 
L 816 1516 
Q 847 969 1125 678 
Q 1403 388 1819 388 
Q 2128 388 2347 550 
Q 2566 713 2694 1069 
z
M 847 1978 
L 2700 1978 
Q 2663 2397 2488 2606 
Q 2219 2931 1791 2931 
Q 1403 2931 1139 2672 
Q 875 2413 847 1978 
z
" transform="scale(0.015625)"/>
       <path id="ArialMT-64" d="M 2575 0 
L 2575 419 
Q 2259 -75 1647 -75 
Q 1250 -75 917 144 
Q 584 363 401 755 
Q 219 1147 219 1656 
Q 219 2153 384 2558 
Q 550 2963 881 3178 
Q 1213 3394 1622 3394 
Q 1922 3394 2156 3267 
Q 2391 3141 2538 2938 
L 2538 4581 
L 3097 4581 
L 3097 0 
L 2575 0 
z
M 797 1656 
Q 797 1019 1065 703 
Q 1334 388 1700 388 
Q 2069 388 2326 689 
Q 2584 991 2584 1609 
Q 2584 2291 2321 2609 
Q 2059 2928 1675 2928 
Q 1300 2928 1048 2622 
Q 797 2316 797 1656 
z
" transform="scale(0.015625)"/>
      </defs>
      <use xlink:href="#ArialMT-4d"/>
      <use xlink:href="#ArialMT-65" x="83.300781"/>
      <use xlink:href="#ArialMT-74" x="138.916016"/>
      <use xlink:href="#ArialMT-68" x="166.699219"/>
      <use xlink:href="#ArialMT-6f" x="222.314453"/>
      <use xlink:href="#ArialMT-64" x="277.929688"/>
     </g>
    </g>
   </g>
   <g id="matplotlib.axis_2">
    <g id="ytick_1">
     <g id="line2d_6">
      <defs>
       <path id="madeef09f9f" d="M 0 0 
L -3.5 0 
" style="stroke: #000000; stroke-width: 0.8"/>
      </defs>
      <g>
       <use xlink:href="#madeef09f9f" x="38.780156" y="202.993534" style="stroke: #000000; stroke-width: 0.8"/>
      </g>
     </g>
     <g id="text_7">
      <!-- −1.2 -->
      <g transform="translate(17.961719 205.498769) scale(0.07 -0.07)">
       <defs>
        <path id="ArialMT-2212" d="M 3381 1997 
L 356 1997 
L 356 2522 
L 3381 2522 
L 3381 1997 
z
" transform="scale(0.015625)"/>
        <path id="ArialMT-31" d="M 2384 0 
L 1822 0 
L 1822 3584 
Q 1619 3391 1289 3197 
Q 959 3003 697 2906 
L 697 3450 
Q 1169 3672 1522 3987 
Q 1875 4303 2022 4600 
L 2384 4600 
L 2384 0 
z
" transform="scale(0.015625)"/>
        <path id="ArialMT-2e" d="M 581 0 
L 581 641 
L 1222 641 
L 1222 0 
L 581 0 
z
" transform="scale(0.015625)"/>
        <path id="ArialMT-32" d="M 3222 541 
L 3222 0 
L 194 0 
Q 188 203 259 391 
Q 375 700 629 1000 
Q 884 1300 1366 1694 
Q 2113 2306 2375 2664 
Q 2638 3022 2638 3341 
Q 2638 3675 2398 3904 
Q 2159 4134 1775 4134 
Q 1369 4134 1125 3890 
Q 881 3647 878 3216 
L 300 3275 
Q 359 3922 746 4261 
Q 1134 4600 1788 4600 
Q 2447 4600 2831 4234 
Q 3216 3869 3216 3328 
Q 3216 3053 3103 2787 
Q 2991 2522 2730 2228 
Q 2469 1934 1863 1422 
Q 1356 997 1212 845 
Q 1069 694 975 541 
L 3222 541 
z
" transform="scale(0.015625)"/>
       </defs>
       <use xlink:href="#ArialMT-2212"/>
       <use xlink:href="#ArialMT-31" x="58.398438"/>
       <use xlink:href="#ArialMT-2e" x="114.013672"/>
       <use xlink:href="#ArialMT-32" x="141.796875"/>
      </g>
     </g>
    </g>
    <g id="ytick_2">
     <g id="line2d_7">
      <g>
       <use xlink:href="#madeef09f9f" x="38.780156" y="174.369248" style="stroke: #000000; stroke-width: 0.8"/>
      </g>
     </g>
     <g id="text_8">
      <!-- −1.0 -->
      <g transform="translate(17.961719 176.874482) scale(0.07 -0.07)">
       <defs>
        <path id="ArialMT-30" d="M 266 2259 
Q 266 3072 433 3567 
Q 600 4063 929 4331 
Q 1259 4600 1759 4600 
Q 2128 4600 2406 4451 
Q 2684 4303 2865 4023 
Q 3047 3744 3150 3342 
Q 3253 2941 3253 2259 
Q 3253 1453 3087 958 
Q 2922 463 2592 192 
Q 2263 -78 1759 -78 
Q 1097 -78 719 397 
Q 266 969 266 2259 
z
M 844 2259 
Q 844 1131 1108 757 
Q 1372 384 1759 384 
Q 2147 384 2411 759 
Q 2675 1134 2675 2259 
Q 2675 3391 2411 3762 
Q 2147 4134 1753 4134 
Q 1366 4134 1134 3806 
Q 844 3388 844 2259 
z
" transform="scale(0.015625)"/>
       </defs>
       <use xlink:href="#ArialMT-2212"/>
       <use xlink:href="#ArialMT-31" x="58.398438"/>
       <use xlink:href="#ArialMT-2e" x="114.013672"/>
       <use xlink:href="#ArialMT-30" x="141.796875"/>
      </g>
     </g>
    </g>
    <g id="ytick_3">
     <g id="line2d_8">
      <g>
       <use xlink:href="#madeef09f9f" x="38.780156" y="145.744962" style="stroke: #000000; stroke-width: 0.8"/>
      </g>
     </g>
     <g id="text_9">
      <!-- −0.8 -->
      <g transform="translate(17.961719 148.250196) scale(0.07 -0.07)">
       <defs>
        <path id="ArialMT-38" d="M 1131 2484 
Q 781 2613 612 2850 
Q 444 3088 444 3419 
Q 444 3919 803 4259 
Q 1163 4600 1759 4600 
Q 2359 4600 2725 4251 
Q 3091 3903 3091 3403 
Q 3091 3084 2923 2848 
Q 2756 2613 2416 2484 
Q 2838 2347 3058 2040 
Q 3278 1734 3278 1309 
Q 3278 722 2862 322 
Q 2447 -78 1769 -78 
Q 1091 -78 675 323 
Q 259 725 259 1325 
Q 259 1772 486 2073 
Q 713 2375 1131 2484 
z
M 1019 3438 
Q 1019 3113 1228 2906 
Q 1438 2700 1772 2700 
Q 2097 2700 2305 2904 
Q 2513 3109 2513 3406 
Q 2513 3716 2298 3927 
Q 2084 4138 1766 4138 
Q 1444 4138 1231 3931 
Q 1019 3725 1019 3438 
z
M 838 1322 
Q 838 1081 952 856 
Q 1066 631 1291 507 
Q 1516 384 1775 384 
Q 2178 384 2440 643 
Q 2703 903 2703 1303 
Q 2703 1709 2433 1975 
Q 2163 2241 1756 2241 
Q 1359 2241 1098 1978 
Q 838 1716 838 1322 
z
" transform="scale(0.015625)"/>
       </defs>
       <use xlink:href="#ArialMT-2212"/>
       <use xlink:href="#ArialMT-30" x="58.398438"/>
       <use xlink:href="#ArialMT-2e" x="114.013672"/>
       <use xlink:href="#ArialMT-38" x="141.796875"/>
      </g>
     </g>
    </g>
    <g id="ytick_4">
     <g id="line2d_9">
      <g>
       <use xlink:href="#madeef09f9f" x="38.780156" y="117.120676" style="stroke: #000000; stroke-width: 0.8"/>
      </g>
     </g>
     <g id="text_10">
      <!-- −0.6 -->
      <g transform="translate(17.961719 119.62591) scale(0.07 -0.07)">
       <defs>
        <path id="ArialMT-36" d="M 3184 3459 
L 2625 3416 
Q 2550 3747 2413 3897 
Q 2184 4138 1850 4138 
Q 1581 4138 1378 3988 
Q 1113 3794 959 3422 
Q 806 3050 800 2363 
Q 1003 2672 1297 2822 
Q 1591 2972 1913 2972 
Q 2475 2972 2870 2558 
Q 3266 2144 3266 1488 
Q 3266 1056 3080 686 
Q 2894 316 2569 119 
Q 2244 -78 1831 -78 
Q 1128 -78 684 439 
Q 241 956 241 2144 
Q 241 3472 731 4075 
Q 1159 4600 1884 4600 
Q 2425 4600 2770 4297 
Q 3116 3994 3184 3459 
z
M 888 1484 
Q 888 1194 1011 928 
Q 1134 663 1356 523 
Q 1578 384 1822 384 
Q 2178 384 2434 671 
Q 2691 959 2691 1453 
Q 2691 1928 2437 2201 
Q 2184 2475 1800 2475 
Q 1419 2475 1153 2201 
Q 888 1928 888 1484 
z
" transform="scale(0.015625)"/>
       </defs>
       <use xlink:href="#ArialMT-2212"/>
       <use xlink:href="#ArialMT-30" x="58.398438"/>
       <use xlink:href="#ArialMT-2e" x="114.013672"/>
       <use xlink:href="#ArialMT-36" x="141.796875"/>
      </g>
     </g>
    </g>
    <g id="ytick_5">
     <g id="line2d_10">
      <g>
       <use xlink:href="#madeef09f9f" x="38.780156" y="88.496389" style="stroke: #000000; stroke-width: 0.8"/>
      </g>
     </g>
     <g id="text_11">
      <!-- −0.4 -->
      <g transform="translate(17.961719 91.001624) scale(0.07 -0.07)">
       <defs>
        <path id="ArialMT-34" d="M 2069 0 
L 2069 1097 
L 81 1097 
L 81 1613 
L 2172 4581 
L 2631 4581 
L 2631 1613 
L 3250 1613 
L 3250 1097 
L 2631 1097 
L 2631 0 
L 2069 0 
z
M 2069 1613 
L 2069 3678 
L 634 1613 
L 2069 1613 
z
" transform="scale(0.015625)"/>
       </defs>
       <use xlink:href="#ArialMT-2212"/>
       <use xlink:href="#ArialMT-30" x="58.398438"/>
       <use xlink:href="#ArialMT-2e" x="114.013672"/>
       <use xlink:href="#ArialMT-34" x="141.796875"/>
      </g>
     </g>
    </g>
    <g id="ytick_6">
     <g id="line2d_11">
      <g>
       <use xlink:href="#madeef09f9f" x="38.780156" y="59.872103" style="stroke: #000000; stroke-width: 0.8"/>
      </g>
     </g>
     <g id="text_12">
      <!-- −0.2 -->
      <g transform="translate(17.961719 62.377338) scale(0.07 -0.07)">
       <use xlink:href="#ArialMT-2212"/>
       <use xlink:href="#ArialMT-30" x="58.398438"/>
       <use xlink:href="#ArialMT-2e" x="114.013672"/>
       <use xlink:href="#ArialMT-32" x="141.796875"/>
      </g>
     </g>
    </g>
    <g id="ytick_7">
     <g id="line2d_12">
      <g>
       <use xlink:href="#madeef09f9f" x="38.780156" y="31.247817" style="stroke: #000000; stroke-width: 0.8"/>
      </g>
     </g>
     <g id="text_13">
      <!-- 0.0 -->
      <g transform="translate(22.050156 33.753051) scale(0.07 -0.07)">
       <use xlink:href="#ArialMT-30"/>
       <use xlink:href="#ArialMT-2e" x="55.615234"/>
       <use xlink:href="#ArialMT-30" x="83.398438"/>
      </g>
     </g>
    </g>
    <g id="text_14">
     <!-- Method correlation - ANIm correlation -->
     <g transform="translate(12.570469 179.680274) rotate(-90) scale(0.07 -0.07)">
      <defs>
       <path id="ArialMT-6c" d="M 409 0 
L 409 4581 
L 972 4581 
L 972 0 
L 409 0 
z
" transform="scale(0.015625)"/>
      </defs>
      <use xlink:href="#ArialMT-4d"/>
      <use xlink:href="#ArialMT-65" x="83.300781"/>
      <use xlink:href="#ArialMT-74" x="138.916016"/>
      <use xlink:href="#ArialMT-68" x="166.699219"/>
      <use xlink:href="#ArialMT-6f" x="222.314453"/>
      <use xlink:href="#ArialMT-64" x="277.929688"/>
      <use xlink:href="#ArialMT-20" x="333.544922"/>
      <use xlink:href="#ArialMT-63" x="361.328125"/>
      <use xlink:href="#ArialMT-6f" x="411.328125"/>
      <use xlink:href="#ArialMT-72" x="466.943359"/>
      <use xlink:href="#ArialMT-72" x="500.244141"/>
      <use xlink:href="#ArialMT-65" x="533.544922"/>
      <use xlink:href="#ArialMT-6c" x="589.160156"/>
      <use xlink:href="#ArialMT-61" x="611.376953"/>
      <use xlink:href="#ArialMT-74" x="666.992188"/>
      <use xlink:href="#ArialMT-69" x="694.775391"/>
      <use xlink:href="#ArialMT-6f" x="716.992188"/>
      <use xlink:href="#ArialMT-6e" x="772.607422"/>
      <use xlink:href="#ArialMT-20" x="828.222656"/>
      <use xlink:href="#ArialMT-2d" x="856.005859"/>
      <use xlink:href="#ArialMT-20" x="889.306641"/>
      <use xlink:href="#ArialMT-41" x="911.589844"/>
      <use xlink:href="#ArialMT-4e" x="978.289062"/>
      <use xlink:href="#ArialMT-49" x="1050.505859"/>
      <use xlink:href="#ArialMT-6d" x="1078.289062"/>
      <use xlink:href="#ArialMT-20" x="1161.589844"/>
      <use xlink:href="#ArialMT-63" x="1189.373047"/>
      <use xlink:href="#ArialMT-6f" x="1239.373047"/>
      <use xlink:href="#ArialMT-72" x="1294.988281"/>
      <use xlink:href="#ArialMT-72" x="1328.289062"/>
      <use xlink:href="#ArialMT-65" x="1361.589844"/>
      <use xlink:href="#ArialMT-6c" x="1417.205078"/>
      <use xlink:href="#ArialMT-61" x="1439.421875"/>
      <use xlink:href="#ArialMT-74" x="1495.037109"/>
      <use xlink:href="#ArialMT-69" x="1522.820312"/>
      <use xlink:href="#ArialMT-6f" x="1545.037109"/>
      <use xlink:href="#ArialMT-6e" x="1600.652344"/>
     </g>
    </g>
   </g>
   <g id="patch_3">
    <path d="M 38.780156 223.754673 
L 38.780156 19.674937 
" style="fill: none; stroke: #000000; stroke-width: 0.8; stroke-linejoin: miter; stroke-linecap: square"/>
   </g>
   <g id="patch_4">
    <path d="M 474.329764 223.754673 
L 474.329764 19.674937 
" style="fill: none; stroke: #000000; stroke-width: 0.8; stroke-linejoin: miter; stroke-linecap: square"/>
   </g>
   <g id="patch_5">
    <path d="M 38.780156 223.754673 
L 474.329764 223.754673 
" style="fill: none; stroke: #000000; stroke-width: 0.8; stroke-linejoin: miter; stroke-linecap: square"/>
   </g>
   <g id="patch_6">
    <path d="M 38.780156 19.674937 
L 474.329764 19.674937 
" style="fill: none; stroke: #000000; stroke-width: 0.8; stroke-linejoin: miter; stroke-linecap: square"/>
   </g>
   <g id="text_15">
    <!-- Distribution of deviation from baseline (ANIm) cophenetic correlation (n = 238) -->
    <g transform="translate(111.711398 13.674937) scale(0.084 -0.084)">
     <defs>
      <path id="ArialMT-44" d="M 494 0 
L 494 4581 
L 2072 4581 
Q 2606 4581 2888 4516 
Q 3281 4425 3559 4188 
Q 3922 3881 4101 3404 
Q 4281 2928 4281 2316 
Q 4281 1794 4159 1391 
Q 4038 988 3847 723 
Q 3656 459 3429 307 
Q 3203 156 2883 78 
Q 2563 0 2147 0 
L 494 0 
z
M 1100 541 
L 2078 541 
Q 2531 541 2789 625 
Q 3047 709 3200 863 
Q 3416 1078 3536 1442 
Q 3656 1806 3656 2325 
Q 3656 3044 3420 3430 
Q 3184 3816 2847 3947 
Q 2603 4041 2063 4041 
L 1100 4041 
L 1100 541 
z
" transform="scale(0.015625)"/>
      <path id="ArialMT-62" d="M 941 0 
L 419 0 
L 419 4581 
L 981 4581 
L 981 2947 
Q 1338 3394 1891 3394 
Q 2197 3394 2470 3270 
Q 2744 3147 2920 2923 
Q 3097 2700 3197 2384 
Q 3297 2069 3297 1709 
Q 3297 856 2875 390 
Q 2453 -75 1863 -75 
Q 1275 -75 941 416 
L 941 0 
z
M 934 1684 
Q 934 1088 1097 822 
Q 1363 388 1816 388 
Q 2184 388 2453 708 
Q 2722 1028 2722 1663 
Q 2722 2313 2464 2622 
Q 2206 2931 1841 2931 
Q 1472 2931 1203 2611 
Q 934 2291 934 1684 
z
" transform="scale(0.015625)"/>
      <path id="ArialMT-66" d="M 556 0 
L 556 2881 
L 59 2881 
L 59 3319 
L 556 3319 
L 556 3672 
Q 556 4006 616 4169 
Q 697 4388 901 4523 
Q 1106 4659 1475 4659 
Q 1713 4659 2000 4603 
L 1916 4113 
Q 1741 4144 1584 4144 
Q 1328 4144 1222 4034 
Q 1116 3925 1116 3625 
L 1116 3319 
L 1763 3319 
L 1763 2881 
L 1116 2881 
L 1116 0 
L 556 0 
z
" transform="scale(0.015625)"/>
      <path id="ArialMT-76" d="M 1344 0 
L 81 3319 
L 675 3319 
L 1388 1331 
Q 1503 1009 1600 663 
Q 1675 925 1809 1294 
L 2547 3319 
L 3125 3319 
L 1869 0 
L 1344 0 
z
" transform="scale(0.015625)"/>
      <path id="ArialMT-28" d="M 1497 -1347 
Q 1031 -759 709 28 
Q 388 816 388 1659 
Q 388 2403 628 3084 
Q 909 3875 1497 4659 
L 1900 4659 
Q 1522 4009 1400 3731 
Q 1209 3300 1100 2831 
Q 966 2247 966 1656 
Q 966 153 1900 -1347 
L 1497 -1347 
z
" transform="scale(0.015625)"/>
      <path id="ArialMT-29" d="M 791 -1347 
L 388 -1347 
Q 1322 153 1322 1656 
Q 1322 2244 1188 2822 
Q 1081 3291 891 3722 
Q 769 4003 388 4659 
L 791 4659 
Q 1378 3875 1659 3084 
Q 1900 2403 1900 1659 
Q 1900 816 1576 28 
Q 1253 -759 791 -1347 
z
" transform="scale(0.015625)"/>
      <path id="ArialMT-70" d="M 422 -1272 
L 422 3319 
L 934 3319 
L 934 2888 
Q 1116 3141 1344 3267 
Q 1572 3394 1897 3394 
Q 2322 3394 2647 3175 
Q 2972 2956 3137 2557 
Q 3303 2159 3303 1684 
Q 3303 1175 3120 767 
Q 2938 359 2589 142 
Q 2241 -75 1856 -75 
Q 1575 -75 1351 44 
Q 1128 163 984 344 
L 984 -1272 
L 422 -1272 
z
M 931 1641 
Q 931 1000 1190 694 
Q 1450 388 1819 388 
Q 2194 388 2461 705 
Q 2728 1022 2728 1688 
Q 2728 2322 2467 2637 
Q 2206 2953 1844 2953 
Q 1484 2953 1207 2617 
Q 931 2281 931 1641 
z
" transform="scale(0.015625)"/>
      <path id="ArialMT-3d" d="M 3381 2694 
L 356 2694 
L 356 3219 
L 3381 3219 
L 3381 2694 
z
M 3381 1303 
L 356 1303 
L 356 1828 
L 3381 1828 
L 3381 1303 
z
" transform="scale(0.015625)"/>
      <path id="ArialMT-33" d="M 269 1209 
L 831 1284 
Q 928 806 1161 595 
Q 1394 384 1728 384 
Q 2125 384 2398 659 
Q 2672 934 2672 1341 
Q 2672 1728 2419 1979 
Q 2166 2231 1775 2231 
Q 1616 2231 1378 2169 
L 1441 2663 
Q 1497 2656 1531 2656 
Q 1891 2656 2178 2843 
Q 2466 3031 2466 3422 
Q 2466 3731 2256 3934 
Q 2047 4138 1716 4138 
Q 1388 4138 1169 3931 
Q 950 3725 888 3313 
L 325 3413 
Q 428 3978 793 4289 
Q 1159 4600 1703 4600 
Q 2078 4600 2393 4439 
Q 2709 4278 2876 4000 
Q 3044 3722 3044 3409 
Q 3044 3113 2884 2869 
Q 2725 2625 2413 2481 
Q 2819 2388 3044 2092 
Q 3269 1797 3269 1353 
Q 3269 753 2831 336 
Q 2394 -81 1725 -81 
Q 1122 -81 723 278 
Q 325 638 269 1209 
z
" transform="scale(0.015625)"/>
     </defs>
     <use xlink:href="#ArialMT-44"/>
     <use xlink:href="#ArialMT-69" x="72.216797"/>
     <use xlink:href="#ArialMT-73" x="94.433594"/>
     <use xlink:href="#ArialMT-74" x="144.433594"/>
     <use xlink:href="#ArialMT-72" x="172.216797"/>
     <use xlink:href="#ArialMT-69" x="205.517578"/>
     <use xlink:href="#ArialMT-62" x="227.734375"/>
     <use xlink:href="#ArialMT-75" x="283.349609"/>
     <use xlink:href="#ArialMT-74" x="338.964844"/>
     <use xlink:href="#ArialMT-69" x="366.748047"/>
     <use xlink:href="#ArialMT-6f" x="388.964844"/>
     <use xlink:href="#ArialMT-6e" x="444.580078"/>
     <use xlink:href="#ArialMT-20" x="500.195312"/>
     <use xlink:href="#ArialMT-6f" x="527.978516"/>
     <use xlink:href="#ArialMT-66" x="583.59375"/>
     <use xlink:href="#ArialMT-20" x="611.376953"/>
     <use xlink:href="#ArialMT-64" x="639.160156"/>
     <use xlink:href="#ArialMT-65" x="694.775391"/>
     <use xlink:href="#ArialMT-76" x="750.390625"/>
     <use xlink:href="#ArialMT-69" x="800.390625"/>
     <use xlink:href="#ArialMT-61" x="822.607422"/>
     <use xlink:href="#ArialMT-74" x="878.222656"/>
     <use xlink:href="#ArialMT-69" x="906.005859"/>
     <use xlink:href="#ArialMT-6f" x="928.222656"/>
     <use xlink:href="#ArialMT-6e" x="983.837891"/>
     <use xlink:href="#ArialMT-20" x="1039.453125"/>
     <use xlink:href="#ArialMT-66" x="1067.236328"/>
     <use xlink:href="#ArialMT-72" x="1095.019531"/>
     <use xlink:href="#ArialMT-6f" x="1128.320312"/>
     <use xlink:href="#ArialMT-6d" x="1183.935547"/>
     <use xlink:href="#ArialMT-20" x="1267.236328"/>
     <use xlink:href="#ArialMT-62" x="1295.019531"/>
     <use xlink:href="#ArialMT-61" x="1350.634766"/>
     <use xlink:href="#ArialMT-73" x="1406.25"/>
     <use xlink:href="#ArialMT-65" x="1456.25"/>
     <use xlink:href="#ArialMT-6c" x="1511.865234"/>
     <use xlink:href="#ArialMT-69" x="1534.082031"/>
     <use xlink:href="#ArialMT-6e" x="1556.298828"/>
     <use xlink:href="#ArialMT-65" x="1611.914062"/>
     <use xlink:href="#ArialMT-20" x="1667.529297"/>
     <use xlink:href="#ArialMT-28" x="1695.3125"/>
     <use xlink:href="#ArialMT-41" x="1728.613281"/>
     <use xlink:href="#ArialMT-4e" x="1795.3125"/>
     <use xlink:href="#ArialMT-49" x="1867.529297"/>
     <use xlink:href="#ArialMT-6d" x="1895.3125"/>
     <use xlink:href="#ArialMT-29" x="1978.613281"/>
     <use xlink:href="#ArialMT-20" x="2011.914062"/>
     <use xlink:href="#ArialMT-63" x="2039.697266"/>
     <use xlink:href="#ArialMT-6f" x="2089.697266"/>
     <use xlink:href="#ArialMT-70" x="2145.3125"/>
     <use xlink:href="#ArialMT-68" x="2200.927734"/>
     <use xlink:href="#ArialMT-65" x="2256.542969"/>
     <use xlink:href="#ArialMT-6e" x="2312.158203"/>
     <use xlink:href="#ArialMT-65" x="2367.773438"/>
     <use xlink:href="#ArialMT-74" x="2423.388672"/>
     <use xlink:href="#ArialMT-69" x="2451.171875"/>
     <use xlink:href="#ArialMT-63" x="2473.388672"/>
     <use xlink:href="#ArialMT-20" x="2523.388672"/>
     <use xlink:href="#ArialMT-63" x="2551.171875"/>
     <use xlink:href="#ArialMT-6f" x="2601.171875"/>
     <use xlink:href="#ArialMT-72" x="2656.787109"/>
     <use xlink:href="#ArialMT-72" x="2690.087891"/>
     <use xlink:href="#ArialMT-65" x="2723.388672"/>
     <use xlink:href="#ArialMT-6c" x="2779.003906"/>
     <use xlink:href="#ArialMT-61" x="2801.220703"/>
     <use xlink:href="#ArialMT-74" x="2856.835938"/>
     <use xlink:href="#ArialMT-69" x="2884.619141"/>
     <use xlink:href="#ArialMT-6f" x="2906.835938"/>
     <use xlink:href="#ArialMT-6e" x="2962.451172"/>
     <use xlink:href="#ArialMT-20" x="3018.066406"/>
     <use xlink:href="#ArialMT-28" x="3045.849609"/>
     <use xlink:href="#ArialMT-6e" x="3079.150391"/>
     <use xlink:href="#ArialMT-20" x="3134.765625"/>
     <use xlink:href="#ArialMT-3d" x="3162.548828"/>
     <use xlink:href="#ArialMT-20" x="3220.947266"/>
     <use xlink:href="#ArialMT-32" x="3248.730469"/>
     <use xlink:href="#ArialMT-33" x="3304.345703"/>
     <use xlink:href="#ArialMT-38" x="3359.960938"/>
     <use xlink:href="#ArialMT-29" x="3415.576172"/>
    </g>
   </g>
   <g id="legend_1">
    <g id="patch_7">
     <path d="M 43.680156 220.254673 
L 176.178125 220.254673 
Q 177.578125 220.254673 177.578125 218.854673 
L 177.578125 160.14436 
Q 177.578125 158.74436 176.178125 158.74436 
L 43.680156 158.74436 
Q 42.280156 158.74436 42.280156 160.14436 
L 42.280156 218.854673 
Q 42.280156 220.254673 43.680156 220.254673 
z
" style="fill: #ffffff; opacity: 0.8; stroke: #cccccc; stroke-linejoin: miter"/>
    </g>
    <g id="text_16">
     <!-- method: mean deviation -->
     <g transform="translate(72.575391 166.554829) scale(0.07 -0.07)">
      <defs>
       <path id="ArialMT-3a" d="M 578 2678 
L 578 3319 
L 1219 3319 
L 1219 2678 
L 578 2678 
z
M 578 0 
L 578 641 
L 1219 641 
L 1219 0 
L 578 0 
z
" transform="scale(0.015625)"/>
      </defs>
      <use xlink:href="#ArialMT-6d"/>
      <use xlink:href="#ArialMT-65" x="83.300781"/>
      <use xlink:href="#ArialMT-74" x="138.916016"/>
      <use xlink:href="#ArialMT-68" x="166.699219"/>
      <use xlink:href="#ArialMT-6f" x="222.314453"/>
      <use xlink:href="#ArialMT-64" x="277.929688"/>
      <use xlink:href="#ArialMT-3a" x="333.544922"/>
      <use xlink:href="#ArialMT-20" x="361.328125"/>
      <use xlink:href="#ArialMT-6d" x="389.111328"/>
      <use xlink:href="#ArialMT-65" x="472.412109"/>
      <use xlink:href="#ArialMT-61" x="528.027344"/>
      <use xlink:href="#ArialMT-6e" x="583.642578"/>
      <use xlink:href="#ArialMT-20" x="639.257812"/>
      <use xlink:href="#ArialMT-64" x="667.041016"/>
      <use xlink:href="#ArialMT-65" x="722.65625"/>
      <use xlink:href="#ArialMT-76" x="778.271484"/>
      <use xlink:href="#ArialMT-69" x="828.271484"/>
      <use xlink:href="#ArialMT-61" x="850.488281"/>
      <use xlink:href="#ArialMT-74" x="906.103516"/>
      <use xlink:href="#ArialMT-69" x="933.886719"/>
      <use xlink:href="#ArialMT-6f" x="956.103516"/>
      <use xlink:href="#ArialMT-6e" x="1011.71875"/>
     </g>
    </g>
    <g id="patch_8">
     <path d="M 45.080156 176.456548 
L 59.080156 176.456548 
L 59.080156 171.556548 
L 45.080156 171.556548 
z
" style="fill: #4878d0; stroke: #000000; stroke-linejoin: miter"/>
    </g>
    <g id="text_17">
     <!-- skani: -0.038 -->
     <g transform="translate(64.680156 176.456548) scale(0.07 -0.07)">
      <use xlink:href="#ArialMT-73"/>
      <use xlink:href="#ArialMT-6b" x="50"/>
      <use xlink:href="#ArialMT-61" x="100"/>
      <use xlink:href="#ArialMT-6e" x="155.615234"/>
      <use xlink:href="#ArialMT-69" x="211.230469"/>
      <use xlink:href="#ArialMT-3a" x="233.447266"/>
      <use xlink:href="#ArialMT-20" x="261.230469"/>
      <use xlink:href="#ArialMT-2d" x="289.013672"/>
      <use xlink:href="#ArialMT-30" x="322.314453"/>
      <use xlink:href="#ArialMT-2e" x="377.929688"/>
      <use xlink:href="#ArialMT-30" x="405.712891"/>
      <use xlink:href="#ArialMT-33" x="461.328125"/>
      <use xlink:href="#ArialMT-38" x="516.943359"/>
     </g>
    </g>
    <g id="patch_9">
     <path d="M 45.080156 186.358266 
L 59.080156 186.358266 
L 59.080156 181.458266 
L 45.080156 181.458266 
z
" style="fill: url(#h5c3f62991a); stroke: #000000; stroke-linejoin: miter"/>
    </g>
    <g id="text_18">
     <!-- sourmash max-containment: -0.148 -->
     <g transform="translate(64.680156 186.358266) scale(0.07 -0.07)">
      <use xlink:href="#ArialMT-73"/>
      <use xlink:href="#ArialMT-6f" x="50"/>
      <use xlink:href="#ArialMT-75" x="105.615234"/>
      <use xlink:href="#ArialMT-72" x="161.230469"/>
      <use xlink:href="#ArialMT-6d" x="194.53125"/>
      <use xlink:href="#ArialMT-61" x="277.832031"/>
      <use xlink:href="#ArialMT-73" x="333.447266"/>
      <use xlink:href="#ArialMT-68" x="383.447266"/>
      <use xlink:href="#ArialMT-20" x="439.0625"/>
      <use xlink:href="#ArialMT-6d" x="466.845703"/>
      <use xlink:href="#ArialMT-61" x="550.146484"/>
      <use xlink:href="#ArialMT-78" x="605.761719"/>
      <use xlink:href="#ArialMT-2d" x="655.761719"/>
      <use xlink:href="#ArialMT-63" x="689.0625"/>
      <use xlink:href="#ArialMT-6f" x="739.0625"/>
      <use xlink:href="#ArialMT-6e" x="794.677734"/>
      <use xlink:href="#ArialMT-74" x="850.292969"/>
      <use xlink:href="#ArialMT-61" x="878.076172"/>
      <use xlink:href="#ArialMT-69" x="933.691406"/>
      <use xlink:href="#ArialMT-6e" x="955.908203"/>
      <use xlink:href="#ArialMT-6d" x="1011.523438"/>
      <use xlink:href="#ArialMT-65" x="1094.824219"/>
      <use xlink:href="#ArialMT-6e" x="1150.439453"/>
      <use xlink:href="#ArialMT-74" x="1206.054688"/>
      <use xlink:href="#ArialMT-3a" x="1233.837891"/>
      <use xlink:href="#ArialMT-20" x="1261.621094"/>
      <use xlink:href="#ArialMT-2d" x="1289.404297"/>
      <use xlink:href="#ArialMT-30" x="1322.705078"/>
      <use xlink:href="#ArialMT-2e" x="1378.320312"/>
      <use xlink:href="#ArialMT-31" x="1406.103516"/>
      <use xlink:href="#ArialMT-34" x="1461.71875"/>
      <use xlink:href="#ArialMT-38" x="1517.333984"/>
     </g>
    </g>
    <g id="patch_10">
     <path d="M 45.080156 196.259985 
L 59.080156 196.259985 
L 59.080156 191.359985 
L 45.080156 191.359985 
z
" style="fill: #d65f5f; stroke: #000000; stroke-linejoin: miter"/>
    </g>
    <g id="text_19">
     <!-- sourmash: -0.341 -->
     <g transform="translate(64.680156 196.259985) scale(0.07 -0.07)">
      <use xlink:href="#ArialMT-73"/>
      <use xlink:href="#ArialMT-6f" x="50"/>
      <use xlink:href="#ArialMT-75" x="105.615234"/>
      <use xlink:href="#ArialMT-72" x="161.230469"/>
      <use xlink:href="#ArialMT-6d" x="194.53125"/>
      <use xlink:href="#ArialMT-61" x="277.832031"/>
      <use xlink:href="#ArialMT-73" x="333.447266"/>
      <use xlink:href="#ArialMT-68" x="383.447266"/>
      <use xlink:href="#ArialMT-3a" x="439.0625"/>
      <use xlink:href="#ArialMT-20" x="466.845703"/>
      <use xlink:href="#ArialMT-2d" x="494.628906"/>
      <use xlink:href="#ArialMT-30" x="527.929688"/>
      <use xlink:href="#ArialMT-2e" x="583.544922"/>
      <use xlink:href="#ArialMT-33" x="611.328125"/>
      <use xlink:href="#ArialMT-34" x="666.943359"/>
      <use xlink:href="#ArialMT-31" x="722.558594"/>
     </g>
    </g>
    <g id="patch_11">
     <path d="M 45.080156 206.161704 
L 59.080156 206.161704 
L 59.080156 201.261704 
L 45.080156 201.261704 
z
" style="fill: #ee854a; stroke: #000000; stroke-linejoin: miter"/>
    </g>
    <g id="text_20">
     <!-- fastani: -0.228 -->
     <g transform="translate(64.680156 206.161704) scale(0.07 -0.07)">
      <use xlink:href="#ArialMT-66"/>
      <use xlink:href="#ArialMT-61" x="27.783203"/>
      <use xlink:href="#ArialMT-73" x="83.398438"/>
      <use xlink:href="#ArialMT-74" x="133.398438"/>
      <use xlink:href="#ArialMT-61" x="161.181641"/>
      <use xlink:href="#ArialMT-6e" x="216.796875"/>
      <use xlink:href="#ArialMT-69" x="272.412109"/>
      <use xlink:href="#ArialMT-3a" x="294.628906"/>
      <use xlink:href="#ArialMT-20" x="322.412109"/>
      <use xlink:href="#ArialMT-2d" x="350.195312"/>
      <use xlink:href="#ArialMT-30" x="383.496094"/>
      <use xlink:href="#ArialMT-2e" x="439.111328"/>
      <use xlink:href="#ArialMT-32" x="466.894531"/>
      <use xlink:href="#ArialMT-32" x="522.509766"/>
      <use xlink:href="#ArialMT-38" x="578.125"/>
     </g>
    </g>
    <g id="patch_12">
     <path d="M 45.080156 216.063423 
L 59.080156 216.063423 
L 59.080156 211.163423 
L 45.080156 211.163423 
z
" style="fill: #6acc64; stroke: #000000; stroke-linejoin: miter"/>
    </g>
    <g id="text_21">
     <!-- mash: -0.424 -->
     <g transform="translate(64.680156 216.063423) scale(0.07 -0.07)">
      <use xlink:href="#ArialMT-6d"/>
      <use xlink:href="#ArialMT-61" x="83.300781"/>
      <use xlink:href="#ArialMT-73" x="138.916016"/>
      <use xlink:href="#ArialMT-68" x="188.916016"/>
      <use xlink:href="#ArialMT-3a" x="244.53125"/>
      <use xlink:href="#ArialMT-20" x="272.314453"/>
      <use xlink:href="#ArialMT-2d" x="300.097656"/>
      <use xlink:href="#ArialMT-30" x="333.398438"/>
      <use xlink:href="#ArialMT-2e" x="389.013672"/>
      <use xlink:href="#ArialMT-34" x="416.796875"/>
      <use xlink:href="#ArialMT-32" x="472.412109"/>
      <use xlink:href="#ArialMT-34" x="528.027344"/>
     </g>
    </g>
   </g>
  </g>
 </g>
 <defs>
  <clipPath id="paf5301e5f2">
   <rect x="38.780156" y="19.674937" width="435.549608" height="204.079735"/>
  </clipPath>
 </defs>
 <defs>
  <pattern id="hf4138f8f1d" patternUnits="userSpaceOnUse" x="0" y="0" width="72" height="72">
   <rect x="0" y="0" width="73" height="73" fill="#d65f5f"/>
   <path d="M -36 36 
L 36 -36 
M -32 40 
L 40 -32 
M -28 44 
L 44 -28 
M -24 48 
L 48 -24 
M -20 52 
L 52 -20 
M -16 56 
L 56 -16 
M -12 60 
L 60 -12 
M -8 64 
L 64 -8 
M -4 68 
L 68 -4 
M 0 72 
L 72 0 
M 4 76 
L 76 4 
M 8 80 
L 80 8 
M 12 84 
L 84 12 
M 16 88 
L 88 16 
M 20 92 
L 92 20 
M 24 96 
L 96 24 
M 28 100 
L 100 28 
M 32 104 
L 104 32 
M 36 108 
L 108 36 
" style="fill: #545454; stroke: #545454; stroke-width: 1.0; stroke-linecap: butt; stroke-linejoin: miter"/>
  </pattern>
  <pattern id="h5c3f62991a" patternUnits="userSpaceOnUse" x="0" y="0" width="72" height="72">
   <rect x="0" y="0" width="73" height="73" fill="#d65f5f"/>
   <path d="M -36 36 
L 36 -36 
M -32 40 
L 40 -32 
M -28 44 
L 44 -28 
M -24 48 
L 48 -24 
M -20 52 
L 52 -20 
M -16 56 
L 56 -16 
M -12 60 
L 60 -12 
M -8 64 
L 64 -8 
M -4 68 
L 68 -4 
M 0 72 
L 72 0 
M 4 76 
L 76 4 
M 8 80 
L 80 8 
M 12 84 
L 84 12 
M 16 88 
L 88 16 
M 20 92 
L 92 20 
M 24 96 
L 96 24 
M 28 100 
L 100 28 
M 32 104 
L 104 32 
M 36 108 
L 108 36 
" style="fill: #000000; stroke: #000000; stroke-width: 1.0; stroke-linecap: butt; stroke-linejoin: miter"/>
  </pattern>
 </defs>
</svg>
