<?xml version="1.0" encoding="utf-8" standalone="no"?>
<!DOCTYPE svg PUBLIC "-//W3C//DTD SVG 1.1//EN"
  "http://www.w3.org/Graphics/SVG/1.1/DTD/svg11.dtd">
<svg xmlns:xlink="http://www.w3.org/1999/xlink" width="453.543307pt" height="255.11811pt" viewBox="0 0 453.543307 255.11811" xmlns="http://www.w3.org/2000/svg" version="1.1">
 <metadata>
  <rdf:RDF xmlns:dc="http://purl.org/dc/elements/1.1/" xmlns:cc="http://creativecommons.org/ns#" xmlns:rdf="http://www.w3.org/1999/02/22-rdf-syntax-ns#">
   <cc:Work>
    <dc:type rdf:resource="http://purl.org/dc/dcmitype/StillImage"/>
    <dc:date>2023-01-06T17:06:50.500365</dc:date>
    <dc:format>image/svg+xml</dc:format>
    <dc:creator>
     <cc:Agent>
      <dc:title>Matplotlib v3.6.2, https://matplotlib.org/</dc:title>
     </cc:Agent>
    </dc:creator>
   </cc:Work>
  </rdf:RDF>
 </metadata>
 <defs>
  <style type="text/css">*{stroke-linejoin: round; stroke-linecap: butt}</style>
 </defs>
 <g id="figure_1">
  <g id="patch_1">
   <path d="M 0 255.11811 
L 453.543307 255.11811 
L 453.543307 0 
L 0 0 
L 0 255.11811 
z
" style="fill: none"/>
  </g>
  <g id="axes_1">
   <g id="patch_2">
    <path d="M 38.780156 223.754673 
L 445.983307 223.754673 
L 445.983307 19.674937 
L 38.780156 19.674937 
L 38.780156 223.754673 
z
" style="fill: none"/>
   </g>
   <g id="PolyCollection_1">
    <defs>
     <path id="md83877a756" d="M 79.723437 -73.562608 
L 79.277506 -73.562608 
L 79.288374 -75.104065 
L 79.3179 -76.645522 
L 79.358263 -78.186978 
L 79.400237 -79.728435 
L 79.436542 -81.269892 
L 79.463575 -82.811348 
L 79.481202 -84.352805 
L 79.491365 -85.894262 
L 79.496577 -87.435718 
L 79.498964 -88.977175 
L 79.499944 -90.518632 
L 79.500304 -92.060089 
L 79.500423 -93.601545 
L 79.500459 -95.143002 
L 79.500468 -96.684459 
L 79.50047 -98.225915 
L 79.50047 -99.767372 
L 79.500466 -101.308829 
L 79.50045 -102.850285 
L 79.500392 -104.391742 
L 79.500206 -105.933199 
L 79.499667 -107.474656 
L 79.498263 -109.016112 
L 79.494983 -110.557569 
L 79.488128 -112.099026 
L 79.475351 -113.640482 
L 79.45421 -115.181939 
L 79.423379 -116.723396 
L 79.384219 -118.264852 
L 79.341839 -119.806309 
L 79.304598 -121.347766 
L 79.281615 -122.889222 
L 79.279193 -124.430679 
L 79.298022 -125.972136 
L 79.332865 -127.513593 
L 79.374908 -129.055049 
L 79.415351 -130.596506 
L 79.448256 -132.137963 
L 79.471487 -133.679419 
L 79.485912 -135.220876 
L 79.493851 -136.762333 
L 79.497737 -138.303789 
L 79.499408 -139.845246 
L 79.499941 -141.386703 
L 79.499727 -142.92816 
L 79.498476 -144.469616 
L 79.494994 -146.011073 
L 79.486684 -147.55253 
L 79.469 -149.093986 
L 79.435386 -150.635443 
L 79.378525 -152.1769 
L 79.293471 -153.718356 
L 79.182122 -155.259813 
L 79.056884 -156.80127 
L 78.940442 -158.342727 
L 78.85981 -159.884183 
L 78.836258 -161.42564 
L 78.876065 -162.967097 
L 78.967393 -164.508553 
L 79.085131 -166.05001 
L 79.200697 -167.591467 
L 79.291394 -169.132923 
L 79.345318 -170.67438 
L 79.36134 -172.215837 
L 79.346125 -173.757293 
L 79.310253 -175.29875 
L 79.264326 -176.840207 
L 79.215393 -178.381664 
L 79.164618 -179.92312 
L 79.107625 -181.464577 
L 79.037988 -183.006034 
L 78.952138 -184.54749 
L 78.852431 -186.088947 
L 78.746062 -187.630404 
L 78.640411 -189.17186 
L 78.537875 -190.713317 
L 78.433323 -192.254774 
L 78.314986 -193.796231 
L 78.167311 -195.337687 
L 77.973668 -196.879144 
L 77.717805 -198.420601 
L 77.383713 -199.962057 
L 76.953098 -201.503514 
L 76.398794 -203.044971 
L 75.673595 -204.586427 
L 74.697219 -206.127884 
L 73.346914 -207.669341 
L 71.457339 -209.210797 
L 68.835546 -210.752254 
L 65.301164 -212.293711 
L 60.765746 -213.835168 
L 55.352858 -215.376624 
L 49.521252 -216.918081 
L 44.10633 -218.459538 
L 40.189579 -220.000994 
L 38.780156 -221.542451 
L 40.421775 -223.083908 
L 44.927789 -224.625364 
L 51.408542 -226.166821 
L 107.5924 -226.166821 
L 107.5924 -226.166821 
L 114.073154 -224.625364 
L 118.579167 -223.083908 
L 120.220786 -221.542451 
L 118.811363 -220.000994 
L 114.894613 -218.459538 
L 109.479691 -216.918081 
L 103.648085 -215.376624 
L 98.235197 -213.835168 
L 93.699779 -212.293711 
L 90.165397 -210.752254 
L 87.543603 -209.210797 
L 85.654028 -207.669341 
L 84.303724 -206.127884 
L 83.327348 -204.586427 
L 82.602149 -203.044971 
L 82.047845 -201.503514 
L 81.617229 -199.962057 
L 81.283138 -198.420601 
L 81.027275 -196.879144 
L 80.833632 -195.337687 
L 80.685956 -193.796231 
L 80.567619 -192.254774 
L 80.463068 -190.713317 
L 80.360532 -189.17186 
L 80.25488 -187.630404 
L 80.148512 -186.088947 
L 80.048804 -184.54749 
L 79.962954 -183.006034 
L 79.893318 -181.464577 
L 79.836325 -179.92312 
L 79.78555 -178.381664 
L 79.736617 -176.840207 
L 79.690689 -175.29875 
L 79.654817 -173.757293 
L 79.639602 -172.215837 
L 79.655624 -170.67438 
L 79.709549 -169.132923 
L 79.800246 -167.591467 
L 79.915812 -166.05001 
L 80.033549 -164.508553 
L 80.124878 -162.967097 
L 80.164685 -161.42564 
L 80.141133 -159.884183 
L 80.060501 -158.342727 
L 79.944059 -156.80127 
L 79.818821 -155.259813 
L 79.707472 -153.718356 
L 79.622418 -152.1769 
L 79.565557 -150.635443 
L 79.531942 -149.093986 
L 79.514259 -147.55253 
L 79.505949 -146.011073 
L 79.502467 -144.469616 
L 79.501216 -142.92816 
L 79.501001 -141.386703 
L 79.501535 -139.845246 
L 79.503205 -138.303789 
L 79.507091 -136.762333 
L 79.515031 -135.220876 
L 79.529456 -133.679419 
L 79.552687 -132.137963 
L 79.585591 -130.596506 
L 79.626035 -129.055049 
L 79.668078 -127.513593 
L 79.702921 -125.972136 
L 79.72175 -124.430679 
L 79.719328 -122.889222 
L 79.696345 -121.347766 
L 79.659103 -119.806309 
L 79.616724 -118.264852 
L 79.577564 -116.723396 
L 79.546733 -115.181939 
L 79.525591 -113.640482 
L 79.512814 -112.099026 
L 79.505959 -110.557569 
L 79.502679 -109.016112 
L 79.501275 -107.474656 
L 79.500736 -105.933199 
L 79.50055 -104.391742 
L 79.500493 -102.850285 
L 79.500477 -101.308829 
L 79.500473 -99.767372 
L 79.500472 -98.225915 
L 79.500474 -96.684459 
L 79.500484 -95.143002 
L 79.500519 -93.601545 
L 79.500639 -92.060089 
L 79.500999 -90.518632 
L 79.501978 -88.977175 
L 79.504366 -87.435718 
L 79.509578 -85.894262 
L 79.519741 -84.352805 
L 79.537368 -82.811348 
L 79.564401 -81.269892 
L 79.600705 -79.728435 
L 79.64268 -78.186978 
L 79.683042 -76.645522 
L 79.712569 -75.104065 
L 79.723437 -73.562608 
z
" style="stroke: #545454; stroke-width: 1.5"/>
    </defs>
    <g clip-path="url(#pf78783e602)">
     <use xlink:href="#md83877a756" x="0" y="255.11811" style="fill: #4878d0; stroke: #545454; stroke-width: 1.5"/>
    </g>
   </g>
   <g id="PolyCollection_2">
    <path d="M 161.074485 198.09099 
L 160.807718 198.09099 
L 160.810537 196.406439 
L 160.81864 194.721887 
L 160.831043 193.037335 
L 160.846325 191.352783 
L 160.862897 189.668231 
L 160.879269 187.98368 
L 160.894253 186.299128 
L 160.907081 184.614576 
L 160.917406 182.930024 
L 160.925238 181.245473 
L 160.930816 179.560921 
L 160.934491 177.876369 
L 160.936601 176.191817 
L 160.937395 174.507265 
L 160.936977 172.822714 
L 160.935283 171.138162 
L 160.93209 169.45361 
L 160.92705 167.769058 
L 160.919753 166.084506 
L 160.909823 164.399955 
L 160.897022 162.715403 
L 160.881362 161.030851 
L 160.863184 159.346299 
L 160.84318 157.661748 
L 160.822337 155.977196 
L 160.801815 154.292644 
L 160.782782 152.608092 
L 160.76625 150.92354 
L 160.75296 149.238989 
L 160.743346 147.554437 
L 160.737567 145.869885 
L 160.735558 144.185333 
L 160.737061 142.500781 
L 160.74157 140.81623 
L 160.748196 139.131678 
L 160.755459 137.447126 
L 160.761108 135.762574 
L 160.762022 134.078022 
L 160.754291 132.393471 
L 160.733517 130.708919 
L 160.695316 129.024367 
L 160.635995 127.339815 
L 160.553255 125.655264 
L 160.446815 123.970712 
L 160.318766 122.28616 
L 160.173563 120.601608 
L 160.017582 118.917056 
L 159.858347 117.232505 
L 159.703549 115.547953 
L 159.560131 113.863401 
L 159.43361 112.178849 
L 159.32776 110.494297 
L 159.244634 108.809746 
L 159.184778 107.125194 
L 159.147449 105.440642 
L 159.1307 103.75609 
L 159.131296 102.071539 
L 159.144552 100.386987 
L 159.164247 98.702435 
L 159.182784 97.017883 
L 159.191678 95.333331 
L 159.182347 93.64878 
L 159.147084 91.964228 
L 159.080023 90.279676 
L 158.977913 88.595124 
L 158.840556 86.910572 
L 158.670804 85.226021 
L 158.474106 83.541469 
L 158.257638 81.856917 
L 158.02909 80.172365 
L 157.795259 78.487814 
L 157.560623 76.803262 
L 157.326107 75.11871 
L 157.088286 73.434158 
L 156.839218 71.749606 
L 156.567039 70.065055 
L 156.25731 68.380503 
L 155.894927 66.695951 
L 155.46629 65.011399 
L 154.961298 63.326847 
L 154.374761 61.642296 
L 153.70693 59.957744 
L 152.963062 58.273192 
L 152.152218 56.58864 
L 151.28576 54.904089 
L 150.376179 53.219537 
L 149.436923 51.534985 
L 148.483637 49.850433 
L 147.53681 48.165881 
L 146.625198 46.48133 
L 145.788857 44.796778 
L 145.080248 43.112226 
L 144.562033 41.427674 
L 144.30083 39.743122 
L 144.35735 38.058571 
L 144.774636 36.374019 
L 145.567128 34.689467 
L 146.713573 33.004915 
L 148.156118 31.320364 
L 173.726085 31.320364 
L 173.726085 31.320364 
L 175.16863 33.004915 
L 176.315075 34.689467 
L 177.107567 36.374019 
L 177.524853 38.058571 
L 177.581373 39.743122 
L 177.32017 41.427674 
L 176.801955 43.112226 
L 176.093346 44.796778 
L 175.257005 46.48133 
L 174.345393 48.165881 
L 173.398566 49.850433 
L 172.44528 51.534985 
L 171.506024 53.219537 
L 170.596443 54.904089 
L 169.729985 56.58864 
L 168.919141 58.273192 
L 168.175273 59.957744 
L 167.507442 61.642296 
L 166.920905 63.326847 
L 166.415913 65.011399 
L 165.987276 66.695951 
L 165.624893 68.380503 
L 165.315164 70.065055 
L 165.042985 71.749606 
L 164.793917 73.434158 
L 164.556096 75.11871 
L 164.32158 76.803262 
L 164.086944 78.487814 
L 163.853113 80.172365 
L 163.624565 81.856917 
L 163.408097 83.541469 
L 163.211399 85.226021 
L 163.041647 86.910572 
L 162.90429 88.595124 
L 162.80218 90.279676 
L 162.735119 91.964228 
L 162.699856 93.64878 
L 162.690525 95.333331 
L 162.699419 97.017883 
L 162.717956 98.702435 
L 162.737651 100.386987 
L 162.750907 102.071539 
L 162.751503 103.75609 
L 162.734754 105.440642 
L 162.697425 107.125194 
L 162.637569 108.809746 
L 162.554443 110.494297 
L 162.448593 112.178849 
L 162.322072 113.863401 
L 162.178654 115.547953 
L 162.023856 117.232505 
L 161.864621 118.917056 
L 161.70864 120.601608 
L 161.563437 122.28616 
L 161.435388 123.970712 
L 161.328948 125.655264 
L 161.246208 127.339815 
L 161.186887 129.024367 
L 161.148686 130.708919 
L 161.127912 132.393471 
L 161.120181 134.078022 
L 161.121095 135.762574 
L 161.126744 137.447126 
L 161.134007 139.131678 
L 161.140633 140.81623 
L 161.145142 142.500781 
L 161.146645 144.185333 
L 161.144636 145.869885 
L 161.138857 147.554437 
L 161.129243 149.238989 
L 161.115953 150.92354 
L 161.099421 152.608092 
L 161.080388 154.292644 
L 161.059866 155.977196 
L 161.039023 157.661748 
L 161.019019 159.346299 
L 161.000841 161.030851 
L 160.985181 162.715403 
L 160.97238 164.399955 
L 160.96245 166.084506 
L 160.955153 167.769058 
L 160.950113 169.45361 
L 160.94692 171.138162 
L 160.945226 172.822714 
L 160.944808 174.507265 
L 160.945602 176.191817 
L 160.947712 177.876369 
L 160.951387 179.560921 
L 160.956965 181.245473 
L 160.964797 182.930024 
L 160.975122 184.614576 
L 160.98795 186.299128 
L 161.002934 187.98368 
L 161.019306 189.668231 
L 161.035878 191.352783 
L 161.05116 193.037335 
L 161.063563 194.721887 
L 161.071666 196.406439 
L 161.074485 198.09099 
z
" clip-path="url(#pf78783e602)" style="fill: url(#he6aa6ac567); stroke: #545454; stroke-width: 1.5"/>
   </g>
   <g id="PolyCollection_3">
    <defs>
     <path id="m63a337bab3" d="M 242.58447 -43.163727 
L 242.178994 -43.163727 
L 242.163692 -44.970102 
L 242.150426 -46.776477 
L 242.139391 -48.582852 
L 242.130626 -50.389228 
L 242.124021 -52.195603 
L 242.119341 -54.001978 
L 242.116265 -55.808353 
L 242.114438 -57.614728 
L 242.113517 -59.421103 
L 242.113226 -61.227478 
L 242.113389 -63.033853 
L 242.113946 -64.840228 
L 242.114945 -66.646603 
L 242.116507 -68.452979 
L 242.118763 -70.259354 
L 242.121779 -72.065729 
L 242.125464 -73.872104 
L 242.129483 -75.678479 
L 242.133195 -77.484854 
L 242.135616 -79.291229 
L 242.135423 -81.097604 
L 242.131008 -82.903979 
L 242.120578 -84.710354 
L 242.102295 -86.51673 
L 242.074434 -88.323105 
L 242.035561 -90.12948 
L 241.984685 -91.935855 
L 241.921378 -93.74223 
L 241.845841 -95.548605 
L 241.7589 -97.35498 
L 241.661925 -99.161355 
L 241.556684 -100.96773 
L 241.445135 -102.774105 
L 241.329198 -104.58048 
L 241.210512 -106.386856 
L 241.090227 -108.193231 
L 240.968853 -109.999606 
L 240.846179 -111.805981 
L 240.721276 -113.612356 
L 240.592582 -115.418731 
L 240.458056 -117.225106 
L 240.31539 -119.031481 
L 240.162244 -120.837856 
L 239.996508 -122.644231 
L 239.816548 -124.450607 
L 239.621446 -126.256982 
L 239.4112 -128.063357 
L 239.18689 -129.869732 
L 238.950784 -131.676107 
L 238.706363 -133.482482 
L 238.458261 -135.288857 
L 238.212094 -137.095232 
L 237.974176 -138.901607 
L 237.751117 -140.707982 
L 237.549335 -142.514358 
L 237.374509 -144.320733 
L 237.231029 -146.127108 
L 237.121511 -147.933483 
L 237.046429 -149.739858 
L 237.003941 -151.546233 
L 236.989933 -153.352608 
L 236.998299 -155.158983 
L 237.021449 -156.965358 
L 237.050983 -158.771733 
L 237.078459 -160.578108 
L 237.096169 -162.384484 
L 237.097821 -164.190859 
L 237.079051 -165.997234 
L 237.037695 -167.803609 
L 236.973811 -169.609984 
L 236.889446 -171.416359 
L 236.788195 -173.222734 
L 236.674635 -175.029109 
L 236.553688 -176.835484 
L 236.430026 -178.641859 
L 236.307571 -180.448235 
L 236.189154 -182.25461 
L 236.076358 -184.060985 
L 235.969567 -185.86736 
L 235.868184 -187.673735 
L 235.771016 -189.48011 
L 235.676758 -191.286485 
L 235.584526 -193.09286 
L 235.494388 -194.899235 
L 235.407812 -196.70561 
L 235.327979 -198.511986 
L 235.259909 -200.318361 
L 235.210349 -202.124736 
L 235.187431 -203.931111 
L 235.200091 -205.737486 
L 235.257309 -207.543861 
L 235.367227 -209.350236 
L 235.536259 -211.156611 
L 235.768273 -212.962986 
L 236.063964 -214.769361 
L 236.420494 -216.575736 
L 236.831469 -218.382112 
L 237.287246 -220.188487 
L 237.775575 -221.994862 
L 246.987888 -221.994862 
L 246.987888 -221.994862 
L 247.476217 -220.188487 
L 247.931995 -218.382112 
L 248.342969 -216.575736 
L 248.6995 -214.769361 
L 248.99519 -212.962986 
L 249.227204 -211.156611 
L 249.396237 -209.350236 
L 249.506155 -207.543861 
L 249.563372 -205.737486 
L 249.576032 -203.931111 
L 249.553114 -202.124736 
L 249.503555 -200.318361 
L 249.435484 -198.511986 
L 249.355651 -196.70561 
L 249.269075 -194.899235 
L 249.178937 -193.09286 
L 249.086705 -191.286485 
L 248.992447 -189.48011 
L 248.895279 -187.673735 
L 248.793897 -185.86736 
L 248.687105 -184.060985 
L 248.57431 -182.25461 
L 248.455892 -180.448235 
L 248.333438 -178.641859 
L 248.209776 -176.835484 
L 248.088829 -175.029109 
L 247.975268 -173.222734 
L 247.874018 -171.416359 
L 247.789652 -169.609984 
L 247.725768 -167.803609 
L 247.684413 -165.997234 
L 247.665642 -164.190859 
L 247.667295 -162.384484 
L 247.685005 -160.578108 
L 247.712481 -158.771733 
L 247.742014 -156.965358 
L 247.765165 -155.158983 
L 247.773531 -153.352608 
L 247.759522 -151.546233 
L 247.717034 -149.739858 
L 247.641953 -147.933483 
L 247.532434 -146.127108 
L 247.388955 -144.320733 
L 247.214128 -142.514358 
L 247.012346 -140.707982 
L 246.789287 -138.901607 
L 246.551369 -137.095232 
L 246.305203 -135.288857 
L 246.0571 -133.482482 
L 245.812679 -131.676107 
L 245.576573 -129.869732 
L 245.352264 -128.063357 
L 245.142018 -126.256982 
L 244.946915 -124.450607 
L 244.766955 -122.644231 
L 244.601219 -120.837856 
L 244.448074 -119.031481 
L 244.305407 -117.225106 
L 244.170882 -115.418731 
L 244.042187 -113.612356 
L 243.917284 -111.805981 
L 243.794611 -109.999606 
L 243.673237 -108.193231 
L 243.552952 -106.386856 
L 243.434265 -104.58048 
L 243.318328 -102.774105 
L 243.20678 -100.96773 
L 243.101538 -99.161355 
L 243.004564 -97.35498 
L 242.917623 -95.548605 
L 242.842086 -93.74223 
L 242.778778 -91.935855 
L 242.727902 -90.12948 
L 242.689029 -88.323105 
L 242.661169 -86.51673 
L 242.642885 -84.710354 
L 242.632456 -82.903979 
L 242.628041 -81.097604 
L 242.627847 -79.291229 
L 242.630268 -77.484854 
L 242.633981 -75.678479 
L 242.638 -73.872104 
L 242.641684 -72.065729 
L 242.6447 -70.259354 
L 242.646957 -68.452979 
L 242.648518 -66.646603 
L 242.649517 -64.840228 
L 242.650074 -63.033853 
L 242.650238 -61.227478 
L 242.649947 -59.421103 
L 242.649026 -57.614728 
L 242.647198 -55.808353 
L 242.644122 -54.001978 
L 242.639442 -52.195603 
L 242.632837 -50.389228 
L 242.624072 -48.582852 
L 242.613038 -46.776477 
L 242.599772 -44.970102 
L 242.58447 -43.163727 
z
" style="stroke: #545454; stroke-width: 1.5"/>
    </defs>
    <g clip-path="url(#pf78783e602)">
     <use xlink:href="#m63a337bab3" x="0" y="255.11811" style="fill: #d65f5f; stroke: #545454; stroke-width: 1.5"/>
    </g>
   </g>
   <g id="PolyCollection_4">
    <defs>
     <path id="mf1276d7eeb" d="M 324.002718 -68.069244 
L 323.642006 -68.069244 
L 323.632344 -69.641677 
L 323.625915 -71.214109 
L 323.622951 -72.786542 
L 323.623456 -74.358975 
L 323.627196 -75.931408 
L 323.633706 -77.503841 
L 323.642317 -79.076274 
L 323.652207 -80.648707 
L 323.662458 -82.221139 
L 323.672132 -83.793572 
L 323.680345 -85.366005 
L 323.686329 -86.938438 
L 323.689485 -88.510871 
L 323.689406 -90.083304 
L 323.685871 -91.655737 
L 323.678819 -93.22817 
L 323.668289 -94.800602 
L 323.654363 -96.373035 
L 323.637108 -97.945468 
L 323.616525 -99.517901 
L 323.592541 -101.090334 
L 323.565011 -102.662767 
L 323.533752 -104.2352 
L 323.498592 -105.807632 
L 323.459415 -107.380065 
L 323.416193 -108.952498 
L 323.368997 -110.524931 
L 323.317979 -112.097364 
L 323.263339 -113.669797 
L 323.205272 -115.24223 
L 323.143921 -116.814662 
L 323.079339 -118.387095 
L 323.011468 -119.959528 
L 322.940136 -121.531961 
L 322.865063 -123.104394 
L 322.785879 -124.676827 
L 322.70214 -126.24926 
L 322.613343 -127.821692 
L 322.518953 -129.394125 
L 322.418442 -130.966558 
L 322.311343 -132.538991 
L 322.197335 -134.111424 
L 322.076337 -135.683857 
L 321.948598 -137.25629 
L 321.814766 -138.828722 
L 321.67589 -140.401155 
L 321.533362 -141.973588 
L 321.388758 -143.546021 
L 321.24363 -145.118454 
L 321.099251 -146.690887 
L 320.95639 -148.26332 
L 320.81516 -149.835752 
L 320.674994 -151.408185 
L 320.534767 -152.980618 
L 320.393062 -154.553051 
L 320.248522 -156.125484 
L 320.100237 -157.697917 
L 319.948054 -159.27035 
L 319.792751 -160.842782 
L 319.636008 -162.415215 
L 319.480175 -163.987648 
L 319.327867 -165.560081 
L 319.181462 -167.132514 
L 319.042595 -168.704947 
L 318.911762 -170.27738 
L 318.788091 -171.849813 
L 318.669348 -173.422245 
L 318.55215 -174.994678 
L 318.43235 -176.567111 
L 318.305513 -178.139544 
L 318.167391 -179.711977 
L 318.014312 -181.28441 
L 317.843434 -182.856843 
L 317.652839 -184.429275 
L 317.441486 -186.001708 
L 317.209062 -187.574141 
L 316.955809 -189.146574 
L 316.682361 -190.719007 
L 316.389666 -192.29144 
L 316.078995 -193.863873 
L 315.752063 -195.436305 
L 315.411233 -197.008738 
L 315.059807 -198.581171 
L 314.70236 -200.153604 
L 314.345106 -201.726037 
L 313.996232 -203.29847 
L 313.666171 -204.870903 
L 313.367708 -206.443335 
L 313.115833 -208.015768 
L 312.927262 -209.588201 
L 312.819545 -211.160634 
L 312.809778 -212.733067 
L 312.91299 -214.3055 
L 313.140372 -215.877933 
L 313.497603 -217.450365 
L 313.983527 -219.022798 
L 314.589442 -220.595231 
L 315.299189 -222.167664 
L 316.090086 -223.740097 
L 331.554638 -223.740097 
L 331.554638 -223.740097 
L 332.345535 -222.167664 
L 333.055282 -220.595231 
L 333.661197 -219.022798 
L 334.14712 -217.450365 
L 334.504352 -215.877933 
L 334.731734 -214.3055 
L 334.834945 -212.733067 
L 334.825179 -211.160634 
L 334.717462 -209.588201 
L 334.528891 -208.015768 
L 334.277016 -206.443335 
L 333.978552 -204.870903 
L 333.648492 -203.29847 
L 333.299618 -201.726037 
L 332.942363 -200.153604 
L 332.584917 -198.581171 
L 332.233491 -197.008738 
L 331.892661 -195.436305 
L 331.565729 -193.863873 
L 331.255058 -192.29144 
L 330.962363 -190.719007 
L 330.688915 -189.146574 
L 330.435661 -187.574141 
L 330.203238 -186.001708 
L 329.991885 -184.429275 
L 329.80129 -182.856843 
L 329.630412 -181.28441 
L 329.477333 -179.711977 
L 329.33921 -178.139544 
L 329.212374 -176.567111 
L 329.092574 -174.994678 
L 328.975376 -173.422245 
L 328.856633 -171.849813 
L 328.732962 -170.27738 
L 328.602128 -168.704947 
L 328.463262 -167.132514 
L 328.316857 -165.560081 
L 328.164549 -163.987648 
L 328.008716 -162.415215 
L 327.851973 -160.842782 
L 327.69667 -159.27035 
L 327.544487 -157.697917 
L 327.396202 -156.125484 
L 327.251662 -154.553051 
L 327.109956 -152.980618 
L 326.96973 -151.408185 
L 326.829564 -149.835752 
L 326.688334 -148.26332 
L 326.545472 -146.690887 
L 326.401093 -145.118454 
L 326.255965 -143.546021 
L 326.111362 -141.973588 
L 325.968834 -140.401155 
L 325.829958 -138.828722 
L 325.696125 -137.25629 
L 325.568386 -135.683857 
L 325.447388 -134.111424 
L 325.333381 -132.538991 
L 325.226282 -130.966558 
L 325.125771 -129.394125 
L 325.031381 -127.821692 
L 324.942584 -126.24926 
L 324.858844 -124.676827 
L 324.779661 -123.104394 
L 324.704588 -121.531961 
L 324.633256 -119.959528 
L 324.565385 -118.387095 
L 324.500803 -116.814662 
L 324.439451 -115.24223 
L 324.381384 -113.669797 
L 324.326745 -112.097364 
L 324.275727 -110.524931 
L 324.228531 -108.952498 
L 324.185309 -107.380065 
L 324.146132 -105.807632 
L 324.110972 -104.2352 
L 324.079713 -102.662767 
L 324.052182 -101.090334 
L 324.028198 -99.517901 
L 324.007616 -97.945468 
L 323.99036 -96.373035 
L 323.976435 -94.800602 
L 323.965905 -93.22817 
L 323.958852 -91.655737 
L 323.955318 -90.083304 
L 323.955239 -88.510871 
L 323.958395 -86.938438 
L 323.964379 -85.366005 
L 323.972592 -83.793572 
L 323.982266 -82.221139 
L 323.992517 -80.648707 
L 324.002406 -79.076274 
L 324.011018 -77.503841 
L 324.017527 -75.931408 
L 324.021268 -74.358975 
L 324.021773 -72.786542 
L 324.018809 -71.214109 
L 324.01238 -69.641677 
L 324.002718 -68.069244 
z
" style="stroke: #545454; stroke-width: 1.5"/>
    </defs>
    <g clip-path="url(#pf78783e602)">
     <use xlink:href="#mf1276d7eeb" x="0" y="255.11811" style="fill: #ee854a; stroke: #545454; stroke-width: 1.5"/>
    </g>
   </g>
   <g id="PolyCollection_5">
    <defs>
     <path id="mc5e1f3515c" d="M 405.482131 -40.639789 
L 405.043853 -40.639789 
L 405.034022 -42.460765 
L 405.026055 -44.28174 
L 405.019657 -46.102716 
L 405.014429 -47.923692 
L 405.009923 -49.744667 
L 405.005704 -51.565643 
L 405.001401 -53.386619 
L 404.996743 -55.207594 
L 404.991569 -57.02857 
L 404.985811 -58.849546 
L 404.979457 -60.670522 
L 404.972485 -62.491497 
L 404.964801 -64.312473 
L 404.956166 -66.133449 
L 404.946139 -67.954424 
L 404.93405 -69.7754 
L 404.918988 -71.596376 
L 404.899829 -73.417351 
L 404.875288 -75.238327 
L 404.84399 -77.059303 
L 404.804563 -78.880278 
L 404.755716 -80.701254 
L 404.69633 -82.52223 
L 404.625517 -84.343205 
L 404.542671 -86.164181 
L 404.4475 -87.985157 
L 404.340038 -89.806132 
L 404.220644 -91.627108 
L 404.089986 -93.448084 
L 403.949011 -95.269059 
L 403.798905 -97.090035 
L 403.641024 -98.911011 
L 403.476811 -100.731986 
L 403.307687 -102.552962 
L 403.134931 -104.373938 
L 402.95956 -106.194913 
L 402.78222 -108.015889 
L 402.603132 -109.836865 
L 402.42208 -111.65784 
L 402.238484 -113.478816 
L 402.051548 -115.299792 
L 401.860468 -117.120767 
L 401.664683 -118.941743 
L 401.464124 -120.762719 
L 401.259425 -122.583694 
L 401.052058 -124.40467 
L 400.844358 -126.225646 
L 400.639439 -128.046621 
L 400.441003 -129.867597 
L 400.253061 -131.688573 
L 400.079622 -133.509548 
L 399.924372 -135.330524 
L 399.790399 -137.1515 
L 399.679979 -138.972475 
L 399.594444 -140.793451 
L 399.534129 -142.614427 
L 399.498388 -144.435402 
L 399.485655 -146.256378 
L 399.493536 -148.077354 
L 399.518921 -149.89833 
L 399.558094 -151.719305 
L 399.606874 -153.540281 
L 399.66076 -155.361257 
L 399.71512 -157.182232 
L 399.765415 -159.003208 
L 399.807454 -160.824184 
L 399.837676 -162.645159 
L 399.853429 -164.466135 
L 399.853202 -166.287111 
L 399.83679 -168.108086 
L 399.805343 -169.929062 
L 399.761285 -171.750038 
L 399.708101 -173.571013 
L 399.649994 -175.391989 
L 399.591473 -177.212965 
L 399.536898 -179.03394 
L 399.490062 -180.854916 
L 399.453867 -182.675892 
L 399.430124 -184.496867 
L 399.419534 -186.317843 
L 399.421833 -188.138819 
L 399.436078 -189.959794 
L 399.461052 -191.78077 
L 399.495697 -193.601746 
L 399.539533 -195.422721 
L 399.592981 -197.243697 
L 399.657539 -199.064673 
L 399.735791 -200.885648 
L 399.831214 -202.706624 
L 399.947829 -204.5276 
L 400.089716 -206.348575 
L 400.260469 -208.169551 
L 400.462645 -209.990527 
L 400.697302 -211.811502 
L 400.963666 -213.632478 
L 401.258992 -215.453454 
L 401.578623 -217.274429 
L 401.916256 -219.095405 
L 402.264371 -220.916381 
L 408.261613 -220.916381 
L 408.261613 -220.916381 
L 408.609728 -219.095405 
L 408.947361 -217.274429 
L 409.266992 -215.453454 
L 409.562318 -213.632478 
L 409.828682 -211.811502 
L 410.063339 -209.990527 
L 410.265515 -208.169551 
L 410.436268 -206.348575 
L 410.578155 -204.5276 
L 410.69477 -202.706624 
L 410.790193 -200.885648 
L 410.868445 -199.064673 
L 410.933003 -197.243697 
L 410.986451 -195.422721 
L 411.030287 -193.601746 
L 411.064932 -191.78077 
L 411.089906 -189.959794 
L 411.104151 -188.138819 
L 411.10645 -186.317843 
L 411.09586 -184.496867 
L 411.072117 -182.675892 
L 411.035922 -180.854916 
L 410.989086 -179.03394 
L 410.934511 -177.212965 
L 410.87599 -175.391989 
L 410.817883 -173.571013 
L 410.764699 -171.750038 
L 410.720641 -169.929062 
L 410.689194 -168.108086 
L 410.672782 -166.287111 
L 410.672555 -164.466135 
L 410.688308 -162.645159 
L 410.71853 -160.824184 
L 410.760569 -159.003208 
L 410.810864 -157.182232 
L 410.865224 -155.361257 
L 410.91911 -153.540281 
L 410.96789 -151.719305 
L 411.007063 -149.89833 
L 411.032448 -148.077354 
L 411.040329 -146.256378 
L 411.027596 -144.435402 
L 410.991855 -142.614427 
L 410.93154 -140.793451 
L 410.846005 -138.972475 
L 410.735585 -137.1515 
L 410.601612 -135.330524 
L 410.446362 -133.509548 
L 410.272923 -131.688573 
L 410.084981 -129.867597 
L 409.886545 -128.046621 
L 409.681626 -126.225646 
L 409.473926 -124.40467 
L 409.266559 -122.583694 
L 409.06186 -120.762719 
L 408.861301 -118.941743 
L 408.665516 -117.120767 
L 408.474436 -115.299792 
L 408.2875 -113.478816 
L 408.103904 -111.65784 
L 407.922852 -109.836865 
L 407.743764 -108.015889 
L 407.566424 -106.194913 
L 407.391053 -104.373938 
L 407.218297 -102.552962 
L 407.049173 -100.731986 
L 406.88496 -98.911011 
L 406.727079 -97.090035 
L 406.576973 -95.269059 
L 406.435998 -93.448084 
L 406.30534 -91.627108 
L 406.185946 -89.806132 
L 406.078484 -87.985157 
L 405.983313 -86.164181 
L 405.900467 -84.343205 
L 405.829654 -82.52223 
L 405.770268 -80.701254 
L 405.721421 -78.880278 
L 405.681994 -77.059303 
L 405.650696 -75.238327 
L 405.626155 -73.417351 
L 405.606996 -71.596376 
L 405.591934 -69.7754 
L 405.579845 -67.954424 
L 405.569818 -66.133449 
L 405.561183 -64.312473 
L 405.553499 -62.491497 
L 405.546527 -60.670522 
L 405.540173 -58.849546 
L 405.534415 -57.02857 
L 405.529241 -55.207594 
L 405.524583 -53.386619 
L 405.52028 -51.565643 
L 405.516061 -49.744667 
L 405.511555 -47.923692 
L 405.506327 -46.102716 
L 405.499929 -44.28174 
L 405.491962 -42.460765 
L 405.482131 -40.639789 
z
" style="stroke: #545454; stroke-width: 1.5"/>
    </defs>
    <g clip-path="url(#pf78783e602)">
     <use xlink:href="#mc5e1f3515c" x="0" y="255.11811" style="fill: #6acc64; stroke: #545454; stroke-width: 1.5"/>
    </g>
   </g>
   <g id="matplotlib.axis_1">
    <g id="xtick_1">
     <g id="line2d_1">
      <defs>
       <path id="m9b64223151" d="M 0 0 
L 0 3.5 
" style="stroke: #000000; stroke-width: 0.8"/>
      </defs>
      <g>
       <use xlink:href="#m9b64223151" x="79.500471" y="223.754673" style="stroke: #000000; stroke-width: 0.8"/>
      </g>
     </g>
     <g id="text_1">
      <!-- skani -->
      <g transform="translate(71.330159 235.765141) scale(0.07 -0.07)">
       <defs>
        <path id="ArialMT-73" d="M 197 991 
L 753 1078 
Q 800 744 1014 566 
Q 1228 388 1613 388 
Q 2000 388 2187 545 
Q 2375 703 2375 916 
Q 2375 1106 2209 1216 
Q 2094 1291 1634 1406 
Q 1016 1563 777 1677 
Q 538 1791 414 1992 
Q 291 2194 291 2438 
Q 291 2659 392 2848 
Q 494 3038 669 3163 
Q 800 3259 1026 3326 
Q 1253 3394 1513 3394 
Q 1903 3394 2198 3281 
Q 2494 3169 2634 2976 
Q 2775 2784 2828 2463 
L 2278 2388 
Q 2241 2644 2061 2787 
Q 1881 2931 1553 2931 
Q 1166 2931 1000 2803 
Q 834 2675 834 2503 
Q 834 2394 903 2306 
Q 972 2216 1119 2156 
Q 1203 2125 1616 2013 
Q 2213 1853 2448 1751 
Q 2684 1650 2818 1456 
Q 2953 1263 2953 975 
Q 2953 694 2789 445 
Q 2625 197 2315 61 
Q 2006 -75 1616 -75 
Q 969 -75 630 194 
Q 291 463 197 991 
z
" transform="scale(0.015625)"/>
        <path id="ArialMT-6b" d="M 425 0 
L 425 4581 
L 988 4581 
L 988 1969 
L 2319 3319 
L 3047 3319 
L 1778 2088 
L 3175 0 
L 2481 0 
L 1384 1697 
L 988 1316 
L 988 0 
L 425 0 
z
" transform="scale(0.015625)"/>
        <path id="ArialMT-61" d="M 2588 409 
Q 2275 144 1986 34 
Q 1697 -75 1366 -75 
Q 819 -75 525 192 
Q 231 459 231 875 
Q 231 1119 342 1320 
Q 453 1522 633 1644 
Q 813 1766 1038 1828 
Q 1203 1872 1538 1913 
Q 2219 1994 2541 2106 
Q 2544 2222 2544 2253 
Q 2544 2597 2384 2738 
Q 2169 2928 1744 2928 
Q 1347 2928 1158 2789 
Q 969 2650 878 2297 
L 328 2372 
Q 403 2725 575 2942 
Q 747 3159 1072 3276 
Q 1397 3394 1825 3394 
Q 2250 3394 2515 3294 
Q 2781 3194 2906 3042 
Q 3031 2891 3081 2659 
Q 3109 2516 3109 2141 
L 3109 1391 
Q 3109 606 3145 398 
Q 3181 191 3288 0 
L 2700 0 
Q 2613 175 2588 409 
z
M 2541 1666 
Q 2234 1541 1622 1453 
Q 1275 1403 1131 1340 
Q 988 1278 909 1158 
Q 831 1038 831 891 
Q 831 666 1001 516 
Q 1172 366 1500 366 
Q 1825 366 2078 508 
Q 2331 650 2450 897 
Q 2541 1088 2541 1459 
L 2541 1666 
z
" transform="scale(0.015625)"/>
        <path id="ArialMT-6e" d="M 422 0 
L 422 3319 
L 928 3319 
L 928 2847 
Q 1294 3394 1984 3394 
Q 2284 3394 2536 3286 
Q 2788 3178 2913 3003 
Q 3038 2828 3088 2588 
Q 3119 2431 3119 2041 
L 3119 0 
L 2556 0 
L 2556 2019 
Q 2556 2363 2490 2533 
Q 2425 2703 2258 2804 
Q 2091 2906 1866 2906 
Q 1506 2906 1245 2678 
Q 984 2450 984 1813 
L 984 0 
L 422 0 
z
" transform="scale(0.015625)"/>
        <path id="ArialMT-69" d="M 425 3934 
L 425 4581 
L 988 4581 
L 988 3934 
L 425 3934 
z
M 425 0 
L 425 3319 
L 988 3319 
L 988 0 
L 425 0 
z
" transform="scale(0.015625)"/>
       </defs>
       <use xlink:href="#ArialMT-73"/>
       <use xlink:href="#ArialMT-6b" x="50"/>
       <use xlink:href="#ArialMT-61" x="100"/>
       <use xlink:href="#ArialMT-6e" x="155.615234"/>
       <use xlink:href="#ArialMT-69" x="211.230469"/>
      </g>
     </g>
    </g>
    <g id="xtick_2">
     <g id="line2d_2">
      <g>
       <use xlink:href="#m9b64223151" x="160.941102" y="223.754673" style="stroke: #000000; stroke-width: 0.8"/>
      </g>
     </g>
     <g id="text_2">
      <!-- sourmash max-contain -->
      <g transform="translate(125.540242 235.765141) scale(0.07 -0.07)">
       <defs>
        <path id="ArialMT-6f" d="M 213 1659 
Q 213 2581 725 3025 
Q 1153 3394 1769 3394 
Q 2453 3394 2887 2945 
Q 3322 2497 3322 1706 
Q 3322 1066 3130 698 
Q 2938 331 2570 128 
Q 2203 -75 1769 -75 
Q 1072 -75 642 372 
Q 213 819 213 1659 
z
M 791 1659 
Q 791 1022 1069 705 
Q 1347 388 1769 388 
Q 2188 388 2466 706 
Q 2744 1025 2744 1678 
Q 2744 2294 2464 2611 
Q 2184 2928 1769 2928 
Q 1347 2928 1069 2612 
Q 791 2297 791 1659 
z
" transform="scale(0.015625)"/>
        <path id="ArialMT-75" d="M 2597 0 
L 2597 488 
Q 2209 -75 1544 -75 
Q 1250 -75 995 37 
Q 741 150 617 320 
Q 494 491 444 738 
Q 409 903 409 1263 
L 409 3319 
L 972 3319 
L 972 1478 
Q 972 1038 1006 884 
Q 1059 663 1231 536 
Q 1403 409 1656 409 
Q 1909 409 2131 539 
Q 2353 669 2445 892 
Q 2538 1116 2538 1541 
L 2538 3319 
L 3100 3319 
L 3100 0 
L 2597 0 
z
" transform="scale(0.015625)"/>
        <path id="ArialMT-72" d="M 416 0 
L 416 3319 
L 922 3319 
L 922 2816 
Q 1116 3169 1280 3281 
Q 1444 3394 1641 3394 
Q 1925 3394 2219 3213 
L 2025 2691 
Q 1819 2813 1613 2813 
Q 1428 2813 1281 2702 
Q 1134 2591 1072 2394 
Q 978 2094 978 1738 
L 978 0 
L 416 0 
z
" transform="scale(0.015625)"/>
        <path id="ArialMT-6d" d="M 422 0 
L 422 3319 
L 925 3319 
L 925 2853 
Q 1081 3097 1340 3245 
Q 1600 3394 1931 3394 
Q 2300 3394 2536 3241 
Q 2772 3088 2869 2813 
Q 3263 3394 3894 3394 
Q 4388 3394 4653 3120 
Q 4919 2847 4919 2278 
L 4919 0 
L 4359 0 
L 4359 2091 
Q 4359 2428 4304 2576 
Q 4250 2725 4106 2815 
Q 3963 2906 3769 2906 
Q 3419 2906 3187 2673 
Q 2956 2441 2956 1928 
L 2956 0 
L 2394 0 
L 2394 2156 
Q 2394 2531 2256 2718 
Q 2119 2906 1806 2906 
Q 1569 2906 1367 2781 
Q 1166 2656 1075 2415 
Q 984 2175 984 1722 
L 984 0 
L 422 0 
z
" transform="scale(0.015625)"/>
        <path id="ArialMT-68" d="M 422 0 
L 422 4581 
L 984 4581 
L 984 2938 
Q 1378 3394 1978 3394 
Q 2347 3394 2619 3248 
Q 2891 3103 3008 2847 
Q 3125 2591 3125 2103 
L 3125 0 
L 2563 0 
L 2563 2103 
Q 2563 2525 2380 2717 
Q 2197 2909 1863 2909 
Q 1613 2909 1392 2779 
Q 1172 2650 1078 2428 
Q 984 2206 984 1816 
L 984 0 
L 422 0 
z
" transform="scale(0.015625)"/>
        <path id="ArialMT-20" transform="scale(0.015625)"/>
        <path id="ArialMT-78" d="M 47 0 
L 1259 1725 
L 138 3319 
L 841 3319 
L 1350 2541 
Q 1494 2319 1581 2169 
Q 1719 2375 1834 2534 
L 2394 3319 
L 3066 3319 
L 1919 1756 
L 3153 0 
L 2463 0 
L 1781 1031 
L 1600 1309 
L 728 0 
L 47 0 
z
" transform="scale(0.015625)"/>
        <path id="ArialMT-2d" d="M 203 1375 
L 203 1941 
L 1931 1941 
L 1931 1375 
L 203 1375 
z
" transform="scale(0.015625)"/>
        <path id="ArialMT-63" d="M 2588 1216 
L 3141 1144 
Q 3050 572 2676 248 
Q 2303 -75 1759 -75 
Q 1078 -75 664 370 
Q 250 816 250 1647 
Q 250 2184 428 2587 
Q 606 2991 970 3192 
Q 1334 3394 1763 3394 
Q 2303 3394 2647 3120 
Q 2991 2847 3088 2344 
L 2541 2259 
Q 2463 2594 2264 2762 
Q 2066 2931 1784 2931 
Q 1359 2931 1093 2626 
Q 828 2322 828 1663 
Q 828 994 1084 691 
Q 1341 388 1753 388 
Q 2084 388 2306 591 
Q 2528 794 2588 1216 
z
" transform="scale(0.015625)"/>
        <path id="ArialMT-74" d="M 1650 503 
L 1731 6 
Q 1494 -44 1306 -44 
Q 1000 -44 831 53 
Q 663 150 594 308 
Q 525 466 525 972 
L 525 2881 
L 113 2881 
L 113 3319 
L 525 3319 
L 525 4141 
L 1084 4478 
L 1084 3319 
L 1650 3319 
L 1650 2881 
L 1084 2881 
L 1084 941 
Q 1084 700 1114 631 
Q 1144 563 1211 522 
Q 1278 481 1403 481 
Q 1497 481 1650 503 
z
" transform="scale(0.015625)"/>
       </defs>
       <use xlink:href="#ArialMT-73"/>
       <use xlink:href="#ArialMT-6f" x="50"/>
       <use xlink:href="#ArialMT-75" x="105.615234"/>
       <use xlink:href="#ArialMT-72" x="161.230469"/>
       <use xlink:href="#ArialMT-6d" x="194.53125"/>
       <use xlink:href="#ArialMT-61" x="277.832031"/>
       <use xlink:href="#ArialMT-73" x="333.447266"/>
       <use xlink:href="#ArialMT-68" x="383.447266"/>
       <use xlink:href="#ArialMT-20" x="439.0625"/>
       <use xlink:href="#ArialMT-6d" x="466.845703"/>
       <use xlink:href="#ArialMT-61" x="550.146484"/>
       <use xlink:href="#ArialMT-78" x="605.761719"/>
       <use xlink:href="#ArialMT-2d" x="655.761719"/>
       <use xlink:href="#ArialMT-63" x="689.0625"/>
       <use xlink:href="#ArialMT-6f" x="739.0625"/>
       <use xlink:href="#ArialMT-6e" x="794.677734"/>
       <use xlink:href="#ArialMT-74" x="850.292969"/>
       <use xlink:href="#ArialMT-61" x="878.076172"/>
       <use xlink:href="#ArialMT-69" x="933.691406"/>
       <use xlink:href="#ArialMT-6e" x="955.908203"/>
      </g>
     </g>
    </g>
    <g id="xtick_3">
     <g id="line2d_3">
      <g>
       <use xlink:href="#m9b64223151" x="242.381732" y="223.754673" style="stroke: #000000; stroke-width: 0.8"/>
      </g>
     </g>
     <g id="text_3">
      <!-- sourmash -->
      <g transform="translate(227.015638 235.765141) scale(0.07 -0.07)">
       <use xlink:href="#ArialMT-73"/>
       <use xlink:href="#ArialMT-6f" x="50"/>
       <use xlink:href="#ArialMT-75" x="105.615234"/>
       <use xlink:href="#ArialMT-72" x="161.230469"/>
       <use xlink:href="#ArialMT-6d" x="194.53125"/>
       <use xlink:href="#ArialMT-61" x="277.832031"/>
       <use xlink:href="#ArialMT-73" x="333.447266"/>
       <use xlink:href="#ArialMT-68" x="383.447266"/>
      </g>
     </g>
    </g>
    <g id="xtick_4">
     <g id="line2d_4">
      <g>
       <use xlink:href="#m9b64223151" x="323.822362" y="223.754673" style="stroke: #000000; stroke-width: 0.8"/>
      </g>
     </g>
     <g id="text_4">
      <!-- FastANI -->
      <g transform="translate(311.181346 235.765141) scale(0.07 -0.07)">
       <defs>
        <path id="ArialMT-46" d="M 525 0 
L 525 4581 
L 3616 4581 
L 3616 4041 
L 1131 4041 
L 1131 2622 
L 3281 2622 
L 3281 2081 
L 1131 2081 
L 1131 0 
L 525 0 
z
" transform="scale(0.015625)"/>
        <path id="ArialMT-41" d="M -9 0 
L 1750 4581 
L 2403 4581 
L 4278 0 
L 3588 0 
L 3053 1388 
L 1138 1388 
L 634 0 
L -9 0 
z
M 1313 1881 
L 2866 1881 
L 2388 3150 
Q 2169 3728 2063 4100 
Q 1975 3659 1816 3225 
L 1313 1881 
z
" transform="scale(0.015625)"/>
        <path id="ArialMT-4e" d="M 488 0 
L 488 4581 
L 1109 4581 
L 3516 984 
L 3516 4581 
L 4097 4581 
L 4097 0 
L 3475 0 
L 1069 3600 
L 1069 0 
L 488 0 
z
" transform="scale(0.015625)"/>
        <path id="ArialMT-49" d="M 597 0 
L 597 4581 
L 1203 4581 
L 1203 0 
L 597 0 
z
" transform="scale(0.015625)"/>
       </defs>
       <use xlink:href="#ArialMT-46"/>
       <use xlink:href="#ArialMT-61" x="61.083984"/>
       <use xlink:href="#ArialMT-73" x="116.699219"/>
       <use xlink:href="#ArialMT-74" x="166.699219"/>
       <use xlink:href="#ArialMT-41" x="194.482422"/>
       <use xlink:href="#ArialMT-4e" x="261.181641"/>
       <use xlink:href="#ArialMT-49" x="333.398438"/>
      </g>
     </g>
    </g>
    <g id="xtick_5">
     <g id="line2d_5">
      <g>
       <use xlink:href="#m9b64223151" x="405.262992" y="223.754673" style="stroke: #000000; stroke-width: 0.8"/>
      </g>
     </g>
     <g id="text_5">
      <!-- Mash -->
      <g transform="translate(396.704945 235.765141) scale(0.07 -0.07)">
       <defs>
        <path id="ArialMT-4d" d="M 475 0 
L 475 4581 
L 1388 4581 
L 2472 1338 
Q 2622 884 2691 659 
Q 2769 909 2934 1394 
L 4031 4581 
L 4847 4581 
L 4847 0 
L 4263 0 
L 4263 3834 
L 2931 0 
L 2384 0 
L 1059 3900 
L 1059 0 
L 475 0 
z
" transform="scale(0.015625)"/>
       </defs>
       <use xlink:href="#ArialMT-4d"/>
       <use xlink:href="#ArialMT-61" x="83.300781"/>
       <use xlink:href="#ArialMT-73" x="138.916016"/>
       <use xlink:href="#ArialMT-68" x="188.916016"/>
      </g>
     </g>
    </g>
    <g id="text_6">
     <!-- Method -->
     <g transform="translate(230.708685 246.16686) scale(0.07 -0.07)">
      <defs>
       <path id="ArialMT-65" d="M 2694 1069 
L 3275 997 
Q 3138 488 2766 206 
Q 2394 -75 1816 -75 
Q 1088 -75 661 373 
Q 234 822 234 1631 
Q 234 2469 665 2931 
Q 1097 3394 1784 3394 
Q 2450 3394 2872 2941 
Q 3294 2488 3294 1666 
Q 3294 1616 3291 1516 
L 816 1516 
Q 847 969 1125 678 
Q 1403 388 1819 388 
Q 2128 388 2347 550 
Q 2566 713 2694 1069 
z
M 847 1978 
L 2700 1978 
Q 2663 2397 2488 2606 
Q 2219 2931 1791 2931 
Q 1403 2931 1139 2672 
Q 875 2413 847 1978 
z
" transform="scale(0.015625)"/>
       <path id="ArialMT-64" d="M 2575 0 
L 2575 419 
Q 2259 -75 1647 -75 
Q 1250 -75 917 144 
Q 584 363 401 755 
Q 219 1147 219 1656 
Q 219 2153 384 2558 
Q 550 2963 881 3178 
Q 1213 3394 1622 3394 
Q 1922 3394 2156 3267 
Q 2391 3141 2538 2938 
L 2538 4581 
L 3097 4581 
L 3097 0 
L 2575 0 
z
M 797 1656 
Q 797 1019 1065 703 
Q 1334 388 1700 388 
Q 2069 388 2326 689 
Q 2584 991 2584 1609 
Q 2584 2291 2321 2609 
Q 2059 2928 1675 2928 
Q 1300 2928 1048 2622 
Q 797 2316 797 1656 
z
" transform="scale(0.015625)"/>
      </defs>
      <use xlink:href="#ArialMT-4d"/>
      <use xlink:href="#ArialMT-65" x="83.300781"/>
      <use xlink:href="#ArialMT-74" x="138.916016"/>
      <use xlink:href="#ArialMT-68" x="166.699219"/>
      <use xlink:href="#ArialMT-6f" x="222.314453"/>
      <use xlink:href="#ArialMT-64" x="277.929688"/>
     </g>
    </g>
   </g>
   <g id="matplotlib.axis_2">
    <g id="ytick_1">
     <g id="line2d_6">
      <defs>
       <path id="m23b8302fda" d="M 0 0 
L -3.5 0 
" style="stroke: #000000; stroke-width: 0.8"/>
      </defs>
      <g>
       <use xlink:href="#m23b8302fda" x="38.780156" y="202.988064" style="stroke: #000000; stroke-width: 0.8"/>
      </g>
     </g>
     <g id="text_7">
      <!-- −1.2 -->
      <g transform="translate(17.961719 205.493299) scale(0.07 -0.07)">
       <defs>
        <path id="ArialMT-2212" d="M 3381 1997 
L 356 1997 
L 356 2522 
L 3381 2522 
L 3381 1997 
z
" transform="scale(0.015625)"/>
        <path id="ArialMT-31" d="M 2384 0 
L 1822 0 
L 1822 3584 
Q 1619 3391 1289 3197 
Q 959 3003 697 2906 
L 697 3450 
Q 1169 3672 1522 3987 
Q 1875 4303 2022 4600 
L 2384 4600 
L 2384 0 
z
" transform="scale(0.015625)"/>
        <path id="ArialMT-2e" d="M 581 0 
L 581 641 
L 1222 641 
L 1222 0 
L 581 0 
z
" transform="scale(0.015625)"/>
        <path id="ArialMT-32" d="M 3222 541 
L 3222 0 
L 194 0 
Q 188 203 259 391 
Q 375 700 629 1000 
Q 884 1300 1366 1694 
Q 2113 2306 2375 2664 
Q 2638 3022 2638 3341 
Q 2638 3675 2398 3904 
Q 2159 4134 1775 4134 
Q 1369 4134 1125 3890 
Q 881 3647 878 3216 
L 300 3275 
Q 359 3922 746 4261 
Q 1134 4600 1788 4600 
Q 2447 4600 2831 4234 
Q 3216 3869 3216 3328 
Q 3216 3053 3103 2787 
Q 2991 2522 2730 2228 
Q 2469 1934 1863 1422 
Q 1356 997 1212 845 
Q 1069 694 975 541 
L 3222 541 
z
" transform="scale(0.015625)"/>
       </defs>
       <use xlink:href="#ArialMT-2212"/>
       <use xlink:href="#ArialMT-31" x="58.398438"/>
       <use xlink:href="#ArialMT-2e" x="114.013672"/>
       <use xlink:href="#ArialMT-32" x="141.796875"/>
      </g>
     </g>
    </g>
    <g id="ytick_2">
     <g id="line2d_7">
      <g>
       <use xlink:href="#m23b8302fda" x="38.780156" y="174.350145" style="stroke: #000000; stroke-width: 0.8"/>
      </g>
     </g>
     <g id="text_8">
      <!-- −1.0 -->
      <g transform="translate(17.961719 176.85538) scale(0.07 -0.07)">
       <defs>
        <path id="ArialMT-30" d="M 266 2259 
Q 266 3072 433 3567 
Q 600 4063 929 4331 
Q 1259 4600 1759 4600 
Q 2128 4600 2406 4451 
Q 2684 4303 2865 4023 
Q 3047 3744 3150 3342 
Q 3253 2941 3253 2259 
Q 3253 1453 3087 958 
Q 2922 463 2592 192 
Q 2263 -78 1759 -78 
Q 1097 -78 719 397 
Q 266 969 266 2259 
z
M 844 2259 
Q 844 1131 1108 757 
Q 1372 384 1759 384 
Q 2147 384 2411 759 
Q 2675 1134 2675 2259 
Q 2675 3391 2411 3762 
Q 2147 4134 1753 4134 
Q 1366 4134 1134 3806 
Q 844 3388 844 2259 
z
" transform="scale(0.015625)"/>
       </defs>
       <use xlink:href="#ArialMT-2212"/>
       <use xlink:href="#ArialMT-31" x="58.398438"/>
       <use xlink:href="#ArialMT-2e" x="114.013672"/>
       <use xlink:href="#ArialMT-30" x="141.796875"/>
      </g>
     </g>
    </g>
    <g id="ytick_3">
     <g id="line2d_8">
      <g>
       <use xlink:href="#m23b8302fda" x="38.780156" y="145.712226" style="stroke: #000000; stroke-width: 0.8"/>
      </g>
     </g>
     <g id="text_9">
      <!-- −0.8 -->
      <g transform="translate(17.961719 148.21746) scale(0.07 -0.07)">
       <defs>
        <path id="ArialMT-38" d="M 1131 2484 
Q 781 2613 612 2850 
Q 444 3088 444 3419 
Q 444 3919 803 4259 
Q 1163 4600 1759 4600 
Q 2359 4600 2725 4251 
Q 3091 3903 3091 3403 
Q 3091 3084 2923 2848 
Q 2756 2613 2416 2484 
Q 2838 2347 3058 2040 
Q 3278 1734 3278 1309 
Q 3278 722 2862 322 
Q 2447 -78 1769 -78 
Q 1091 -78 675 323 
Q 259 725 259 1325 
Q 259 1772 486 2073 
Q 713 2375 1131 2484 
z
M 1019 3438 
Q 1019 3113 1228 2906 
Q 1438 2700 1772 2700 
Q 2097 2700 2305 2904 
Q 2513 3109 2513 3406 
Q 2513 3716 2298 3927 
Q 2084 4138 1766 4138 
Q 1444 4138 1231 3931 
Q 1019 3725 1019 3438 
z
M 838 1322 
Q 838 1081 952 856 
Q 1066 631 1291 507 
Q 1516 384 1775 384 
Q 2178 384 2440 643 
Q 2703 903 2703 1303 
Q 2703 1709 2433 1975 
Q 2163 2241 1756 2241 
Q 1359 2241 1098 1978 
Q 838 1716 838 1322 
z
" transform="scale(0.015625)"/>
       </defs>
       <use xlink:href="#ArialMT-2212"/>
       <use xlink:href="#ArialMT-30" x="58.398438"/>
       <use xlink:href="#ArialMT-2e" x="114.013672"/>
       <use xlink:href="#ArialMT-38" x="141.796875"/>
      </g>
     </g>
    </g>
    <g id="ytick_4">
     <g id="line2d_9">
      <g>
       <use xlink:href="#m23b8302fda" x="38.780156" y="117.074307" style="stroke: #000000; stroke-width: 0.8"/>
      </g>
     </g>
     <g id="text_10">
      <!-- −0.6 -->
      <g transform="translate(17.961719 119.579541) scale(0.07 -0.07)">
       <defs>
        <path id="ArialMT-36" d="M 3184 3459 
L 2625 3416 
Q 2550 3747 2413 3897 
Q 2184 4138 1850 4138 
Q 1581 4138 1378 3988 
Q 1113 3794 959 3422 
Q 806 3050 800 2363 
Q 1003 2672 1297 2822 
Q 1591 2972 1913 2972 
Q 2475 2972 2870 2558 
Q 3266 2144 3266 1488 
Q 3266 1056 3080 686 
Q 2894 316 2569 119 
Q 2244 -78 1831 -78 
Q 1128 -78 684 439 
Q 241 956 241 2144 
Q 241 3472 731 4075 
Q 1159 4600 1884 4600 
Q 2425 4600 2770 4297 
Q 3116 3994 3184 3459 
z
M 888 1484 
Q 888 1194 1011 928 
Q 1134 663 1356 523 
Q 1578 384 1822 384 
Q 2178 384 2434 671 
Q 2691 959 2691 1453 
Q 2691 1928 2437 2201 
Q 2184 2475 1800 2475 
Q 1419 2475 1153 2201 
Q 888 1928 888 1484 
z
" transform="scale(0.015625)"/>
       </defs>
       <use xlink:href="#ArialMT-2212"/>
       <use xlink:href="#ArialMT-30" x="58.398438"/>
       <use xlink:href="#ArialMT-2e" x="114.013672"/>
       <use xlink:href="#ArialMT-36" x="141.796875"/>
      </g>
     </g>
    </g>
    <g id="ytick_5">
     <g id="line2d_10">
      <g>
       <use xlink:href="#m23b8302fda" x="38.780156" y="88.436387" style="stroke: #000000; stroke-width: 0.8"/>
      </g>
     </g>
     <g id="text_11">
      <!-- −0.4 -->
      <g transform="translate(17.961719 90.941622) scale(0.07 -0.07)">
       <defs>
        <path id="ArialMT-34" d="M 2069 0 
L 2069 1097 
L 81 1097 
L 81 1613 
L 2172 4581 
L 2631 4581 
L 2631 1613 
L 3250 1613 
L 3250 1097 
L 2631 1097 
L 2631 0 
L 2069 0 
z
M 2069 1613 
L 2069 3678 
L 634 1613 
L 2069 1613 
z
" transform="scale(0.015625)"/>
       </defs>
       <use xlink:href="#ArialMT-2212"/>
       <use xlink:href="#ArialMT-30" x="58.398438"/>
       <use xlink:href="#ArialMT-2e" x="114.013672"/>
       <use xlink:href="#ArialMT-34" x="141.796875"/>
      </g>
     </g>
    </g>
    <g id="ytick_6">
     <g id="line2d_11">
      <g>
       <use xlink:href="#m23b8302fda" x="38.780156" y="59.798468" style="stroke: #000000; stroke-width: 0.8"/>
      </g>
     </g>
     <g id="text_12">
      <!-- −0.2 -->
      <g transform="translate(17.961719 62.303703) scale(0.07 -0.07)">
       <use xlink:href="#ArialMT-2212"/>
       <use xlink:href="#ArialMT-30" x="58.398438"/>
       <use xlink:href="#ArialMT-2e" x="114.013672"/>
       <use xlink:href="#ArialMT-32" x="141.796875"/>
      </g>
     </g>
    </g>
    <g id="ytick_7">
     <g id="line2d_12">
      <g>
       <use xlink:href="#m23b8302fda" x="38.780156" y="31.160549" style="stroke: #000000; stroke-width: 0.8"/>
      </g>
     </g>
     <g id="text_13">
      <!-- 0.0 -->
      <g transform="translate(22.050156 33.665783) scale(0.07 -0.07)">
       <use xlink:href="#ArialMT-30"/>
       <use xlink:href="#ArialMT-2e" x="55.615234"/>
       <use xlink:href="#ArialMT-30" x="83.398438"/>
      </g>
     </g>
    </g>
    <g id="text_14">
     <!-- Method correlation - ANIm correlation -->
     <g transform="translate(12.570469 179.680274) rotate(-90) scale(0.07 -0.07)">
      <defs>
       <path id="ArialMT-6c" d="M 409 0 
L 409 4581 
L 972 4581 
L 972 0 
L 409 0 
z
" transform="scale(0.015625)"/>
      </defs>
      <use xlink:href="#ArialMT-4d"/>
      <use xlink:href="#ArialMT-65" x="83.300781"/>
      <use xlink:href="#ArialMT-74" x="138.916016"/>
      <use xlink:href="#ArialMT-68" x="166.699219"/>
      <use xlink:href="#ArialMT-6f" x="222.314453"/>
      <use xlink:href="#ArialMT-64" x="277.929688"/>
      <use xlink:href="#ArialMT-20" x="333.544922"/>
      <use xlink:href="#ArialMT-63" x="361.328125"/>
      <use xlink:href="#ArialMT-6f" x="411.328125"/>
      <use xlink:href="#ArialMT-72" x="466.943359"/>
      <use xlink:href="#ArialMT-72" x="500.244141"/>
      <use xlink:href="#ArialMT-65" x="533.544922"/>
      <use xlink:href="#ArialMT-6c" x="589.160156"/>
      <use xlink:href="#ArialMT-61" x="611.376953"/>
      <use xlink:href="#ArialMT-74" x="666.992188"/>
      <use xlink:href="#ArialMT-69" x="694.775391"/>
      <use xlink:href="#ArialMT-6f" x="716.992188"/>
      <use xlink:href="#ArialMT-6e" x="772.607422"/>
      <use xlink:href="#ArialMT-20" x="828.222656"/>
      <use xlink:href="#ArialMT-2d" x="856.005859"/>
      <use xlink:href="#ArialMT-20" x="889.306641"/>
      <use xlink:href="#ArialMT-41" x="911.589844"/>
      <use xlink:href="#ArialMT-4e" x="978.289062"/>
      <use xlink:href="#ArialMT-49" x="1050.505859"/>
      <use xlink:href="#ArialMT-6d" x="1078.289062"/>
      <use xlink:href="#ArialMT-20" x="1161.589844"/>
      <use xlink:href="#ArialMT-63" x="1189.373047"/>
      <use xlink:href="#ArialMT-6f" x="1239.373047"/>
      <use xlink:href="#ArialMT-72" x="1294.988281"/>
      <use xlink:href="#ArialMT-72" x="1328.289062"/>
      <use xlink:href="#ArialMT-65" x="1361.589844"/>
      <use xlink:href="#ArialMT-6c" x="1417.205078"/>
      <use xlink:href="#ArialMT-61" x="1439.421875"/>
      <use xlink:href="#ArialMT-74" x="1495.037109"/>
      <use xlink:href="#ArialMT-69" x="1522.820312"/>
      <use xlink:href="#ArialMT-6f" x="1545.037109"/>
      <use xlink:href="#ArialMT-6e" x="1600.652344"/>
     </g>
    </g>
   </g>
   <g id="patch_3">
    <path d="M 38.780156 223.754673 
L 38.780156 19.674937 
" style="fill: none; stroke: #000000; stroke-width: 0.8; stroke-linejoin: miter; stroke-linecap: square"/>
   </g>
   <g id="patch_4">
    <path d="M 445.983307 223.754673 
L 445.983307 19.674937 
" style="fill: none; stroke: #000000; stroke-width: 0.8; stroke-linejoin: miter; stroke-linecap: square"/>
   </g>
   <g id="patch_5">
    <path d="M 38.780156 223.754673 
L 445.983307 223.754673 
" style="fill: none; stroke: #000000; stroke-width: 0.8; stroke-linejoin: miter; stroke-linecap: square"/>
   </g>
   <g id="patch_6">
    <path d="M 38.780156 19.674937 
L 445.983307 19.674937 
" style="fill: none; stroke: #000000; stroke-width: 0.8; stroke-linejoin: miter; stroke-linecap: square"/>
   </g>
   <g id="text_15">
    <!-- Distribution of deviation from baseline (ANIm) cophenetic correlation (n = 238) -->
    <g transform="translate(97.538169 13.674937) scale(0.084 -0.084)">
     <defs>
      <path id="ArialMT-44" d="M 494 0 
L 494 4581 
L 2072 4581 
Q 2606 4581 2888 4516 
Q 3281 4425 3559 4188 
Q 3922 3881 4101 3404 
Q 4281 2928 4281 2316 
Q 4281 1794 4159 1391 
Q 4038 988 3847 723 
Q 3656 459 3429 307 
Q 3203 156 2883 78 
Q 2563 0 2147 0 
L 494 0 
z
M 1100 541 
L 2078 541 
Q 2531 541 2789 625 
Q 3047 709 3200 863 
Q 3416 1078 3536 1442 
Q 3656 1806 3656 2325 
Q 3656 3044 3420 3430 
Q 3184 3816 2847 3947 
Q 2603 4041 2063 4041 
L 1100 4041 
L 1100 541 
z
" transform="scale(0.015625)"/>
      <path id="ArialMT-62" d="M 941 0 
L 419 0 
L 419 4581 
L 981 4581 
L 981 2947 
Q 1338 3394 1891 3394 
Q 2197 3394 2470 3270 
Q 2744 3147 2920 2923 
Q 3097 2700 3197 2384 
Q 3297 2069 3297 1709 
Q 3297 856 2875 390 
Q 2453 -75 1863 -75 
Q 1275 -75 941 416 
L 941 0 
z
M 934 1684 
Q 934 1088 1097 822 
Q 1363 388 1816 388 
Q 2184 388 2453 708 
Q 2722 1028 2722 1663 
Q 2722 2313 2464 2622 
Q 2206 2931 1841 2931 
Q 1472 2931 1203 2611 
Q 934 2291 934 1684 
z
" transform="scale(0.015625)"/>
      <path id="ArialMT-66" d="M 556 0 
L 556 2881 
L 59 2881 
L 59 3319 
L 556 3319 
L 556 3672 
Q 556 4006 616 4169 
Q 697 4388 901 4523 
Q 1106 4659 1475 4659 
Q 1713 4659 2000 4603 
L 1916 4113 
Q 1741 4144 1584 4144 
Q 1328 4144 1222 4034 
Q 1116 3925 1116 3625 
L 1116 3319 
L 1763 3319 
L 1763 2881 
L 1116 2881 
L 1116 0 
L 556 0 
z
" transform="scale(0.015625)"/>
      <path id="ArialMT-76" d="M 1344 0 
L 81 3319 
L 675 3319 
L 1388 1331 
Q 1503 1009 1600 663 
Q 1675 925 1809 1294 
L 2547 3319 
L 3125 3319 
L 1869 0 
L 1344 0 
z
" transform="scale(0.015625)"/>
      <path id="ArialMT-28" d="M 1497 -1347 
Q 1031 -759 709 28 
Q 388 816 388 1659 
Q 388 2403 628 3084 
Q 909 3875 1497 4659 
L 1900 4659 
Q 1522 4009 1400 3731 
Q 1209 3300 1100 2831 
Q 966 2247 966 1656 
Q 966 153 1900 -1347 
L 1497 -1347 
z
" transform="scale(0.015625)"/>
      <path id="ArialMT-29" d="M 791 -1347 
L 388 -1347 
Q 1322 153 1322 1656 
Q 1322 2244 1188 2822 
Q 1081 3291 891 3722 
Q 769 4003 388 4659 
L 791 4659 
Q 1378 3875 1659 3084 
Q 1900 2403 1900 1659 
Q 1900 816 1576 28 
Q 1253 -759 791 -1347 
z
" transform="scale(0.015625)"/>
      <path id="ArialMT-70" d="M 422 -1272 
L 422 3319 
L 934 3319 
L 934 2888 
Q 1116 3141 1344 3267 
Q 1572 3394 1897 3394 
Q 2322 3394 2647 3175 
Q 2972 2956 3137 2557 
Q 3303 2159 3303 1684 
Q 3303 1175 3120 767 
Q 2938 359 2589 142 
Q 2241 -75 1856 -75 
Q 1575 -75 1351 44 
Q 1128 163 984 344 
L 984 -1272 
L 422 -1272 
z
M 931 1641 
Q 931 1000 1190 694 
Q 1450 388 1819 388 
Q 2194 388 2461 705 
Q 2728 1022 2728 1688 
Q 2728 2322 2467 2637 
Q 2206 2953 1844 2953 
Q 1484 2953 1207 2617 
Q 931 2281 931 1641 
z
" transform="scale(0.015625)"/>
      <path id="ArialMT-3d" d="M 3381 2694 
L 356 2694 
L 356 3219 
L 3381 3219 
L 3381 2694 
z
M 3381 1303 
L 356 1303 
L 356 1828 
L 3381 1828 
L 3381 1303 
z
" transform="scale(0.015625)"/>
      <path id="ArialMT-33" d="M 269 1209 
L 831 1284 
Q 928 806 1161 595 
Q 1394 384 1728 384 
Q 2125 384 2398 659 
Q 2672 934 2672 1341 
Q 2672 1728 2419 1979 
Q 2166 2231 1775 2231 
Q 1616 2231 1378 2169 
L 1441 2663 
Q 1497 2656 1531 2656 
Q 1891 2656 2178 2843 
Q 2466 3031 2466 3422 
Q 2466 3731 2256 3934 
Q 2047 4138 1716 4138 
Q 1388 4138 1169 3931 
Q 950 3725 888 3313 
L 325 3413 
Q 428 3978 793 4289 
Q 1159 4600 1703 4600 
Q 2078 4600 2393 4439 
Q 2709 4278 2876 4000 
Q 3044 3722 3044 3409 
Q 3044 3113 2884 2869 
Q 2725 2625 2413 2481 
Q 2819 2388 3044 2092 
Q 3269 1797 3269 1353 
Q 3269 753 2831 336 
Q 2394 -81 1725 -81 
Q 1122 -81 723 278 
Q 325 638 269 1209 
z
" transform="scale(0.015625)"/>
     </defs>
     <use xlink:href="#ArialMT-44"/>
     <use xlink:href="#ArialMT-69" x="72.216797"/>
     <use xlink:href="#ArialMT-73" x="94.433594"/>
     <use xlink:href="#ArialMT-74" x="144.433594"/>
     <use xlink:href="#ArialMT-72" x="172.216797"/>
     <use xlink:href="#ArialMT-69" x="205.517578"/>
     <use xlink:href="#ArialMT-62" x="227.734375"/>
     <use xlink:href="#ArialMT-75" x="283.349609"/>
     <use xlink:href="#ArialMT-74" x="338.964844"/>
     <use xlink:href="#ArialMT-69" x="366.748047"/>
     <use xlink:href="#ArialMT-6f" x="388.964844"/>
     <use xlink:href="#ArialMT-6e" x="444.580078"/>
     <use xlink:href="#ArialMT-20" x="500.195312"/>
     <use xlink:href="#ArialMT-6f" x="527.978516"/>
     <use xlink:href="#ArialMT-66" x="583.59375"/>
     <use xlink:href="#ArialMT-20" x="611.376953"/>
     <use xlink:href="#ArialMT-64" x="639.160156"/>
     <use xlink:href="#ArialMT-65" x="694.775391"/>
     <use xlink:href="#ArialMT-76" x="750.390625"/>
     <use xlink:href="#ArialMT-69" x="800.390625"/>
     <use xlink:href="#ArialMT-61" x="822.607422"/>
     <use xlink:href="#ArialMT-74" x="878.222656"/>
     <use xlink:href="#ArialMT-69" x="906.005859"/>
     <use xlink:href="#ArialMT-6f" x="928.222656"/>
     <use xlink:href="#ArialMT-6e" x="983.837891"/>
     <use xlink:href="#ArialMT-20" x="1039.453125"/>
     <use xlink:href="#ArialMT-66" x="1067.236328"/>
     <use xlink:href="#ArialMT-72" x="1095.019531"/>
     <use xlink:href="#ArialMT-6f" x="1128.320312"/>
     <use xlink:href="#ArialMT-6d" x="1183.935547"/>
     <use xlink:href="#ArialMT-20" x="1267.236328"/>
     <use xlink:href="#ArialMT-62" x="1295.019531"/>
     <use xlink:href="#ArialMT-61" x="1350.634766"/>
     <use xlink:href="#ArialMT-73" x="1406.25"/>
     <use xlink:href="#ArialMT-65" x="1456.25"/>
     <use xlink:href="#ArialMT-6c" x="1511.865234"/>
     <use xlink:href="#ArialMT-69" x="1534.082031"/>
     <use xlink:href="#ArialMT-6e" x="1556.298828"/>
     <use xlink:href="#ArialMT-65" x="1611.914062"/>
     <use xlink:href="#ArialMT-20" x="1667.529297"/>
     <use xlink:href="#ArialMT-28" x="1695.3125"/>
     <use xlink:href="#ArialMT-41" x="1728.613281"/>
     <use xlink:href="#ArialMT-4e" x="1795.3125"/>
     <use xlink:href="#ArialMT-49" x="1867.529297"/>
     <use xlink:href="#ArialMT-6d" x="1895.3125"/>
     <use xlink:href="#ArialMT-29" x="1978.613281"/>
     <use xlink:href="#ArialMT-20" x="2011.914062"/>
     <use xlink:href="#ArialMT-63" x="2039.697266"/>
     <use xlink:href="#ArialMT-6f" x="2089.697266"/>
     <use xlink:href="#ArialMT-70" x="2145.3125"/>
     <use xlink:href="#ArialMT-68" x="2200.927734"/>
     <use xlink:href="#ArialMT-65" x="2256.542969"/>
     <use xlink:href="#ArialMT-6e" x="2312.158203"/>
     <use xlink:href="#ArialMT-65" x="2367.773438"/>
     <use xlink:href="#ArialMT-74" x="2423.388672"/>
     <use xlink:href="#ArialMT-69" x="2451.171875"/>
     <use xlink:href="#ArialMT-63" x="2473.388672"/>
     <use xlink:href="#ArialMT-20" x="2523.388672"/>
     <use xlink:href="#ArialMT-63" x="2551.171875"/>
     <use xlink:href="#ArialMT-6f" x="2601.171875"/>
     <use xlink:href="#ArialMT-72" x="2656.787109"/>
     <use xlink:href="#ArialMT-72" x="2690.087891"/>
     <use xlink:href="#ArialMT-65" x="2723.388672"/>
     <use xlink:href="#ArialMT-6c" x="2779.003906"/>
     <use xlink:href="#ArialMT-61" x="2801.220703"/>
     <use xlink:href="#ArialMT-74" x="2856.835938"/>
     <use xlink:href="#ArialMT-69" x="2884.619141"/>
     <use xlink:href="#ArialMT-6f" x="2906.835938"/>
     <use xlink:href="#ArialMT-6e" x="2962.451172"/>
     <use xlink:href="#ArialMT-20" x="3018.066406"/>
     <use xlink:href="#ArialMT-28" x="3045.849609"/>
     <use xlink:href="#ArialMT-6e" x="3079.150391"/>
     <use xlink:href="#ArialMT-20" x="3134.765625"/>
     <use xlink:href="#ArialMT-3d" x="3162.548828"/>
     <use xlink:href="#ArialMT-20" x="3220.947266"/>
     <use xlink:href="#ArialMT-32" x="3248.730469"/>
     <use xlink:href="#ArialMT-33" x="3304.345703"/>
     <use xlink:href="#ArialMT-38" x="3359.960938"/>
     <use xlink:href="#ArialMT-29" x="3415.576172"/>
    </g>
   </g>
   <g id="legend_1">
    <g id="patch_7">
     <path d="M 43.680156 220.254673 
L 176.178125 220.254673 
Q 177.578125 220.254673 177.578125 218.854673 
L 177.578125 160.14436 
Q 177.578125 158.74436 176.178125 158.74436 
L 43.680156 158.74436 
Q 42.280156 158.74436 42.280156 160.14436 
L 42.280156 218.854673 
Q 42.280156 220.254673 43.680156 220.254673 
z
" style="fill: #ffffff; opacity: 0.8; stroke: #cccccc; stroke-linejoin: miter"/>
    </g>
    <g id="text_16">
     <!-- method: mean deviation -->
     <g transform="translate(72.575391 166.554829) scale(0.07 -0.07)">
      <defs>
       <path id="ArialMT-3a" d="M 578 2678 
L 578 3319 
L 1219 3319 
L 1219 2678 
L 578 2678 
z
M 578 0 
L 578 641 
L 1219 641 
L 1219 0 
L 578 0 
z
" transform="scale(0.015625)"/>
      </defs>
      <use xlink:href="#ArialMT-6d"/>
      <use xlink:href="#ArialMT-65" x="83.300781"/>
      <use xlink:href="#ArialMT-74" x="138.916016"/>
      <use xlink:href="#ArialMT-68" x="166.699219"/>
      <use xlink:href="#ArialMT-6f" x="222.314453"/>
      <use xlink:href="#ArialMT-64" x="277.929688"/>
      <use xlink:href="#ArialMT-3a" x="333.544922"/>
      <use xlink:href="#ArialMT-20" x="361.328125"/>
      <use xlink:href="#ArialMT-6d" x="389.111328"/>
      <use xlink:href="#ArialMT-65" x="472.412109"/>
      <use xlink:href="#ArialMT-61" x="528.027344"/>
      <use xlink:href="#ArialMT-6e" x="583.642578"/>
      <use xlink:href="#ArialMT-20" x="639.257812"/>
      <use xlink:href="#ArialMT-64" x="667.041016"/>
      <use xlink:href="#ArialMT-65" x="722.65625"/>
      <use xlink:href="#ArialMT-76" x="778.271484"/>
      <use xlink:href="#ArialMT-69" x="828.271484"/>
      <use xlink:href="#ArialMT-61" x="850.488281"/>
      <use xlink:href="#ArialMT-74" x="906.103516"/>
      <use xlink:href="#ArialMT-69" x="933.886719"/>
      <use xlink:href="#ArialMT-6f" x="956.103516"/>
      <use xlink:href="#ArialMT-6e" x="1011.71875"/>
     </g>
    </g>
    <g id="patch_8">
     <path d="M 45.080156 176.456548 
L 59.080156 176.456548 
L 59.080156 171.556548 
L 45.080156 171.556548 
z
" style="fill: #4878d0; stroke: #000000; stroke-linejoin: miter"/>
    </g>
    <g id="text_17">
     <!-- skani: -0.046 -->
     <g transform="translate(64.680156 176.456548) scale(0.07 -0.07)">
      <use xlink:href="#ArialMT-73"/>
      <use xlink:href="#ArialMT-6b" x="50"/>
      <use xlink:href="#ArialMT-61" x="100"/>
      <use xlink:href="#ArialMT-6e" x="155.615234"/>
      <use xlink:href="#ArialMT-69" x="211.230469"/>
      <use xlink:href="#ArialMT-3a" x="233.447266"/>
      <use xlink:href="#ArialMT-20" x="261.230469"/>
      <use xlink:href="#ArialMT-2d" x="289.013672"/>
      <use xlink:href="#ArialMT-30" x="322.314453"/>
      <use xlink:href="#ArialMT-2e" x="377.929688"/>
      <use xlink:href="#ArialMT-30" x="405.712891"/>
      <use xlink:href="#ArialMT-34" x="461.328125"/>
      <use xlink:href="#ArialMT-36" x="516.943359"/>
     </g>
    </g>
    <g id="patch_9">
     <path d="M 45.080156 186.358266 
L 59.080156 186.358266 
L 59.080156 181.458266 
L 45.080156 181.458266 
z
" style="fill: url(#hb153716bc9); stroke: #000000; stroke-linejoin: miter"/>
    </g>
    <g id="text_18">
     <!-- sourmash max-containment: -0.152 -->
     <g transform="translate(64.680156 186.358266) scale(0.07 -0.07)">
      <defs>
       <path id="ArialMT-35" d="M 266 1200 
L 856 1250 
Q 922 819 1161 601 
Q 1400 384 1738 384 
Q 2144 384 2425 690 
Q 2706 997 2706 1503 
Q 2706 1984 2436 2262 
Q 2166 2541 1728 2541 
Q 1456 2541 1237 2417 
Q 1019 2294 894 2097 
L 366 2166 
L 809 4519 
L 3088 4519 
L 3088 3981 
L 1259 3981 
L 1013 2750 
Q 1425 3038 1878 3038 
Q 2478 3038 2890 2622 
Q 3303 2206 3303 1553 
Q 3303 931 2941 478 
Q 2500 -78 1738 -78 
Q 1113 -78 717 272 
Q 322 622 266 1200 
z
" transform="scale(0.015625)"/>
      </defs>
      <use xlink:href="#ArialMT-73"/>
      <use xlink:href="#ArialMT-6f" x="50"/>
      <use xlink:href="#ArialMT-75" x="105.615234"/>
      <use xlink:href="#ArialMT-72" x="161.230469"/>
      <use xlink:href="#ArialMT-6d" x="194.53125"/>
      <use xlink:href="#ArialMT-61" x="277.832031"/>
      <use xlink:href="#ArialMT-73" x="333.447266"/>
      <use xlink:href="#ArialMT-68" x="383.447266"/>
      <use xlink:href="#ArialMT-20" x="439.0625"/>
      <use xlink:href="#ArialMT-6d" x="466.845703"/>
      <use xlink:href="#ArialMT-61" x="550.146484"/>
      <use xlink:href="#ArialMT-78" x="605.761719"/>
      <use xlink:href="#ArialMT-2d" x="655.761719"/>
      <use xlink:href="#ArialMT-63" x="689.0625"/>
      <use xlink:href="#ArialMT-6f" x="739.0625"/>
      <use xlink:href="#ArialMT-6e" x="794.677734"/>
      <use xlink:href="#ArialMT-74" x="850.292969"/>
      <use xlink:href="#ArialMT-61" x="878.076172"/>
      <use xlink:href="#ArialMT-69" x="933.691406"/>
      <use xlink:href="#ArialMT-6e" x="955.908203"/>
      <use xlink:href="#ArialMT-6d" x="1011.523438"/>
      <use xlink:href="#ArialMT-65" x="1094.824219"/>
      <use xlink:href="#ArialMT-6e" x="1150.439453"/>
      <use xlink:href="#ArialMT-74" x="1206.054688"/>
      <use xlink:href="#ArialMT-3a" x="1233.837891"/>
      <use xlink:href="#ArialMT-20" x="1261.621094"/>
      <use xlink:href="#ArialMT-2d" x="1289.404297"/>
      <use xlink:href="#ArialMT-30" x="1322.705078"/>
      <use xlink:href="#ArialMT-2e" x="1378.320312"/>
      <use xlink:href="#ArialMT-31" x="1406.103516"/>
      <use xlink:href="#ArialMT-35" x="1461.71875"/>
      <use xlink:href="#ArialMT-32" x="1517.333984"/>
     </g>
    </g>
    <g id="patch_10">
     <path d="M 45.080156 196.259985 
L 59.080156 196.259985 
L 59.080156 191.359985 
L 45.080156 191.359985 
z
" style="fill: #d65f5f; stroke: #000000; stroke-linejoin: miter"/>
    </g>
    <g id="text_19">
     <!-- sourmash: -0.345 -->
     <g transform="translate(64.680156 196.259985) scale(0.07 -0.07)">
      <use xlink:href="#ArialMT-73"/>
      <use xlink:href="#ArialMT-6f" x="50"/>
      <use xlink:href="#ArialMT-75" x="105.615234"/>
      <use xlink:href="#ArialMT-72" x="161.230469"/>
      <use xlink:href="#ArialMT-6d" x="194.53125"/>
      <use xlink:href="#ArialMT-61" x="277.832031"/>
      <use xlink:href="#ArialMT-73" x="333.447266"/>
      <use xlink:href="#ArialMT-68" x="383.447266"/>
      <use xlink:href="#ArialMT-3a" x="439.0625"/>
      <use xlink:href="#ArialMT-20" x="466.845703"/>
      <use xlink:href="#ArialMT-2d" x="494.628906"/>
      <use xlink:href="#ArialMT-30" x="527.929688"/>
      <use xlink:href="#ArialMT-2e" x="583.544922"/>
      <use xlink:href="#ArialMT-33" x="611.328125"/>
      <use xlink:href="#ArialMT-34" x="666.943359"/>
      <use xlink:href="#ArialMT-35" x="722.558594"/>
     </g>
    </g>
    <g id="patch_11">
     <path d="M 45.080156 206.161704 
L 59.080156 206.161704 
L 59.080156 201.261704 
L 45.080156 201.261704 
z
" style="fill: #ee854a; stroke: #000000; stroke-linejoin: miter"/>
    </g>
    <g id="text_20">
     <!-- fastani: -0.232 -->
     <g transform="translate(64.680156 206.161704) scale(0.07 -0.07)">
      <use xlink:href="#ArialMT-66"/>
      <use xlink:href="#ArialMT-61" x="27.783203"/>
      <use xlink:href="#ArialMT-73" x="83.398438"/>
      <use xlink:href="#ArialMT-74" x="133.398438"/>
      <use xlink:href="#ArialMT-61" x="161.181641"/>
      <use xlink:href="#ArialMT-6e" x="216.796875"/>
      <use xlink:href="#ArialMT-69" x="272.412109"/>
      <use xlink:href="#ArialMT-3a" x="294.628906"/>
      <use xlink:href="#ArialMT-20" x="322.412109"/>
      <use xlink:href="#ArialMT-2d" x="350.195312"/>
      <use xlink:href="#ArialMT-30" x="383.496094"/>
      <use xlink:href="#ArialMT-2e" x="439.111328"/>
      <use xlink:href="#ArialMT-32" x="466.894531"/>
      <use xlink:href="#ArialMT-33" x="522.509766"/>
      <use xlink:href="#ArialMT-32" x="578.125"/>
     </g>
    </g>
    <g id="patch_12">
     <path d="M 45.080156 216.063423 
L 59.080156 216.063423 
L 59.080156 211.163423 
L 45.080156 211.163423 
z
" style="fill: #6acc64; stroke: #000000; stroke-linejoin: miter"/>
    </g>
    <g id="text_21">
     <!-- mash: -0.426 -->
     <g transform="translate(64.680156 216.063423) scale(0.07 -0.07)">
      <use xlink:href="#ArialMT-6d"/>
      <use xlink:href="#ArialMT-61" x="83.300781"/>
      <use xlink:href="#ArialMT-73" x="138.916016"/>
      <use xlink:href="#ArialMT-68" x="188.916016"/>
      <use xlink:href="#ArialMT-3a" x="244.53125"/>
      <use xlink:href="#ArialMT-20" x="272.314453"/>
      <use xlink:href="#ArialMT-2d" x="300.097656"/>
      <use xlink:href="#ArialMT-30" x="333.398438"/>
      <use xlink:href="#ArialMT-2e" x="389.013672"/>
      <use xlink:href="#ArialMT-34" x="416.796875"/>
      <use xlink:href="#ArialMT-32" x="472.412109"/>
      <use xlink:href="#ArialMT-36" x="528.027344"/>
     </g>
    </g>
   </g>
  </g>
 </g>
 <defs>
  <clipPath id="pf78783e602">
   <rect x="38.780156" y="19.674937" width="407.203151" height="204.079735"/>
  </clipPath>
 </defs>
 <defs>
  <pattern id="he6aa6ac567" patternUnits="userSpaceOnUse" x="0" y="0" width="72" height="72">
   <rect x="0" y="0" width="73" height="73" fill="#d65f5f"/>
   <path d="M -36 36 
L 36 -36 
M -32 40 
L 40 -32 
M -28 44 
L 44 -28 
M -24 48 
L 48 -24 
M -20 52 
L 52 -20 
M -16 56 
L 56 -16 
M -12 60 
L 60 -12 
M -8 64 
L 64 -8 
M -4 68 
L 68 -4 
M 0 72 
L 72 0 
M 4 76 
L 76 4 
M 8 80 
L 80 8 
M 12 84 
L 84 12 
M 16 88 
L 88 16 
M 20 92 
L 92 20 
M 24 96 
L 96 24 
M 28 100 
L 100 28 
M 32 104 
L 104 32 
M 36 108 
L 108 36 
" style="fill: #545454; stroke: #545454; stroke-width: 1.0; stroke-linecap: butt; stroke-linejoin: miter"/>
  </pattern>
  <pattern id="hb153716bc9" patternUnits="userSpaceOnUse" x="0" y="0" width="72" height="72">
   <rect x="0" y="0" width="73" height="73" fill="#d65f5f"/>
   <path d="M -36 36 
L 36 -36 
M -32 40 
L 40 -32 
M -28 44 
L 44 -28 
M -24 48 
L 48 -24 
M -20 52 
L 52 -20 
M -16 56 
L 56 -16 
M -12 60 
L 60 -12 
M -8 64 
L 64 -8 
M -4 68 
L 68 -4 
M 0 72 
L 72 0 
M 4 76 
L 76 4 
M 8 80 
L 80 8 
M 12 84 
L 84 12 
M 16 88 
L 88 16 
M 20 92 
L 92 20 
M 24 96 
L 96 24 
M 28 100 
L 100 28 
M 32 104 
L 104 32 
M 36 108 
L 108 36 
" style="fill: #000000; stroke: #000000; stroke-width: 1.0; stroke-linecap: butt; stroke-linejoin: miter"/>
  </pattern>
 </defs>
</svg>
